<svg xmlns="http://www.w3.org/2000/svg" xmlns:xlink="http://www.w3.org/1999/xlink" viewBox="0 0 822.76 96.46"><defs><style>.cls-1,.cls-3,.cls-6{fill:none;}.cls-2{clip-path:url(#clip-path);}.cls-3,.cls-6{stroke:#231f20;stroke-linecap:square;stroke-miterlimit:10;}.cls-3{stroke-width:1.63px;}.cls-4{fill:#fff;}.cls-5{fill:#231f20;}.cls-6{stroke-width:1.65px;}.cls-7{fill:#ed3724;}</style><clipPath id="clip-path"><rect class="cls-1" x="0.41" y="0.46" width="821.93" height="96"/></clipPath></defs><title>Asset 5</title><g id="Layer_2" data-name="Layer 2"><g id="Layer_1-2" data-name="Layer 1"><g class="cls-2"><line class="cls-3" x1="0.82" y1="91.59" x2="821.95" y2="91.59"/></g><rect class="cls-4" x="576.45" y="79.18" width="118.22" height="17.28"/><g class="cls-2"><path class="cls-5" d="M585.33,48.87v5.34h5.81v36.5h7.52V42.86H593.6c-1.16,3.21-2.46,6-8.27,6"/><path class="cls-5" d="M615.17,42.34v6.84c2,.22,3.29,1.57,3.29,4.68V79.7c0,3.12-1.25,4.47-3.29,4.68v6.85c7-.24,10.81-4.57,10.81-12V54.34c0-7.44-3.82-11.76-10.81-12"/><path class="cls-5" d="M610.67,79.7V53.86c0-3,1.15-4.36,3-4.65V42.35c-6.83.33-10.56,4.64-10.56,12V79.22c0,7.35,3.73,11.67,10.56,12V84.36c-1.89-.3-3-1.67-3-4.66"/><polyline class="cls-6" points="694.77 91.59 694.77 28.06 635.56 0.91 576.36 28.06 576.36 91.59"/></g><polygon class="cls-7" points="676.1 0.66 671.69 8.3 667.4 0.66 655.83 0.66 666.4 16.11 655.42 32.26 666.99 32.26 671.69 24.28 676.5 32.26 688.08 32.26 677.09 16.11 687.67 0.66 676.1 0.66"/></g></g></svg>