<?xml version="1.0" encoding="UTF-8"?>
<svg id="Layer_1" data-name="Layer 1" xmlns="http://www.w3.org/2000/svg" viewBox="0 0 976 130">
  <defs>
    <style>
      .cls-1 {
        font-family: Helvetica, Helvetica;
        font-size: 146.9px;
      }

      .cls-2 {
        fill: #eb0028;
      }
    </style>
  </defs>
  <g>
    <g>
      <path class="cls-2" d="m32.58,40.28H2.93V13.16h91.88v27.12h-29.64v78.7h-32.58V40.28Z"/>
      <path class="cls-2" d="m99.87,13.16h89.19v27.12h-56.59v13.19h56.59v25.2h-56.59v13.19h56.6v27.12h-89.21V13.16Z"/>
      <path class="cls-2" d="m194.55,13.16h53.5c35.27,0,47.73,26.08,47.73,52.75,0,32.47-17.19,53.06-54.1,53.06h-47.13V13.16Zm32.6,78.7h12.75c20.31,0,23.28-16.46,23.28-26.4,0-6.66-2.09-25.18-25.65-25.18h-10.38v51.58Z"/>
    </g>
    <path class="cls-2" d="m342.63,78.2l-9.95-16.49-9.7,16.49h-23.89l22.68-33.35-21.84-31.9h23.89l8.85,15.77,9.1-15.77h23.89l-21.83,31.9,22.68,33.35h-23.89Z"/>
  </g>
  <text class="cls-1" transform="translate(378.74 118.99)"><tspan x="0" y="0">Auckland</tspan></text>
</svg>