<?xml version="1.0" encoding="utf-8"?>
<!-- Generator: Adobe Illustrator 25.0.1, SVG Export Plug-In . SVG Version: 6.00 Build 0)  -->
<svg version="1.1" id="New_VF_Logo_AW" xmlns="http://www.w3.org/2000/svg" xmlns:xlink="http://www.w3.org/1999/xlink" x="0px"
	 y="0px" viewBox="0 0 1177.85 311.81" style="enable-background:new 0 0 1177.85 311.81;" xml:space="preserve">
<style type="text/css">
	.st0{fill:#E60000;}
	.st1{fill:#FFFFFF;}
</style>
<g id="XMLID_1_">
	<circle id="XMLID_689_" class="st0" cx="155.91" cy="155.91" r="141.73"/>
	<path id="XMLID_688_" class="st1" d="M157.03,234.94c-38.94,0.13-79.46-33.11-79.63-86.48c-0.12-35.29,18.92-69.27,43.26-89.42
		c23.74-19.66,56.26-32.27,85.76-32.37c3.8-0.01,7.77,0.3,10.2,1.13c-25.79,5.35-46.32,29.35-46.23,56.58c0,0.9,0.08,1.86,0.17,2.31
		c43.16,10.51,62.75,36.55,62.87,72.58C233.55,195.3,205.11,234.78,157.03,234.94z"/>
</g>
<g id="XMLID_763_">
	<path id="XMLID_686_" class="st0" d="M389.17,214.62L345.83,111.2h28.32l27.03,68.66l26.17-68.66h27.03l-42.05,103.42H389.17z"/>
	<path id="XMLID_683_" class="st0" d="M555.99,162.48c0,6.73-1.04,13.34-3.11,19.85c-2.07,6.51-5.15,12.34-9.22,17.49
		c-4.08,5.15-9.22,9.3-15.45,12.44c-6.22,3.15-13.48,4.72-21.78,4.72s-15.56-1.57-21.78-4.72c-6.22-3.15-11.37-7.3-15.45-12.44
		c-4.08-5.15-7.16-10.98-9.22-17.49c-2.08-6.51-3.11-13.12-3.11-19.85c0-6.72,1.03-13.3,3.11-19.74c2.07-6.44,5.15-12.19,9.22-17.27
		c4.08-5.08,9.22-9.15,15.45-12.23c6.22-3.07,13.48-4.61,21.78-4.61s15.52,1.54,21.67,4.61c6.15,3.08,11.3,7.15,15.45,12.23
		c4.15,5.08,7.26,10.84,9.33,17.27C554.95,149.18,555.99,155.76,555.99,162.48z M529.82,162.37c0-4.31-0.5-8.39-1.5-12.27
		c-1-3.88-2.5-7.21-4.51-10.01c-2.01-2.8-4.43-5.03-7.3-6.67c-2.86-1.65-6.22-2.48-10.08-2.48c-3.86,0-7.22,0.83-10.08,2.48
		c-2.86,1.65-5.29,3.87-7.29,6.67c-2.01,2.8-3.51,6.14-4.51,10.01c-1,3.88-1.5,7.96-1.5,12.27c0,4.45,0.5,8.58,1.5,12.38
		c1,3.8,2.47,7.14,4.4,10.01c1.93,2.87,4.36,5.13,7.3,6.78c2.93,1.65,6.33,2.47,10.19,2.47c3.86,0,7.22-0.83,10.08-2.47
		c2.86-1.65,5.29-3.91,7.3-6.78c2-2.87,3.51-6.21,4.51-10.01C529.31,170.95,529.82,166.82,529.82,162.37z"/>
	<path id="XMLID_680_" class="st0" d="M638.06,214.62l-1.08-7.94c-2.43,2.72-5.64,5.11-9.62,7.18c-3.99,2.07-8.7,3.11-14.12,3.11
		c-7.13,0-13.41-1.5-18.82-4.51c-5.42-3-9.98-7.01-13.69-12.01c-3.71-5-6.52-10.8-8.45-17.38c-1.92-6.58-2.89-13.44-2.89-20.6
		c0-6.72,1-13.3,2.99-19.74c2-6.44,5.03-12.19,9.09-17.27c4.06-5.08,9.16-9.15,15.3-12.23c6.13-3.07,13.33-4.61,21.6-4.61
		c5.42,0,11.26,0.99,17.54,2.98V71.51h26.61v143.11H638.06z M635.9,133.95c-5.12-2.01-9.89-3.01-14.3-3.01
		c-4.55,0-8.47,0.86-11.74,2.59c-3.27,1.72-5.98,4.05-8.11,6.99s-3.74,6.24-4.8,9.91c-1.07,3.66-1.6,7.42-1.6,11.3
		c0,4.31,0.46,8.43,1.39,12.38s2.35,7.39,4.27,10.33c1.92,2.94,4.34,5.31,7.26,7.1c2.92,1.79,6.37,2.69,10.35,2.69
		c3.27,0,6.62-0.9,10.03-2.69c3.41-1.79,5.83-3.91,7.26-6.35V133.95z"/>
	<path id="XMLID_672_" class="st0" d="M739.54,214.52l-1.07-7.72c-2.87,3.18-6.53,5.67-10.98,7.47c-4.45,1.8-9.33,2.71-14.64,2.71
		c-4.45,0-8.73-0.75-12.81-2.25c-4.09-1.5-7.71-3.65-10.87-6.44c-3.16-2.79-5.71-6.22-7.64-10.3c-1.94-4.08-2.91-8.69-2.91-13.84
		c0-5.15,1-9.69,3.01-13.62c2.01-3.93,4.74-7.26,8.18-9.98c3.45-2.72,7.39-4.94,11.84-6.65s9.12-3,14-3.86
		c3.45-0.71,7.21-1.25,11.31-1.61c4.09-0.35,7.5-0.68,10.23-0.97v-1.5c0-5.72-1.48-9.79-4.42-12.23c-2.94-2.43-7.01-3.65-12.18-3.65
		c-3.02,0-5.9,0.36-8.63,1.08c-2.73,0.71-5.18,1.61-7.33,2.68c-2.16,1.07-4.06,2.14-5.71,3.22c-1.66,1.07-2.98,2.04-3.99,2.9
		l-8.8-18.67c1.14-1,2.89-2.21,5.26-3.65c2.36-1.43,5.22-2.82,8.58-4.18c3.36-1.36,7.15-2.5,11.37-3.43
		c4.22-0.93,8.76-1.39,13.62-1.39c5.72,0,10.94,0.75,15.66,2.25c4.72,1.5,8.8,3.86,12.23,7.07c3.43,3.21,6.12,7.29,8.05,12.21
		c1.93,4.93,2.9,10.9,2.9,17.9v66.45H739.54z M737.41,166.13c-2.88,0.15-5.83,0.4-8.85,0.75s-5.9,0.82-8.64,1.39
		c-5.76,1.14-9.75,3.11-11.99,5.9c-2.23,2.79-3.35,5.83-3.35,9.12c0,3.43,1.26,6.19,3.78,8.26c2.52,2.07,6.08,3.11,10.69,3.11
		c3.45,0,6.8-0.71,10.04-2.14c3.24-1.43,6.01-3.22,8.32-5.37V166.13z"/>
	<path id="XMLID_670_" class="st0" d="M845.99,95.11c-0.86-0.43-2.54-1.04-5.04-1.82c-2.5-0.79-5.83-1.18-9.98-1.18
		c-3.72,0-6.83,1.11-9.33,3.33c-2.5,2.22-3.76,5.83-3.76,10.83v4.94h22.32v21.46h-22.1v81.96h-26.6v-81.96h-13.73V111.2h13.73v-5.58
		c0-6.72,0.86-12.41,2.57-17.06c1.72-4.65,4.11-8.44,7.19-11.37c3.07-2.93,6.68-5.08,10.83-6.44c4.15-1.36,8.65-2.04,13.52-2.04
		c6.44,0,11.76,0.61,15.98,1.82c4.22,1.22,6.68,2.04,7.4,2.47L845.99,95.11z"/>
	<path id="XMLID_667_" class="st0" d="M944.69,162.48c0,6.73-1.04,13.34-3.11,19.85c-2.07,6.51-5.15,12.34-9.22,17.49
		c-4.08,5.15-9.22,9.3-15.45,12.44c-6.22,3.15-13.48,4.72-21.78,4.72s-15.56-1.57-21.78-4.72c-6.22-3.15-11.37-7.3-15.45-12.44
		c-4.08-5.15-7.16-10.98-9.22-17.49c-2.08-6.51-3.11-13.12-3.11-19.85c0-6.72,1.03-13.3,3.11-19.74c2.07-6.44,5.15-12.19,9.22-17.27
		c4.08-5.08,9.22-9.15,15.45-12.23c6.22-3.07,13.48-4.61,21.78-4.61s15.52,1.54,21.67,4.61c6.15,3.08,11.3,7.15,15.45,12.23
		c4.15,5.08,7.26,10.84,9.33,17.27C943.65,149.18,944.69,155.76,944.69,162.48z M918.51,162.37c0-4.31-0.5-8.39-1.5-12.27
		c-1-3.88-2.5-7.21-4.51-10.01c-2.01-2.8-4.43-5.03-7.3-6.67c-2.86-1.65-6.22-2.48-10.08-2.48c-3.86,0-7.22,0.83-10.08,2.48
		c-2.86,1.65-5.29,3.87-7.29,6.67c-2.01,2.8-3.51,6.14-4.51,10.01c-1,3.88-1.5,7.96-1.5,12.27c0,4.45,0.5,8.58,1.5,12.38
		c1,3.8,2.47,7.14,4.4,10.01c1.93,2.87,4.36,5.13,7.3,6.78c2.93,1.65,6.33,2.47,10.19,2.47c3.86,0,7.22-0.83,10.08-2.47
		c2.86-1.65,5.29-3.91,7.3-6.78c2-2.87,3.51-6.21,4.51-10.01C918.01,170.95,918.51,166.82,918.51,162.37z"/>
	<path id="XMLID_665_" class="st0" d="M1027.27,214.62v-59c0-7.86-1.65-13.94-4.94-18.24c-3.29-4.29-7.87-6.44-13.73-6.44
		c-4.15,0-7.98,1.07-11.48,3.22c-3.51,2.15-6.54,4.51-9.12,7.08v73.38h-26.6V111.2h24.24l1.29,8.15c4.15-3.43,8.83-6.08,14.05-7.94
		c5.22-1.86,10.48-2.79,15.77-2.79c5.44,0,10.44,0.83,15.02,2.47c4.57,1.65,8.51,4.26,11.8,7.83c3.29,3.58,5.83,8.23,7.62,13.95
		c1.79,5.72,2.68,12.59,2.68,20.6v61.15H1027.27z"/>
	<path id="XMLID_662_" class="st0" d="M1096.52,169.56c0.57,8.73,3.3,15.02,8.18,18.88c4.88,3.86,11.2,5.79,18.95,5.79
		c3.59,0,6.96-0.32,10.12-0.97c3.16-0.64,5.96-1.46,8.4-2.47c2.44-1,4.53-2,6.25-3c1.72-1,3.01-1.93,3.88-2.79l7.08,21.67
		c-1,0.71-2.61,1.68-4.83,2.89c-2.22,1.22-4.97,2.36-8.26,3.43c-3.29,1.07-7.16,2-11.59,2.79c-4.43,0.78-9.3,1.18-14.59,1.18
		c-6.72,0-13.12-1.07-19.2-3.22c-6.08-2.14-11.41-5.47-15.98-9.98c-4.58-4.5-8.23-10.12-10.94-16.84
		c-2.72-6.72-4.08-14.73-4.08-24.03c0-8.72,1.25-16.45,3.75-23.17c2.5-6.72,5.93-12.37,10.3-16.95c4.36-4.58,9.44-8.08,15.23-10.51
		c5.79-2.43,11.98-3.65,18.56-3.65c6.58,0,12.66,1.07,18.24,3.22c5.58,2.14,10.4,5.47,14.48,9.98c4.08,4.51,7.3,10.34,9.65,17.49
		c2.36,7.15,3.54,15.66,3.54,25.53v4.72H1096.52z M1136.64,150.47c-0.29-3.58-1.05-6.69-2.26-9.33c-1.22-2.65-2.73-4.79-4.53-6.44
		c-1.8-1.64-3.74-2.86-5.83-3.65c-2.08-0.78-4.21-1.18-6.36-1.18c-4.6,0-8.99,1.72-13.16,5.15c-4.17,3.44-6.62,8.58-7.33,15.45
		H1136.64z"/>
</g>
</svg>
