<svg id="Layer_1" data-name="Layer 1" xmlns="http://www.w3.org/2000/svg" xmlns:xlink="http://www.w3.org/1999/xlink" viewBox="0 0 1200 600"><defs><style>.cls-1{fill:none;}.cls-2{fill:#e62b1e;}.cls-3{fill:#fff;}.cls-4{clip-path:url(#clip-path);}.cls-5{fill:#e60000;}</style><clipPath id="clip-path"><rect class="cls-1" x="511.5" y="522.14" width="177" height="46.86"/></clipPath></defs><title>Artboard 45</title><rect width="1200" height="600"/><path class="cls-2" d="M96.62,145.15,93,139.88h3.48l2,2.9,1.94-2.9h3.37l-3.65,5.2,4.1,5.91h-3.48l-2.32-3.5L96,151H92.62Z"/><path class="cls-3" d="M118.62,144.42H107.77v-2.3h10.85Zm0,4.6H107.77v-2.3h10.85Z"/><path class="cls-3" d="M126.93,138.16h-3.05v-2.51h3.05Zm-3.05,1.72h3.05V151h-3.05Z"/><path class="cls-3" d="M128.91,139.88h2.9v1.55h.07a3.94,3.94,0,0,1,3.39-1.85c3.25,0,4.06,1.83,4.06,4.58V151h-3.05v-6.27c0-1.83-.54-2.73-1.95-2.73-1.66,0-2.37.92-2.37,3.18V151h-3.05Z"/><path class="cls-3" d="M149.15,149.57h0a3.69,3.69,0,0,1-3.38,1.72c-3.35,0-5-2.88-5-5.95s1.65-5.76,4.92-5.76a3.88,3.88,0,0,1,3.31,1.66h0v-5.59h3.05V151h-2.9Zm-2.66-7.69c-2,0-2.69,1.72-2.69,3.55s.8,3.56,2.69,3.56,2.62-1.76,2.62-3.58S148.46,141.88,146.49,141.88Z"/><path class="cls-3" d="M156.43,146.18c.09,1.93,1,2.81,2.73,2.81a2.5,2.5,0,0,0,2.41-1.44h2.68a5,5,0,0,1-5.2,3.74c-3.5,0-5.67-2.4-5.67-5.84a5.57,5.57,0,0,1,5.67-5.87c3.79,0,5.61,3.18,5.4,6.6Zm5-1.93c-.28-1.55-1-2.37-2.43-2.37a2.41,2.41,0,0,0-2.54,2.37Z"/><path class="cls-3" d="M165.82,139.88h2.9v1.42h.05a3.69,3.69,0,0,1,3.3-1.72c3.49,0,5.05,2.82,5.05,6,0,3-1.63,5.73-4.87,5.73a3.94,3.94,0,0,1-3.33-1.67h0v5.28h-3.05Zm8.25,5.59c0-1.76-.71-3.59-2.66-3.59s-2.64,1.78-2.64,3.59.68,3.52,2.66,3.52S174.07,147.27,174.07,145.47Z"/><path class="cls-3" d="M181,146.18c.09,1.93,1,2.81,2.73,2.81a2.5,2.5,0,0,0,2.41-1.44h2.68a5,5,0,0,1-5.19,3.74c-3.51,0-5.68-2.4-5.68-5.84a5.58,5.58,0,0,1,5.68-5.87c3.78,0,5.6,3.18,5.39,6.6Zm5-1.93c-.28-1.55-.95-2.37-2.43-2.37a2.42,2.42,0,0,0-2.54,2.37Z"/><path class="cls-3" d="M190.42,139.88h2.9v1.55h.07a3.94,3.94,0,0,1,3.39-1.85c3.25,0,4.06,1.83,4.06,4.58V151h-3.05v-6.27c0-1.83-.53-2.73-1.95-2.73-1.66,0-2.37.92-2.37,3.18V151h-3.05Z"/><path class="cls-3" d="M210.66,149.57h0a3.68,3.68,0,0,1-3.37,1.72c-3.36,0-5-2.88-5-5.95s1.66-5.76,4.92-5.76a3.88,3.88,0,0,1,3.31,1.66h0v-5.59h3.05V151h-2.9ZM208,141.88c-2,0-2.69,1.72-2.69,3.55s.8,3.56,2.69,3.56,2.62-1.76,2.62-3.58S210,141.88,208,141.88Z"/><path class="cls-3" d="M217.94,146.18c.09,1.93,1,2.81,2.73,2.81a2.5,2.5,0,0,0,2.41-1.44h2.69a5,5,0,0,1-5.2,3.74c-3.51,0-5.68-2.4-5.68-5.84a5.58,5.58,0,0,1,5.68-5.87c3.78,0,5.6,3.18,5.39,6.6Zm5-1.93c-.28-1.55-.95-2.37-2.43-2.37a2.42,2.42,0,0,0-2.54,2.37Z"/><path class="cls-3" d="M227.33,139.88h2.9v1.55h.07a3.94,3.94,0,0,1,3.39-1.85c3.25,0,4.06,1.83,4.06,4.58V151H234.7v-6.27c0-1.83-.53-2.73-1.95-2.73-1.66,0-2.37.92-2.37,3.18V151h-3Z"/><path class="cls-3" d="M243.51,139.88h2.24v2h-2.24v5.5c0,1,.26,1.29,1.29,1.29a5.15,5.15,0,0,0,.95-.08V151a11.32,11.32,0,0,1-1.79.11c-1.87,0-3.5-.43-3.5-2.64v-6.56h-1.85v-2h1.85v-3.33h3Z"/><path class="cls-3" d="M246.86,135.65h3V151h-3Z"/><path class="cls-3" d="M257.37,152.39c-.67,1.78-1.72,2.51-3.82,2.51a16.61,16.61,0,0,1-1.87-.11v-2.51a17.36,17.36,0,0,0,1.78.11,1.44,1.44,0,0,0,1-2.09l-3.91-10.42h3.27l2.51,7.61h0l2.43-7.61H262Z"/><path class="cls-3" d="M273.55,139.58c3.5,0,5.76,2.32,5.76,5.87a5.75,5.75,0,1,1-11.5,0C267.81,141.9,270.07,139.58,273.55,139.58Zm0,9.41c2.08,0,2.71-1.78,2.71-3.54s-.63-3.57-2.71-3.57-2.69,1.78-2.69,3.57S271.49,149,273.55,149Z"/><path class="cls-3" d="M280.42,139.88h2.9V142h.05a3.93,3.93,0,0,1,3.54-2.37,2.47,2.47,0,0,1,.67.11v2.84a5.18,5.18,0,0,0-1.1-.11c-2.23,0-3,1.61-3,3.57v5h-3.05Z"/><path class="cls-3" d="M299,150.28c0,1.83-.64,4.92-5.76,4.92-2.19,0-4.75-1-4.9-3.56h3a2.06,2.06,0,0,0,2.28,1.52c1.7,0,2.47-1.16,2.45-2.75V149h0a3.76,3.76,0,0,1-3.33,1.72c-3.33,0-4.75-2.54-4.75-5.59,0-2.88,1.65-5.5,4.77-5.5a3.46,3.46,0,0,1,3.31,1.79h0v-1.49H299Zm-2.9-5c0-1.81-.62-3.42-2.6-3.42-1.72,0-2.47,1.51-2.47,3.16s.6,3.33,2.47,3.33S296.13,146.89,296.13,145.3Z"/><path class="cls-3" d="M300.49,143.3c.17-2.86,2.73-3.72,5.22-3.72,2.21,0,4.88.5,4.88,3.16v5.78A5.67,5.67,0,0,0,311,151h-3.1a4.32,4.32,0,0,1-.21-1.07,5.1,5.1,0,0,1-3.74,1.37c-2.11,0-3.78-1-3.78-3.33,0-2.51,1.89-3.11,3.78-3.37s3.61-.22,3.61-1.46-.9-1.51-2-1.51-1.91.48-2,1.68Zm7.05,2.26a6.08,6.08,0,0,1-2.54.64c-.94.19-1.8.52-1.8,1.63s.88,1.42,1.87,1.42a2.27,2.27,0,0,0,2.47-2.56Z"/><path class="cls-3" d="M312.52,139.88h2.9v1.55h.07a3.94,3.94,0,0,1,3.39-1.85c3.25,0,4.06,1.83,4.06,4.58V151h-3.05v-6.27c0-1.83-.54-2.73-1.95-2.73-1.66,0-2.37.92-2.37,3.18V151h-3.05Z"/><path class="cls-3" d="M327.54,138.16h-3.05v-2.51h3.05Zm-3.05,1.72h3.05V151h-3.05Z"/><path class="cls-3" d="M328.83,148.69l5.78-6.51h-5.35v-2.3h9.37v2.3l-5.78,6.51H339V151h-10.2Z"/><path class="cls-3" d="M342.75,146.18c.09,1.93,1,2.81,2.73,2.81a2.53,2.53,0,0,0,2.41-1.44h2.68a5,5,0,0,1-5.2,3.74c-3.5,0-5.67-2.4-5.67-5.84a5.57,5.57,0,0,1,5.67-5.87c3.78,0,5.61,3.18,5.4,6.6Zm5-1.93c-.27-1.55-.94-2.37-2.42-2.37a2.41,2.41,0,0,0-2.54,2.37Z"/><path class="cls-3" d="M360.07,149.57h0a3.69,3.69,0,0,1-3.38,1.72c-3.35,0-5-2.88-5-5.95s1.65-5.76,4.92-5.76a3.88,3.88,0,0,1,3.31,1.66h0v-5.59H363V151h-2.9Zm-2.67-7.69c-2,0-2.68,1.72-2.68,3.55s.79,3.56,2.68,3.56,2.63-1.76,2.63-3.58S359.38,141.88,357.4,141.88Z"/><path class="cls-3" d="M374.1,138.49h-4.6v-2.84h12.57v2.84h-4.6V151H374.1Z"/><path class="cls-3" d="M383.4,135.65h11.47v2.84h-8.1v3.28h7.44v2.63h-7.44v3.76h8.28V151H383.4Z"/><path class="cls-3" d="M396.46,135.65h6.62c4,0,7,2.49,7,7.59,0,4.44-2.27,7.75-7,7.75h-6.62Zm3.38,12.51h3c1.95,0,3.82-1.21,3.82-4.6,0-3.1-1.07-5.07-4.43-5.07h-2.4Z"/><path class="cls-3" d="M419.69,146.18c.09,1.93,1,2.81,2.73,2.81a2.5,2.5,0,0,0,2.4-1.44h2.69a5,5,0,0,1-5.2,3.74c-3.5,0-5.67-2.4-5.67-5.84a5.57,5.57,0,0,1,5.67-5.87c3.78,0,5.61,3.18,5.39,6.6Zm5-1.93c-.28-1.55-.94-2.37-2.43-2.37a2.4,2.4,0,0,0-2.53,2.37Z"/><path class="cls-3" d="M434.79,151H431.4l-3.8-11.11h3.2l2.34,7.59h0l2.34-7.59h3Z"/><path class="cls-3" d="M441.48,146.18c.08,1.93,1,2.81,2.72,2.81a2.5,2.5,0,0,0,2.41-1.44h2.69a5,5,0,0,1-5.2,3.74c-3.51,0-5.68-2.4-5.68-5.84a5.58,5.58,0,0,1,5.68-5.87c3.78,0,5.6,3.18,5.39,6.6Zm5-1.93c-.28-1.55-.95-2.37-2.43-2.37a2.4,2.4,0,0,0-2.53,2.37Z"/><path class="cls-3" d="M450.86,139.88h2.9v1.55h.07a4,4,0,0,1,3.39-1.85c3.25,0,4.07,1.83,4.07,4.58V151h-3.06v-6.27c0-1.83-.53-2.73-2-2.73-1.66,0-2.36.92-2.36,3.18V151h-3.06Z"/><path class="cls-3" d="M467,139.88h2.24v2H467v5.5c0,1,.26,1.29,1.29,1.29a5.08,5.08,0,0,0,.95-.08V151a11.25,11.25,0,0,1-1.79.11c-1.87,0-3.5-.43-3.5-2.64v-6.56h-1.85v-2H464v-3.33H467Z"/><path class="cls-2" d="M105.82,84.89H91.5V71.8h44.35V84.89H121.54v38H105.82Z"/><path class="cls-2" d="M138.3,71.8h43V84.89H154v6.37h27.31v12.17H154v6.36h27.32v13.09H138.3Z"/><path class="cls-2" d="M184,71.8h25.83c17,0,23,12.59,23,25.47,0,15.67-8.3,25.61-26.11,25.61H184Zm15.74,38h6.16c9.8,0,11.23-7.94,11.23-12.74,0-3.21-1-12.16-12.38-12.16h-5Z"/><path class="cls-2" d="M255.49,103.2l-4.81-8-4.68,8H234.47l10.95-16.1L234.88,71.7h11.53l4.27,7.62,4.4-7.62h11.53L256.07,87.1,267,103.2Z"/><path class="cls-3" d="M293.17,72h7.77l18.47,50.86h-7.55l-5.31-15.23h-20l-5.52,15.23H274Zm11.42,30-7.83-22.48-8.14,22.48Z"/><path class="cls-3" d="M331,85.81v24.62a10.69,10.69,0,0,0,.88,4.64q1.62,3.32,6,3.32a8.54,8.54,0,0,0,8.63-5.82,23.61,23.61,0,0,0,1.25-8.55V85.81h6.23v37.08h-5.89l.07-5.47a12.58,12.58,0,0,1-3,3.57,12.88,12.88,0,0,1-8.5,2.91q-7.78,0-10.6-5.3a16,16,0,0,1-1.53-7.58V85.81Z"/><path class="cls-3" d="M388.73,87.78q3.93,3,4.73,10.49H387.4a11.23,11.23,0,0,0-2.53-5.69c-1.32-1.52-3.43-2.27-6.34-2.27q-6,0-8.52,5.81a23.17,23.17,0,0,0-1.66,9.3,17.47,17.47,0,0,0,2.36,9.37q2.35,3.81,7.41,3.81a8.13,8.13,0,0,0,6.14-2.36,13,13,0,0,0,3.14-6.47h6.06q-1.05,7.38-5.2,10.79A16.22,16.22,0,0,1,377.63,124a14.21,14.21,0,0,1-11.6-5.32,20.37,20.37,0,0,1-4.33-13.28q0-9.77,4.75-15.2a15.34,15.34,0,0,1,12.08-5.44A16.18,16.18,0,0,1,388.73,87.78Z"/><path class="cls-3" d="M399.55,72h6v29.53l16-15.75h8L415.23,99.6l15.06,23.29h-8L410.66,104l-5.12,5v13.92h-6Z"/><path class="cls-3" d="M435.32,72h6.23v50.86h-6.23Z"/><path class="cls-3" d="M470.78,100.45a3.38,3.38,0,0,0,2.87-1.8,5.46,5.46,0,0,0,.42-2.4,5.09,5.09,0,0,0-2.27-4.64,12,12,0,0,0-6.47-1.44q-4.87,0-6.92,2.64a8.79,8.79,0,0,0-1.48,4.36h-5.82q.18-6.89,4.44-9.57a18.17,18.17,0,0,1,9.91-2.69q6.54,0,10.62,2.49a8.46,8.46,0,0,1,4.05,7.76v21.36a2.69,2.69,0,0,0,.4,1.56,1.91,1.91,0,0,0,1.68.59c.27,0,.58,0,.93,0s.72-.09,1.11-.16v4.61a16.58,16.58,0,0,1-2.22.51,15.84,15.84,0,0,1-2.07.11,5.12,5.12,0,0,1-4.68-2.29,8.61,8.61,0,0,1-1.07-3.42,15.9,15.9,0,0,1-5.47,4.32,16.86,16.86,0,0,1-7.86,1.84,11.7,11.7,0,0,1-8.44-3.13,10.4,10.4,0,0,1-3.27-7.83,10.1,10.1,0,0,1,3.22-8,15.39,15.39,0,0,1,8.45-3.5Zm-13.12,16.84a7.34,7.34,0,0,0,4.67,1.55,14.27,14.27,0,0,0,6.37-1.52,8.57,8.57,0,0,0,5.2-8.26v-5a10.49,10.49,0,0,1-2.94,1.22,24.41,24.41,0,0,1-3.53.69l-3.76.49a14.49,14.49,0,0,0-5.1,1.42,5.5,5.5,0,0,0-2.89,5.18A5.12,5.12,0,0,0,457.66,117.29Z"/><path class="cls-3" d="M490.34,85.81h5.92v5.26a16.6,16.6,0,0,1,5.58-4.67A14.79,14.79,0,0,1,508.38,85q7.9,0,10.67,5.5,1.51,3,1.52,8.62v23.79h-6.33V99.52a12.63,12.63,0,0,0-1-5.47c-1.11-2.31-3.11-3.47-6-3.47a12.27,12.27,0,0,0-3.64.46A10.14,10.14,0,0,0,497,97.87a25.79,25.79,0,0,0-.46,5.6v19.42h-6.24Z"/><path class="cls-3" d="M550.16,87a16.66,16.66,0,0,1,3.76,3.63V71.85h6v51H554.3v-5.16a13.37,13.37,0,0,1-5.14,5,14.62,14.62,0,0,1-6.8,1.53A13.75,13.75,0,0,1,531.67,119q-4.51-5.22-4.52-13.87a24.06,24.06,0,0,1,4.12-14,13.49,13.49,0,0,1,11.78-5.94A13.12,13.12,0,0,1,550.16,87Zm-13.91,27.8q2.5,4,8.06,4a8.48,8.48,0,0,0,7.08-3.72q2.77-3.72,2.77-10.68T551.3,94a8.91,8.91,0,0,0-7.06-3.38,9.33,9.33,0,0,0-7.6,3.61q-2.91,3.6-2.91,10.59A18.4,18.4,0,0,0,536.25,114.75Z"/><path class="cls-3" d="M574.56,106.48a14.28,14.28,0,0,0,2,7q3.32,5.05,11.65,5a19.88,19.88,0,0,0,6.8-1.1q5.94-2.14,5.94-7.69,0-4.15-2.52-5.92a24.9,24.9,0,0,0-8-3l-6.68-1.55q-6.54-1.53-9.26-3.36-4.69-3.19-4.69-9.52a14.89,14.89,0,0,1,4.61-11.26q4.62-4.4,13.08-4.4A22.31,22.31,0,0,1,600.7,74.6q5.43,3.87,5.44,12.35h-6.48a13.17,13.17,0,0,0-2.12-6.27q-3-4-10.26-4-5.85,0-8.4,2.56a8.18,8.18,0,0,0-2.56,6,5.85,5.85,0,0,0,3,5.47q2,1.11,9,2.77l6.91,1.63a20.8,20.8,0,0,1,7.72,3.22q4.7,3.57,4.69,10.35,0,8.45-6,12.09a26.37,26.37,0,0,1-13.93,3.63q-9.26,0-14.49-4.85t-5.13-13Z"/><path class="cls-3" d="M636.4,100.45a3.41,3.41,0,0,0,2.88-1.8,5.63,5.63,0,0,0,.41-2.4,5.09,5.09,0,0,0-2.26-4.64A12.11,12.11,0,0,0,631,90.17c-3.25,0-5.56.88-6.91,2.64a8.78,8.78,0,0,0-1.49,4.36h-5.82q.18-6.89,4.45-9.57a18.12,18.12,0,0,1,9.91-2.69q6.52,0,10.61,2.49a8.46,8.46,0,0,1,4,7.76v21.36a2.69,2.69,0,0,0,.4,1.56,1.91,1.91,0,0,0,1.68.59c.28,0,.59,0,.93,0s.72-.09,1.11-.16v4.61a16.58,16.58,0,0,1-2.22.51,15.73,15.73,0,0,1-2.07.11,5.12,5.12,0,0,1-4.68-2.29,8.78,8.78,0,0,1-1.07-3.42,15.8,15.8,0,0,1-5.47,4.32,16.86,16.86,0,0,1-7.86,1.84,11.68,11.68,0,0,1-8.43-3.13,10.37,10.37,0,0,1-3.28-7.83,10.1,10.1,0,0,1,3.22-8,15.39,15.39,0,0,1,8.45-3.5Zm-13.12,16.84a7.34,7.34,0,0,0,4.67,1.55,14.27,14.27,0,0,0,6.37-1.52,8.55,8.55,0,0,0,5.2-8.26v-5a10.37,10.37,0,0,1-2.94,1.22,24.15,24.15,0,0,1-3.53.69l-3.76.49a14.36,14.36,0,0,0-5.09,1.42,5.51,5.51,0,0,0-2.9,5.18A5.12,5.12,0,0,0,623.28,117.29Z"/><path class="cls-3" d="M656.14,72h6.23v50.86h-6.23Z"/><path class="cls-3" d="M698.59,89.51q4.92,4.77,4.92,14,0,9-4.34,14.81t-13.44,5.85q-7.59,0-12.07-5.17t-4.47-13.89q0-9.34,4.71-14.88a15.78,15.78,0,0,1,12.66-5.54A16.64,16.64,0,0,1,698.59,89.51Zm-3.87,24.65A23.57,23.57,0,0,0,697,103.73a18.67,18.67,0,0,0-1.65-8.44q-2.6-5.12-9-5.12-5.64,0-8.21,4.36A20.27,20.27,0,0,0,675.6,105a17.64,17.64,0,0,0,2.57,9.86q2.57,3.94,8.15,3.94Q692.44,118.84,694.72,114.16Z"/><path class="cls-3" d="M711.16,85.81h5.92v5.26a16.51,16.51,0,0,1,5.58-4.67A14.79,14.79,0,0,1,729.2,85q7.89,0,10.67,5.5,1.51,3,1.52,8.62v23.79h-6.34V99.52a12.64,12.64,0,0,0-1-5.47q-1.66-3.47-6-3.47a12.2,12.2,0,0,0-3.63.46,10.14,10.14,0,0,0-6.53,6.83,25.67,25.67,0,0,0-.47,5.6v19.42h-6.23Z"/><path class="cls-3" d="M92.13,244.94H97v35.31H92.13Z"/><path class="cls-3" d="M110.29,244.94h5.64l17.61,28.53V244.94h4.57v35.31h-5.38l-17.87-28.5v28.5h-4.57Z"/><path class="cls-3" d="M195.46,244.94v4.21h-11.9v31.1h-4.83v-31.1h-11.9v-4.21Z"/><path class="cls-3" d="M205.54,244.94h4.84v14.59h18.15V244.94h4.83v35.31h-4.83V263.74H210.38v16.51h-4.84Z"/><path class="cls-3" d="M247,244.94h25.63v4.33h-21V260H271v4.08H251.66v12H273v4.2H247Z"/><path class="cls-3" d="M304.4,244.94h14.12q7.19,0,11.15,5.17,3.52,4.66,3.53,11.94a24,24,0,0,1-2.08,10.17q-3.69,8-12.65,8H304.4Zm13.18,31.23a12.54,12.54,0,0,0,3.9-.51,8.62,8.62,0,0,0,4.47-3.6,15.17,15.17,0,0,0,2-5.49,21.81,21.81,0,0,0,.35-3.7q0-6.56-2.55-10.19t-8.22-3.63h-8.3v27.12Z"/><path class="cls-3" d="M355.61,244.94H361l12.82,35.31h-5.24l-3.69-10.57H351l-3.83,10.57h-4.9Zm7.93,20.84-5.43-15.6-5.65,15.6Z"/><path class="cls-3" d="M384.28,244.94h16.05a15.65,15.65,0,0,1,6.54,1.18q4.89,2.25,4.89,8.34a8.69,8.69,0,0,1-5,8.44,7.27,7.27,0,0,1,3.12,2.21,8,8,0,0,1,1.16,4.45l.17,4.73a14.43,14.43,0,0,0,.34,3,3,3,0,0,0,1.54,2.16v.79h-5.87a4.12,4.12,0,0,1-.38-1.17,21.27,21.27,0,0,1-.24-2.79l-.29-5.89c-.11-2.31-.95-3.86-2.5-4.64a10,10,0,0,0-4.18-.65H389.07v15.14h-4.79Zm15.54,16.18a8.82,8.82,0,0,0,5.18-1.35q1.9-1.33,1.9-4.85c0-2.52-.88-4.24-2.66-5.15a8.51,8.51,0,0,0-3.81-.72H389.07v12.07Z"/><path class="cls-3" d="M424.82,244.94h4.67v17.28l17.66-17.28h6.69l-15.09,14.25,15.41,21.06h-6.27l-12.65-17.74L429.49,268v12.3h-4.67Z"/><path class="cls-3" d="M522.68,268.5a3.63,3.63,0,0,1-3.47-3.46,3.4,3.4,0,0,1,5.87-2.41,3.47,3.47,0,0,1-2.4,5.87Zm0,13.27a3.63,3.63,0,0,1-3.47-3.46,3.4,3.4,0,0,1,5.87-2.41,3.47,3.47,0,0,1-2.4,5.87ZM536,255.23a3.63,3.63,0,0,1-3.47-3.46,3.47,3.47,0,1,1,5.87,2.4A3.31,3.31,0,0,1,536,255.23Zm0,13.27a3.63,3.63,0,0,1-3.47-3.46,3.47,3.47,0,1,1,5.87,2.4A3.31,3.31,0,0,1,536,268.5Z"/><path class="cls-3" d="M558.26,255.23a3.63,3.63,0,0,1-3.47-3.46,3.47,3.47,0,1,1,5.87,2.4A3.31,3.31,0,0,1,558.26,255.23Z"/><path class="cls-3" d="M593.83,268.5a3.4,3.4,0,0,1-2.4-5.87,3.4,3.4,0,1,1,2.4,5.87Zm0,13.27a3.4,3.4,0,0,1-2.4-5.87,3.4,3.4,0,1,1,2.4,5.87Zm13.27-26.54a3.4,3.4,0,0,1-2.4-5.87,3.4,3.4,0,1,1,2.4,5.87Z"/><path class="cls-3" d="M629.41,268.5A3.63,3.63,0,0,1,626,265a3.63,3.63,0,0,1,3.46-3.47,3.4,3.4,0,0,1,2.41,5.87A3.31,3.31,0,0,1,629.41,268.5Zm0,13.27a3.63,3.63,0,0,1-3.46-3.46,3.63,3.63,0,0,1,3.46-3.47,3.4,3.4,0,0,1,2.41,5.87A3.31,3.31,0,0,1,629.41,281.77Zm13.27-26.54a3.4,3.4,0,0,1-2.4-5.87,3.4,3.4,0,1,1,2.4,5.87Zm0,13.27a3.4,3.4,0,0,1-2.4-5.87,3.4,3.4,0,1,1,2.4,5.87Z"/><path class="cls-3" d="M665,255.23a3.63,3.63,0,0,1-3.46-3.46,3.46,3.46,0,1,1,5.86,2.4A3.28,3.28,0,0,1,665,255.23Zm13.27,13.27A3.63,3.63,0,0,1,674.8,265a3.63,3.63,0,0,1,3.46-3.47,3.41,3.41,0,0,1,2.41,5.87A3.31,3.31,0,0,1,678.26,268.5Z"/><path class="cls-3" d="M736.15,268.5a3.41,3.41,0,0,1-2.41-5.87,3.26,3.26,0,0,1,4.81,0,3.47,3.47,0,0,1-2.4,5.87Zm0,13.27a3.41,3.41,0,0,1-2.41-5.87,3.26,3.26,0,0,1,4.81,0,3.47,3.47,0,0,1-2.4,5.87Zm13.27-26.54a3.41,3.41,0,0,1-2.41-5.87,3.35,3.35,0,0,1,2.41-1.06,3.4,3.4,0,0,1,2.4,5.87A3.28,3.28,0,0,1,749.42,255.23Z"/><path class="cls-3" d="M771.73,255.23a3.41,3.41,0,0,1-2.41-5.87,3.26,3.26,0,0,1,4.81,0,3.47,3.47,0,0,1-2.4,5.87Zm0,26.54a3.41,3.41,0,0,1-2.41-5.87,3.26,3.26,0,0,1,4.81,0,3.47,3.47,0,0,1-2.4,5.87ZM785,255.23a3.41,3.41,0,0,1-2.41-5.87,3.26,3.26,0,0,1,4.81,0,3.47,3.47,0,0,1-2.4,5.87Z"/><path class="cls-3" d="M807.31,255.23a3.63,3.63,0,0,1-3.47-3.46,3.47,3.47,0,1,1,5.87,2.4A3.31,3.31,0,0,1,807.31,255.23Zm13.27,13.27a3.63,3.63,0,0,1-3.47-3.46,3.47,3.47,0,1,1,5.87,2.4A3.31,3.31,0,0,1,820.58,268.5Z"/><path class="cls-3" d="M842.88,255.23a3.63,3.63,0,0,1-3.46-3.46,3.47,3.47,0,1,1,5.87,2.4A3.31,3.31,0,0,1,842.88,255.23Zm0,13.27a3.63,3.63,0,0,1-3.46-3.46,3.47,3.47,0,1,1,5.87,2.4A3.31,3.31,0,0,1,842.88,268.5Zm0,13.27a3.63,3.63,0,0,1-3.46-3.46,3.47,3.47,0,1,1,5.87,2.4A3.31,3.31,0,0,1,842.88,281.77Z"/><path class="cls-3" d="M878.46,255.23a3.63,3.63,0,0,1-3.46-3.46,3.63,3.63,0,0,1,3.46-3.47,3.4,3.4,0,0,1,2.41,5.87A3.31,3.31,0,0,1,878.46,255.23Zm0,13.27A3.63,3.63,0,0,1,875,265a3.63,3.63,0,0,1,3.46-3.47,3.4,3.4,0,0,1,2.41,5.87A3.31,3.31,0,0,1,878.46,268.5Zm0,13.27a3.63,3.63,0,0,1-3.46-3.46,3.63,3.63,0,0,1,3.46-3.47,3.4,3.4,0,0,1,2.41,5.87A3.31,3.31,0,0,1,878.46,281.77Z"/><path class="cls-3" d="M949.62,268.5a3.63,3.63,0,0,1-3.46-3.46,3.46,3.46,0,1,1,5.86,2.4A3.28,3.28,0,0,1,949.62,268.5Zm0,13.27a3.63,3.63,0,0,1-3.46-3.46,3.46,3.46,0,1,1,5.86,2.4A3.28,3.28,0,0,1,949.62,281.77Zm13.27-26.54a3.63,3.63,0,0,1-3.46-3.46,3.46,3.46,0,1,1,5.86,2.4A3.28,3.28,0,0,1,962.89,255.23Zm0,13.27a3.63,3.63,0,0,1-3.46-3.46,3.46,3.46,0,1,1,5.86,2.4A3.28,3.28,0,0,1,962.89,268.5Z"/><path class="cls-3" d="M985.2,255.23a3.41,3.41,0,0,1-2.41-5.87,3.35,3.35,0,0,1,2.41-1.06,3.4,3.4,0,0,1,2.4,5.87A3.28,3.28,0,0,1,985.2,255.23Zm0,26.54a3.41,3.41,0,0,1-2.41-5.87,3.35,3.35,0,0,1,2.41-1.06,3.4,3.4,0,0,1,2.4,5.87A3.28,3.28,0,0,1,985.2,281.77Zm13.27-13.27a3.41,3.41,0,0,1-2.41-5.87,3.35,3.35,0,0,1,2.41-1.06,3.4,3.4,0,0,1,2.4,5.87A3.28,3.28,0,0,1,998.47,268.5Z"/><path class="cls-3" d="M1020.78,255.23a3.41,3.41,0,0,1-2.41-5.87,3.26,3.26,0,0,1,4.81,0,3.47,3.47,0,0,1-2.4,5.87Zm0,26.54a3.41,3.41,0,0,1-2.41-5.87,3.26,3.26,0,0,1,4.81,0,3.47,3.47,0,0,1-2.4,5.87Zm13.27,0a3.41,3.41,0,0,1-2.41-5.87,3.35,3.35,0,0,1,2.41-1.06,3.4,3.4,0,0,1,2.4,5.87A3.28,3.28,0,0,1,1034.05,281.77Z"/><path class="cls-3" d="M1056.36,255.23a3.63,3.63,0,0,1-3.47-3.46,3.47,3.47,0,1,1,5.87,2.4A3.31,3.31,0,0,1,1056.36,255.23Zm13.27,0a3.63,3.63,0,0,1-3.47-3.46,3.47,3.47,0,1,1,5.87,2.4A3.31,3.31,0,0,1,1069.63,255.23Z"/><path class="cls-3" d="M1091.94,255.23a3.63,3.63,0,0,1-3.47-3.46,3.47,3.47,0,1,1,5.87,2.4A3.31,3.31,0,0,1,1091.94,255.23Zm0,13.27a3.63,3.63,0,0,1-3.47-3.46,3.47,3.47,0,1,1,5.87,2.4A3.31,3.31,0,0,1,1091.94,268.5Zm13.27,0a3.63,3.63,0,0,1-3.47-3.46,3.47,3.47,0,1,1,5.87,2.4A3.31,3.31,0,0,1,1105.21,268.5Z"/><path class="cls-3" d="M95.29,373.39a3.41,3.41,0,0,1-2.41-5.87,3.35,3.35,0,0,1,2.41-1.06,3.4,3.4,0,0,1,2.4,5.87A3.28,3.28,0,0,1,95.29,373.39Zm0,13.27a3.47,3.47,0,0,1,0-6.93,3.47,3.47,0,0,1,0,6.93Zm13.27,0a3.47,3.47,0,0,1,0-6.93,3.47,3.47,0,0,1,0,6.93Z"/><path class="cls-3" d="M130.87,373.39a3.41,3.41,0,0,1-2.41-5.87,3.26,3.26,0,0,1,4.81,0,3.47,3.47,0,0,1-2.4,5.87Zm13.27,13.27a3.47,3.47,0,0,1,0-6.93,3.47,3.47,0,0,1,0,6.93Z"/><path class="cls-3" d="M166.45,373.39a3.31,3.31,0,0,1-2.41-1.06,3.47,3.47,0,1,1,4.81,0A3.31,3.31,0,0,1,166.45,373.39Z"/><path class="cls-3" d="M202,373.39a3.31,3.31,0,0,1-2.41-1.06,3.47,3.47,0,1,1,4.81,0A3.31,3.31,0,0,1,202,373.39Zm0,13.27a3.63,3.63,0,1,1,2.4-1.06A3.35,3.35,0,0,1,202,386.66Zm0,13.27a3.63,3.63,0,1,1,2.4-1.06A3.35,3.35,0,0,1,202,399.93Zm13.26-13.27a3.63,3.63,0,1,1,2.41-1.06A3.35,3.35,0,0,1,215.29,386.66Z"/><path class="cls-3" d="M273.18,373.39a3.63,3.63,0,0,1-3.46-3.46,3.63,3.63,0,0,1,3.46-3.47,3.41,3.41,0,0,1,2.41,5.87A3.31,3.31,0,0,1,273.18,373.39Zm0,13.27a3.47,3.47,0,0,1,0-6.93,3.47,3.47,0,0,1,0,6.93Zm0,13.27a3.47,3.47,0,0,1,0-6.93,3.47,3.47,0,0,1,0,6.93Zm13.27-13.27a3.47,3.47,0,0,1,0-6.93,3.47,3.47,0,0,1,0,6.93Z"/><path class="cls-3" d="M308.76,373.39a3.63,3.63,0,0,1-3.46-3.46,3.46,3.46,0,1,1,5.86,2.4A3.28,3.28,0,0,1,308.76,373.39Zm0,26.54a3.63,3.63,0,1,1,2.4-1.06A3.31,3.31,0,0,1,308.76,399.93ZM322,373.39a3.41,3.41,0,0,1-2.41-5.87,3.35,3.35,0,0,1,2.41-1.06,3.4,3.4,0,0,1,2.4,5.87A3.28,3.28,0,0,1,322,373.39Zm0,13.27a3.47,3.47,0,0,1,0-6.93,3.47,3.47,0,0,1,0,6.93Zm0,13.27a3.47,3.47,0,0,1,0-6.93,3.47,3.47,0,0,1,0,6.93Z"/><path class="cls-3" d="M344.34,373.39a3.63,3.63,0,0,1-3.46-3.46,3.46,3.46,0,1,1,5.86,2.4A3.28,3.28,0,0,1,344.34,373.39Zm13.27,0a3.63,3.63,0,0,1-3.46-3.46,3.46,3.46,0,1,1,5.86,2.4A3.28,3.28,0,0,1,357.61,373.39Zm0,13.27a3.63,3.63,0,1,1,2.4-1.06A3.31,3.31,0,0,1,357.61,386.66Z"/><path class="cls-3" d="M379.92,373.39a3.41,3.41,0,0,1-2.41-5.87,3.26,3.26,0,0,1,4.81,0,3.47,3.47,0,0,1-2.4,5.87Zm0,13.27a3.47,3.47,0,1,1,2.4-5.87,3.47,3.47,0,0,1-2.4,5.87Zm13.27-13.27a3.41,3.41,0,0,1-2.41-5.87,3.35,3.35,0,0,1,2.41-1.06,3.4,3.4,0,0,1,2.4,5.87A3.28,3.28,0,0,1,393.19,373.39Zm0,13.27a3.47,3.47,0,0,1,0-6.93,3.47,3.47,0,0,1,0,6.93Z"/><path class="cls-3" d="M415.5,373.39a3.41,3.41,0,0,1-2.41-5.87,3.26,3.26,0,0,1,4.81,0,3.47,3.47,0,0,1-2.4,5.87Zm13.27,13.27a3.47,3.47,0,1,1,2.4-5.87,3.26,3.26,0,0,1,0,4.81A3.35,3.35,0,0,1,428.77,386.66Z"/><path class="cls-3" d="M451.08,386.66a3.63,3.63,0,1,1,2.4-1.06A3.35,3.35,0,0,1,451.08,386.66Zm0,13.27a3.63,3.63,0,1,1,2.4-1.06A3.35,3.35,0,0,1,451.08,399.93Zm13.27-26.54a3.31,3.31,0,0,1-2.41-1.06,3.47,3.47,0,1,1,4.81,0A3.31,3.31,0,0,1,464.35,373.39Z"/><path class="cls-3" d="M522.23,373.39a3.63,3.63,0,0,1-3.46-3.46,3.63,3.63,0,0,1,3.46-3.47,3.4,3.4,0,0,1,2.41,5.87A3.31,3.31,0,0,1,522.23,373.39Z"/><path class="cls-3" d="M557.81,373.39a3.63,3.63,0,0,1-3.46-3.46,3.46,3.46,0,1,1,5.86,2.4A3.28,3.28,0,0,1,557.81,373.39Zm0,26.54a3.63,3.63,0,1,1,2.4-1.06A3.31,3.31,0,0,1,557.81,399.93Z"/><path class="cls-3" d="M593.39,373.39a3.63,3.63,0,0,1-3.46-3.46,3.46,3.46,0,1,1,5.86,2.4A3.28,3.28,0,0,1,593.39,373.39Zm0,13.27a3.63,3.63,0,1,1,2.4-1.06A3.31,3.31,0,0,1,593.39,386.66Zm0,13.27a3.63,3.63,0,1,1,2.4-1.06A3.31,3.31,0,0,1,593.39,399.93Z"/><path class="cls-3" d="M663.8,396a12.44,12.44,0,0,1-2.76-8.16h4.52a11.34,11.34,0,0,0,1.25,4.85c1.13,1.81,3.15,2.72,6.09,2.72a8,8,0,0,0,5.48-1.83,6,6,0,0,0,2.07-4.71q0-3.56-2.18-5a11.07,11.07,0,0,0-6-1.42l-.87,0-.9,0V378.7c.44.05.82.08,1.12.1l1,0a9.06,9.06,0,0,0,4-.77,4.89,4.89,0,0,0,2.74-4.81,4.69,4.69,0,0,0-1.83-4,6.79,6.79,0,0,0-4.25-1.4c-2.89,0-4.88,1-6,2.89a10.12,10.12,0,0,0-1,4.52h-4.28a12.92,12.92,0,0,1,1.54-6.54q2.64-4.81,9.3-4.81,5.26,0,8.15,2.34a8.25,8.25,0,0,1,2.89,6.8,7.56,7.56,0,0,1-1.71,5.14,7.06,7.06,0,0,1-2.74,1.92,7.49,7.49,0,0,1,4.24,2.88,8.65,8.65,0,0,1,1.53,5.2,10.59,10.59,0,0,1-3.25,8q-3.24,3.11-9.2,3.1T663.8,396Z"/><path class="cls-3" d="M703.58,374v-3.32c3.13-.3,5.3-.81,6.54-1.53s2.15-2.4,2.76-5.06h3.42v34.28h-4.62V374Z"/><path class="cls-3" d="M742.07,393.17h5v5.24h-5Z"/><path class="cls-3" d="M786.15,369.49q2.31,4.26,2.31,11.66a28,28,0,0,1-2.1,11.61q-3,6.6-9.9,6.59a9.91,9.91,0,0,1-9.23-5.38q-2.54-4.5-2.53-12.07a29.77,29.77,0,0,1,1.52-10.07q2.84-7.84,10.26-7.84Q783.17,364,786.15,369.49Zm-4.36,22.94q2-3,2-11.11a27.46,27.46,0,0,0-1.44-9.65,5.5,5.5,0,0,0-5.61-3.79,5.86,5.86,0,0,0-5.6,3.6q-1.77,3.58-1.77,10.59a25.8,25.8,0,0,0,1.13,8.46q1.74,4.88,5.92,4.88A6.18,6.18,0,0,0,781.79,392.43Z"/><path class="cls-3" d="M806.85,378.27a6.83,6.83,0,0,1-1.89-5,9,9,0,0,1,2.78-6.61q2.79-2.78,7.9-2.77a11,11,0,0,1,7.76,2.61,8.08,8.08,0,0,1,2.81,6.09,8,8,0,0,1-1.64,5.22,9.83,9.83,0,0,1-2.83,2.21,11.25,11.25,0,0,1,3.38,2.26,8.72,8.72,0,0,1,2.29,6.25,10.68,10.68,0,0,1-3.06,7.71q-3,3.17-8.63,3.16a13.31,13.31,0,0,1-8.49-2.73q-3.48-2.73-3.48-7.92a8.78,8.78,0,0,1,5.92-8.68A8.57,8.57,0,0,1,806.85,378.27Zm14,15.56a5.88,5.88,0,0,0,2-4.84,6.27,6.27,0,0,0-2-5.07,7.79,7.79,0,0,0-5.24-1.73,7.28,7.28,0,0,0-5.06,1.76,6.25,6.25,0,0,0-2,4.9,6.65,6.65,0,0,0,1.79,4.65c1.19,1.3,3,2,5.54,2A7.59,7.59,0,0,0,820.81,393.83Zm-.8-17a5.21,5.21,0,0,0,1.6-3.82,5.06,5.06,0,0,0-1.53-3.54,6.18,6.18,0,0,0-4.68-1.62q-3.12,0-4.51,1.62a5.61,5.61,0,0,0-1.39,3.78,4.53,4.53,0,0,0,1.8,3.81,6.75,6.75,0,0,0,4.24,1.37A6.06,6.06,0,0,0,820,376.81Z"/><path class="cls-3" d="M845.37,393.17h5v5.24h-5Z"/><path class="cls-3" d="M871.18,374v-3.32q4.68-.45,6.53-1.53t2.77-5.06h3.41v34.28h-4.61V374Z"/><path class="cls-3" d="M912,390.07q.19,3.58,2.77,4.95a6.11,6.11,0,0,0,3,.72,6.72,6.72,0,0,0,5.29-2.58q2.18-2.58,3.1-10.49a8,8,0,0,1-3.57,3.21,11.49,11.49,0,0,1-4.58.92,10.23,10.23,0,0,1-7.87-3.1,11.15,11.15,0,0,1-2.9-8,12.75,12.75,0,0,1,2.86-8.24q2.86-3.56,8.44-3.55,7.51,0,10.38,6.77a23.87,23.87,0,0,1,1.59,9.33,30.59,30.59,0,0,1-1.9,11.19q-3.15,8.11-10.67,8.12-5.05,0-7.67-2.64a9.05,9.05,0,0,1-2.62-6.64Zm11.27-8.76q2.12-1.69,2.12-5.92c0-2.52-.63-4.41-1.91-5.65a6.69,6.69,0,0,0-4.87-1.86,6.34,6.34,0,0,0-5,2.13,8.25,8.25,0,0,0-1.87,5.67,8.13,8.13,0,0,0,1.64,5.34q1.64,2,5.21,2A7.38,7.38,0,0,0,923.27,381.31Z"/><path class="cls-3" d="M516,487.57a2.71,2.71,0,0,0,.52,1.41,3.06,3.06,0,0,0,2.45.85,5.19,5.19,0,0,0,1.68-.23,1.59,1.59,0,0,0,1.23-1.59,1.18,1.18,0,0,0-.6-1.05,6.39,6.39,0,0,0-1.91-.65l-1.49-.32a9.31,9.31,0,0,1-3-1.06,3.33,3.33,0,0,1-1.39-3,3.94,3.94,0,0,1,1.36-3.07,5.74,5.74,0,0,1,4-1.22,6.08,6.08,0,0,1,3.75,1.15,4.08,4.08,0,0,1,1.63,3.34h-2.76a2,2,0,0,0-1.11-1.76,3.8,3.8,0,0,0-1.71-.35,3.27,3.27,0,0,0-1.82.45,1.42,1.42,0,0,0-.67,1.25,1.17,1.17,0,0,0,.67,1.1,8.32,8.32,0,0,0,1.82.57L521,484a6.11,6.11,0,0,1,2.38,1,3.35,3.35,0,0,1,1.23,2.8,4,4,0,0,1-1.46,3.13,6.14,6.14,0,0,1-4.11,1.25,6.72,6.72,0,0,1-4.27-1.23,4.05,4.05,0,0,1-1.56-3.37Z"/><path class="cls-3" d="M533.74,481.71a2.85,2.85,0,0,1,1.25,1,2.53,2.53,0,0,1,.51,1.17,12.91,12.91,0,0,1,.1,2v6h-2.72v-6.19a2.79,2.79,0,0,0-.27-1.32,1.4,1.4,0,0,0-1.37-.71,1.88,1.88,0,0,0-1.59.7,3.26,3.26,0,0,0-.54,2v5.5h-2.66V478.12h2.66V483a3.22,3.22,0,0,1,1.33-1.23,3.76,3.76,0,0,1,1.59-.35A4.31,4.31,0,0,1,533.74,481.71Z"/><path class="cls-3" d="M542.12,485.63a4.18,4.18,0,0,0,1.06-.23.8.8,0,0,0,.58-.76.9.9,0,0,0-.44-.86,2.79,2.79,0,0,0-1.29-.24,1.68,1.68,0,0,0-1.35.47,1.88,1.88,0,0,0-.38.93h-2.57a3.93,3.93,0,0,1,.75-2.19,4.37,4.37,0,0,1,3.64-1.34,6.46,6.46,0,0,1,3,.66,2.54,2.54,0,0,1,1.31,2.5v4.66c0,.32,0,.72,0,1.18a1.64,1.64,0,0,0,.16.71,1,1,0,0,0,.39.3v.39h-2.89a2.74,2.74,0,0,1-.16-.57c0-.18-.06-.39-.08-.62a5.47,5.47,0,0,1-1.27,1,3.87,3.87,0,0,1-1.95.49,3.35,3.35,0,0,1-2.3-.79,2.8,2.8,0,0,1-.9-2.23,2.89,2.89,0,0,1,1.45-2.71,6.38,6.38,0,0,1,2.35-.66Zm1.63,1.24a2.81,2.81,0,0,1-.52.26,5.51,5.51,0,0,1-.71.18l-.61.11a3.85,3.85,0,0,0-1.22.37,1.2,1.2,0,0,0-.63,1.12,1.17,1.17,0,0,0,.39,1,1.44,1.44,0,0,0,.93.3,2.78,2.78,0,0,0,1.6-.5,2.15,2.15,0,0,0,.77-1.84Z"/><path class="cls-3" d="M554.37,481.41l.22,0v2.72l-.44,0h-.32a2.21,2.21,0,0,0-2.16,1,4.14,4.14,0,0,0-.3,1.81v4.85h-2.68V481.65h2.54v1.77A5.47,5.47,0,0,1,552.3,482a3,3,0,0,1,1.94-.62Z"/><path class="cls-3" d="M562.78,481.86a4.06,4.06,0,0,1,1.75,1.5,4.86,4.86,0,0,1,.81,2.1,13.59,13.59,0,0,1,.09,2H558a2.42,2.42,0,0,0,1.06,2.14,2.63,2.63,0,0,0,1.46.39,2.26,2.26,0,0,0,1.48-.47,2.22,2.22,0,0,0,.55-.7h2.71a3.33,3.33,0,0,1-1,1.84,4.92,4.92,0,0,1-3.82,1.48,5.56,5.56,0,0,1-3.58-1.25,4.93,4.93,0,0,1-1.55-4.07,5.52,5.52,0,0,1,1.4-4,4.88,4.88,0,0,1,3.63-1.41A5.78,5.78,0,0,1,562.78,481.86Zm-4,2.29a2.76,2.76,0,0,0-.71,1.57h4.58a2.23,2.23,0,0,0-.71-1.6,2.31,2.31,0,0,0-1.58-.55A2.08,2.08,0,0,0,558.8,484.15Z"/><path class="cls-3" d="M572.16,481.81a3.25,3.25,0,0,1,1.17,1.13v-4.85H576v13.72h-2.58v-1.4a3.7,3.7,0,0,1-1.3,1.31,3.63,3.63,0,0,1-1.8.41,3.78,3.78,0,0,1-3-1.44,5.54,5.54,0,0,1-1.22-3.7,6.35,6.35,0,0,1,1.2-4.09,3.89,3.89,0,0,1,3.2-1.49A3.27,3.27,0,0,1,572.16,481.81Zm.66,7.24a3.71,3.71,0,0,0,.58-2.17,3.34,3.34,0,0,0-.94-2.67,2,2,0,0,0-1.34-.48,1.85,1.85,0,0,0-1.71.88,4.72,4.72,0,0,0,0,4.44,1.88,1.88,0,0,0,1.68.84A2,2,0,0,0,572.82,489.05Z"/><path class="cls-3" d="M588.54,481.65h2.69l1.55,7.32,1.59-7.32h2.77l-2.95,10.16h-2.73l-1.6-7.4-1.61,7.4h-2.76l-2.85-10.16h2.85l1.58,7.29Z"/><path class="cls-3" d="M601.33,480.44h-2.69V478h2.69Zm-2.69,1.21h2.69v10.16h-2.69Z"/><path class="cls-3" d="M602.86,483.64v-1.9h1.42v-2.83h2.63v2.83h1.65v1.9h-1.65V489a1.21,1.21,0,0,0,.16.78,1.8,1.8,0,0,0,1,.15h.25l.27,0v2l-1.26,0a3.34,3.34,0,0,1-2.57-.65,1.93,1.93,0,0,1-.45-1.41v-6.25Z"/><path class="cls-3" d="M617.57,481.71a2.93,2.93,0,0,1,1.26,1,2.53,2.53,0,0,1,.51,1.17,14.4,14.4,0,0,1,.1,2v6h-2.72v-6.19a2.67,2.67,0,0,0-.28-1.32,1.39,1.39,0,0,0-1.37-.71,1.87,1.87,0,0,0-1.58.7,3.2,3.2,0,0,0-.54,2v5.5h-2.66V478.12H613V483a3.16,3.16,0,0,1,1.33-1.23,3.76,3.76,0,0,1,1.59-.35A4.26,4.26,0,0,1,617.57,481.71Z"/><path class="cls-3" d="M627.64,493.76l.34,0a3.58,3.58,0,0,0,.74,0,1.34,1.34,0,0,0,.6-.21,1.42,1.42,0,0,0,.43-.66,1.53,1.53,0,0,0,.18-.62l-3.74-10.61h3l2.22,7.5,2.09-7.5h2.83l-3.48,10a14.37,14.37,0,0,1-1.6,3.58,3,3,0,0,1-2.35.7h-.57l-.65,0Z"/><path class="cls-3" d="M646.34,490.57a5.59,5.59,0,0,1-7.81,0,6.29,6.29,0,0,1,0-7.63,5.52,5.52,0,0,1,7.81,0,6.29,6.29,0,0,1,0,7.63Zm-2.13-1.47a4.72,4.72,0,0,0,0-4.71,2.12,2.12,0,0,0-1.79-.82,2.15,2.15,0,0,0-1.79.82,4.72,4.72,0,0,0,0,4.71,2.13,2.13,0,0,0,1.79.83A2.1,2.1,0,0,0,644.21,489.1Z"/><path class="cls-3" d="M652.18,481.65v6.13a3.33,3.33,0,0,0,.2,1.3,1.41,1.41,0,0,0,1.42.78,1.86,1.86,0,0,0,1.86-1.1,4.1,4.1,0,0,0,.26-1.58v-5.53h2.69v10.16H656v-1.43a2.27,2.27,0,0,0-.19.28,2,2,0,0,1-.35.41,3.72,3.72,0,0,1-1.2.76,4.07,4.07,0,0,1-1.37.21,3,3,0,0,1-3-1.62,6.28,6.28,0,0,1-.43-2.64v-6.13Z"/><path class="cls-3" d="M675.18,482.87a5.84,5.84,0,0,1,1.14,3.73,6.55,6.55,0,0,1-1.12,3.93,4.11,4.11,0,0,1-5.18,1.05,4.16,4.16,0,0,1-1-1v1.27h-2.62V478.09h2.66V483a3.9,3.9,0,0,1,1.11-1.08,3.35,3.35,0,0,1,1.84-.46A3.8,3.8,0,0,1,675.18,482.87ZM673,489.06a3.77,3.77,0,0,0,.57-2.18,4.84,4.84,0,0,0-.28-1.79,2,2,0,0,0-2-1.34,2,2,0,0,0-2,1.31,5.09,5.09,0,0,0-.28,1.81,3.87,3.87,0,0,0,.58,2.17,2,2,0,0,0,1.78.85A1.83,1.83,0,0,0,673,489.06Z"/><path class="cls-3" d="M678.57,493.76l.33,0a3.68,3.68,0,0,0,.75,0,1.34,1.34,0,0,0,.6-.21,1.5,1.5,0,0,0,.43-.66,1.62,1.62,0,0,0,.17-.62l-3.73-10.61h3l2.22,7.5,2.1-7.5h2.83l-3.49,10a13.63,13.63,0,0,1-1.6,3.58,3,3,0,0,1-2.35.7h-.57l-.64,0Z"/><g class="cls-4"><g class="cls-4"><path class="cls-3" d="M556.23,545.57a21.3,21.3,0,1,1-21.3-21.3,21.3,21.3,0,0,1,21.3,21.3"/><path class="cls-5" d="M535.1,557.45c-5.85,0-11.94-5-12-13a18,18,0,0,1,6.5-13.43,21.29,21.29,0,0,1,12.89-4.87,5.52,5.52,0,0,1,1.53.17,8.83,8.83,0,0,0-6.94,8.5,2.87,2.87,0,0,0,0,.35c6.49,1.58,9.43,5.49,9.45,10.91a11.4,11.4,0,0,1-11.48,11.37"/><polygon class="cls-3" points="569.98 554.39 563.47 538.85 567.73 538.85 571.79 549.17 575.72 538.85 579.78 538.85 573.46 554.39 569.98 554.39"/><path class="cls-3" d="M595.05,546.56a9.82,9.82,0,0,1-.47,3,8.16,8.16,0,0,1-1.38,2.63,7,7,0,0,1-2.32,1.87,7.91,7.91,0,0,1-6.55,0,6.89,6.89,0,0,1-2.32-1.87,8.18,8.18,0,0,1-1.39-2.63,9.8,9.8,0,0,1-.46-3,9.69,9.69,0,0,1,.46-3A8.09,8.09,0,0,1,582,541a6.7,6.7,0,0,1,2.32-1.84,7.35,7.35,0,0,1,3.27-.69,7.25,7.25,0,0,1,3.26.69,6.89,6.89,0,0,1,2.32,1.84,7.92,7.92,0,0,1,1.4,2.59,9.7,9.7,0,0,1,.47,3m-3.93,0a7.36,7.36,0,0,0-.23-1.84,4.44,4.44,0,0,0-.68-1.51,3.46,3.46,0,0,0-1.09-1,3,3,0,0,0-1.52-.37,2.94,2.94,0,0,0-1.51.37,3.49,3.49,0,0,0-1.1,1,4.64,4.64,0,0,0-.68,1.51,7.89,7.89,0,0,0,0,3.7,5,5,0,0,0,.67,1.51,3.22,3.22,0,0,0,1.09,1,3.15,3.15,0,0,0,1.53.37,3.08,3.08,0,0,0,1.52-.37,3.41,3.41,0,0,0,1.09-1,4.53,4.53,0,0,0,.68-1.51,7.29,7.29,0,0,0,.23-1.86"/><path class="cls-3" d="M607.38,554.39l-.16-1.19a4.9,4.9,0,0,1-1.45,1.08,4.54,4.54,0,0,1-2.12.47,5.78,5.78,0,0,1-2.83-.68,6.32,6.32,0,0,1-2.05-1.8,8.29,8.29,0,0,1-1.27-2.62,10.89,10.89,0,0,1-.44-3.09,10,10,0,0,1,.45-3,7.85,7.85,0,0,1,1.37-2.59,6.72,6.72,0,0,1,2.3-1.84,7.16,7.16,0,0,1,3.24-.69,9,9,0,0,1,2.64.44v-6h4v21.5Zm-.32-12.12a6,6,0,0,0-2.15-.45,3.72,3.72,0,0,0-1.76.39,3.45,3.45,0,0,0-1.22,1,4.79,4.79,0,0,0-.72,1.49,6,6,0,0,0-.24,1.7,8.76,8.76,0,0,0,.2,1.86,4.83,4.83,0,0,0,.65,1.55,3.38,3.38,0,0,0,1.09,1.07,2.86,2.86,0,0,0,1.55.4,3.22,3.22,0,0,0,1.51-.4,2.61,2.61,0,0,0,1.09-1Z"/><path class="cls-3" d="M622.63,554.38l-.16-1.16a4.35,4.35,0,0,1-1.65,1.12,5.82,5.82,0,0,1-2.2.41,5.39,5.39,0,0,1-1.92-.34,5.2,5.2,0,0,1-1.64-1,4.8,4.8,0,0,1-1.14-1.54,4.7,4.7,0,0,1-.44-2.08,4.33,4.33,0,0,1,1.68-3.55,6.84,6.84,0,0,1,1.78-1,11.22,11.22,0,0,1,2.1-.58,13.64,13.64,0,0,1,1.7-.24c.62-.06,1.13-.1,1.54-.15v-.22a2.26,2.26,0,0,0-.66-1.84,2.79,2.79,0,0,0-1.83-.55,5.45,5.45,0,0,0-1.3.16,5.25,5.25,0,0,0-1.1.41,8.28,8.28,0,0,0-.86.48,5.32,5.32,0,0,0-.6.43l-1.32-2.8a5.91,5.91,0,0,1,.79-.55,9.74,9.74,0,0,1,1.29-.63,10.88,10.88,0,0,1,1.71-.51,9.4,9.4,0,0,1,2-.21,7.65,7.65,0,0,1,2.36.34,4.53,4.53,0,0,1,1.83,1.06,4.84,4.84,0,0,1,1.21,1.83,7.39,7.39,0,0,1,.44,2.69v10Zm-.32-7.27c-.43,0-.87.06-1.33.11a13.06,13.06,0,0,0-1.3.21,3,3,0,0,0-1.8.89,2.16,2.16,0,0,0-.5,1.37,1.53,1.53,0,0,0,.57,1.24,2.46,2.46,0,0,0,1.6.47,3.61,3.61,0,0,0,1.51-.33,4.26,4.26,0,0,0,1.25-.8Z"/><path class="cls-3" d="M638.63,536.44a5.24,5.24,0,0,0-.76-.28,5,5,0,0,0-1.5-.18,2.05,2.05,0,0,0-1.4.5,2.08,2.08,0,0,0-.56,1.63v.74h3.35v3.23h-3.32v12.31h-4V542.08h-2.06v-3.23h2.06V538a7.43,7.43,0,0,1,.39-2.57,4.48,4.48,0,0,1,1.08-1.71,4.12,4.12,0,0,1,1.63-1,6.31,6.31,0,0,1,2-.31,9,9,0,0,1,2.4.27,9.81,9.81,0,0,1,1.11.37Z"/><path class="cls-3" d="M653.46,546.56a9.52,9.52,0,0,1-.47,3,8.16,8.16,0,0,1-1.38,2.63,6.89,6.89,0,0,1-2.32,1.87,7.91,7.91,0,0,1-6.55,0,6.89,6.89,0,0,1-2.32-1.87,8.18,8.18,0,0,1-1.39-2.63,9.8,9.8,0,0,1-.46-3,9.69,9.69,0,0,1,.46-3,8.09,8.09,0,0,1,1.39-2.59,6.7,6.7,0,0,1,2.32-1.84,7.35,7.35,0,0,1,3.27-.69,7.22,7.22,0,0,1,3.26.69,6.89,6.89,0,0,1,2.32,1.84,7.74,7.74,0,0,1,1.4,2.59,9.41,9.41,0,0,1,.47,3m-3.93,0a7.36,7.36,0,0,0-.23-1.84,4.63,4.63,0,0,0-.67-1.51,3.61,3.61,0,0,0-1.1-1,3,3,0,0,0-1.52-.37,2.94,2.94,0,0,0-1.51.37,3.49,3.49,0,0,0-1.1,1,4.63,4.63,0,0,0-.67,1.51,7.56,7.56,0,0,0,0,3.7,4.94,4.94,0,0,0,.66,1.51,3.22,3.22,0,0,0,1.09,1,3.15,3.15,0,0,0,1.53.37,3.08,3.08,0,0,0,1.52-.37,3.55,3.55,0,0,0,1.1-1,4.72,4.72,0,0,0,.67-1.51,7.29,7.29,0,0,0,.23-1.86"/><path class="cls-3" d="M665.87,554.39v-8.86a4.44,4.44,0,0,0-.74-2.74,2.43,2.43,0,0,0-2.06-1,3.27,3.27,0,0,0-1.73.48,7.56,7.56,0,0,0-1.37,1.07v11h-4V538.85h3.65l.19,1.23a6.85,6.85,0,0,1,2.11-1.19,7.05,7.05,0,0,1,2.37-.42,6.57,6.57,0,0,1,2.26.37,4.33,4.33,0,0,1,1.77,1.17,5.43,5.43,0,0,1,1.15,2.1,10.76,10.76,0,0,1,.4,3.1v9.18Z"/><path class="cls-3" d="M676.28,547.62a3.73,3.73,0,0,0,1.23,2.84,4.44,4.44,0,0,0,2.85.87,8.18,8.18,0,0,0,1.52-.14,7,7,0,0,0,2.2-.83,2.82,2.82,0,0,0,.58-.42l1.07,3.26c-.16.11-.4.25-.73.44a7.52,7.52,0,0,1-1.24.51,13.94,13.94,0,0,1-1.74.42,12.44,12.44,0,0,1-2.19.18,8.63,8.63,0,0,1-2.89-.48,6.67,6.67,0,0,1-2.4-1.5,7.35,7.35,0,0,1-1.65-2.54,9.53,9.53,0,0,1-.61-3.61,10.08,10.08,0,0,1,.56-3.48,7.54,7.54,0,0,1,1.55-2.55,7,7,0,0,1,2.29-1.58,7.22,7.22,0,0,1,2.79-.54,7.62,7.62,0,0,1,2.74.48,5.62,5.62,0,0,1,2.18,1.5,7.35,7.35,0,0,1,1.45,2.63,12.39,12.39,0,0,1,.53,3.83v.71Zm6-2.87a4.43,4.43,0,0,0-.34-1.4,3.11,3.11,0,0,0-.68-1,2.72,2.72,0,0,0-.88-.54,2.62,2.62,0,0,0-.95-.18,3.07,3.07,0,0,0-2,.77,3.27,3.27,0,0,0-1.1,2.32Z"/></g></g></svg>