<svg id="Layer_1" data-name="Layer 1" xmlns="http://www.w3.org/2000/svg" xmlns:xlink="http://www.w3.org/1999/xlink" viewBox="0 0 1200 500"><defs><style>.cls-1{fill:none;}.cls-2{fill:#e62b1e;}.cls-3{font-size:70.92px;}.cls-3,.cls-5{font-family:Helvetica;}.cls-4{font-size:41.51px;font-family:Braille-Regular, Braille;}.cls-6{clip-path:url(#clip-path);}.cls-7{fill:#e60000;}.cls-8{fill:#fff;}</style><clipPath id="clip-path"><rect class="cls-1" x="543.08" y="387" width="113.83" height="82.61"/></clipPath></defs><title>Artboard 1</title><path class="cls-2" d="M64.62,122.15,61,116.88h3.48l2,2.9,1.94-2.9h3.37l-3.65,5.2,4.1,5.91H68.68l-2.32-3.5L64,128H60.62Z"/><path d="M86.62,121.42H75.77v-2.3H86.62Zm0,4.6H75.77v-2.3H86.62Z"/><path d="M94.93,115.16H91.88v-2.51h3.05Zm-3.05,1.72h3.05V128H91.88Z"/><path d="M96.91,116.88h2.9v1.55h.07a3.94,3.94,0,0,1,3.39-1.85c3.25,0,4.06,1.83,4.06,4.58V128h-3v-6.27c0-1.83-.54-2.73-2-2.73-1.66,0-2.37.92-2.37,3.18V128h-3Z"/><path d="M117.15,126.57h0a3.69,3.69,0,0,1-3.38,1.72c-3.35,0-5-2.88-5-5.95s1.65-5.76,4.92-5.76a3.88,3.88,0,0,1,3.31,1.66h0v-5.59h3V128h-2.9Zm-2.66-7.69c-2,0-2.69,1.72-2.69,3.55s.8,3.56,2.69,3.56,2.62-1.76,2.62-3.58S116.46,118.88,114.49,118.88Z"/><path d="M124.43,123.18c.09,1.93,1,2.81,2.73,2.81a2.5,2.5,0,0,0,2.41-1.44h2.68a5,5,0,0,1-5.2,3.74c-3.5,0-5.67-2.4-5.67-5.84a5.57,5.57,0,0,1,5.67-5.87c3.79,0,5.61,3.18,5.4,6.6Zm5-1.93c-.28-1.55-1-2.37-2.43-2.37a2.41,2.41,0,0,0-2.54,2.37Z"/><path d="M133.82,116.88h2.9v1.42h.05a3.69,3.69,0,0,1,3.3-1.72c3.49,0,5.05,2.82,5.05,6,0,3-1.63,5.73-4.87,5.73a3.94,3.94,0,0,1-3.33-1.67h0v5.28h-3.05Zm8.25,5.59c0-1.76-.71-3.59-2.66-3.59s-2.64,1.78-2.64,3.59.68,3.52,2.66,3.52S142.07,124.27,142.07,122.47Z"/><path d="M149,123.18c.09,1.93,1,2.81,2.73,2.81a2.5,2.5,0,0,0,2.41-1.44h2.68a5,5,0,0,1-5.19,3.74c-3.51,0-5.68-2.4-5.68-5.84a5.58,5.58,0,0,1,5.68-5.87c3.78,0,5.6,3.18,5.39,6.6Zm5-1.93c-.28-1.55-.95-2.37-2.43-2.37a2.42,2.42,0,0,0-2.54,2.37Z"/><path d="M158.42,116.88h2.9v1.55h.07a3.94,3.94,0,0,1,3.39-1.85c3.25,0,4.06,1.83,4.06,4.58V128h-3.05v-6.27c0-1.83-.53-2.73-1.95-2.73-1.66,0-2.37.92-2.37,3.18V128h-3.05Z"/><path d="M178.66,126.57h0a3.68,3.68,0,0,1-3.37,1.72c-3.36,0-5-2.88-5-5.95s1.66-5.76,4.92-5.76a3.88,3.88,0,0,1,3.31,1.66h0v-5.59h3.05V128h-2.9ZM176,118.88c-2,0-2.69,1.72-2.69,3.55s.8,3.56,2.69,3.56,2.62-1.76,2.62-3.58S178,118.88,176,118.88Z"/><path d="M185.94,123.18c.09,1.93,1,2.81,2.73,2.81a2.5,2.5,0,0,0,2.41-1.44h2.69a5,5,0,0,1-5.2,3.74c-3.51,0-5.68-2.4-5.68-5.84a5.58,5.58,0,0,1,5.68-5.87c3.78,0,5.6,3.18,5.39,6.6Zm5-1.93c-.28-1.55-.95-2.37-2.43-2.37a2.42,2.42,0,0,0-2.54,2.37Z"/><path d="M195.33,116.88h2.9v1.55h.07a3.94,3.94,0,0,1,3.39-1.85c3.25,0,4.06,1.83,4.06,4.58V128H202.7v-6.27c0-1.83-.53-2.73-1.95-2.73-1.66,0-2.37.92-2.37,3.18V128h-3Z"/><path d="M211.51,116.88h2.24v2h-2.24v5.5c0,1,.26,1.29,1.29,1.29a5.15,5.15,0,0,0,.95-.08V128a11.32,11.32,0,0,1-1.79.11c-1.87,0-3.5-.43-3.5-2.64v-6.56h-1.85v-2h1.85v-3.33h3Z"/><path d="M214.86,112.65h3V128h-3Z"/><path d="M225.37,129.39c-.67,1.78-1.72,2.51-3.82,2.51a16.61,16.61,0,0,1-1.87-.11v-2.51a17.36,17.36,0,0,0,1.78.11,1.44,1.44,0,0,0,1-2.09l-3.91-10.42h3.27l2.51,7.61h0l2.43-7.61H230Z"/><path d="M241.55,116.58c3.5,0,5.76,2.32,5.76,5.87a5.75,5.75,0,1,1-11.5,0C235.81,118.9,238.07,116.58,241.55,116.58Zm0,9.41c2.08,0,2.71-1.78,2.71-3.54s-.63-3.57-2.71-3.57-2.69,1.78-2.69,3.57S239.49,126,241.55,126Z"/><path d="M248.42,116.88h2.9V119h.05a3.93,3.93,0,0,1,3.54-2.37,2.47,2.47,0,0,1,.67.11v2.84a5.18,5.18,0,0,0-1.1-.11c-2.23,0-3,1.61-3,3.57v5h-3.05Z"/><path d="M267,127.28c0,1.83-.64,4.92-5.76,4.92-2.19,0-4.75-1-4.9-3.56h3a2.06,2.06,0,0,0,2.28,1.52c1.7,0,2.47-1.16,2.45-2.75V126h0a3.76,3.76,0,0,1-3.33,1.72c-3.33,0-4.75-2.54-4.75-5.59,0-2.88,1.65-5.5,4.77-5.5a3.46,3.46,0,0,1,3.31,1.79h0v-1.49H267Zm-2.9-5c0-1.81-.62-3.42-2.6-3.42-1.72,0-2.47,1.51-2.47,3.16s.6,3.33,2.47,3.33S264.13,123.89,264.13,122.3Z"/><path d="M268.49,120.3c.17-2.86,2.73-3.72,5.22-3.72,2.21,0,4.88.5,4.88,3.16v5.78A5.67,5.67,0,0,0,279,128h-3.1a4.32,4.32,0,0,1-.21-1.07,5.1,5.1,0,0,1-3.74,1.37c-2.11,0-3.78-1-3.78-3.33,0-2.51,1.89-3.11,3.78-3.37s3.61-.22,3.61-1.46-.9-1.51-2-1.51-1.91.48-2,1.68Zm7.05,2.26a6.08,6.08,0,0,1-2.54.64c-.94.19-1.8.52-1.8,1.63s.88,1.42,1.87,1.42a2.27,2.27,0,0,0,2.47-2.56Z"/><path d="M280.52,116.88h2.9v1.55h.07a3.94,3.94,0,0,1,3.39-1.85c3.25,0,4.06,1.83,4.06,4.58V128h-3.05v-6.27c0-1.83-.54-2.73-1.95-2.73-1.66,0-2.37.92-2.37,3.18V128h-3.05Z"/><path d="M295.54,115.16h-3.05v-2.51h3.05Zm-3.05,1.72h3.05V128h-3.05Z"/><path d="M296.83,125.69l5.78-6.51h-5.35v-2.3h9.37v2.3l-5.78,6.51H307V128h-10.2Z"/><path d="M310.75,123.18c.09,1.93,1,2.81,2.73,2.81a2.53,2.53,0,0,0,2.41-1.44h2.68a5,5,0,0,1-5.2,3.74c-3.5,0-5.67-2.4-5.67-5.84a5.57,5.57,0,0,1,5.67-5.87c3.78,0,5.61,3.18,5.4,6.6Zm5-1.93c-.27-1.55-.94-2.37-2.42-2.37a2.41,2.41,0,0,0-2.54,2.37Z"/><path d="M328.07,126.57h0a3.69,3.69,0,0,1-3.38,1.72c-3.35,0-5-2.88-5-5.95s1.65-5.76,4.92-5.76a3.88,3.88,0,0,1,3.31,1.66h0v-5.59H331V128h-2.9Zm-2.67-7.69c-2,0-2.68,1.72-2.68,3.55s.79,3.56,2.68,3.56,2.63-1.76,2.63-3.58S327.38,118.88,325.4,118.88Z"/><path d="M342.1,115.49h-4.6v-2.84h12.57v2.84h-4.6V128H342.1Z"/><path d="M351.4,112.65h11.47v2.84h-8.1v3.28h7.44v2.63h-7.44v3.76h8.28V128H351.4Z"/><path d="M364.46,112.65h6.62c4,0,7,2.49,7,7.59,0,4.44-2.27,7.75-7,7.75h-6.62Zm3.38,12.51h3c1.95,0,3.82-1.21,3.82-4.6,0-3.1-1.07-5.07-4.43-5.07h-2.4Z"/><path d="M387.69,123.18c.09,1.93,1,2.81,2.73,2.81a2.5,2.5,0,0,0,2.4-1.44h2.69a5,5,0,0,1-5.2,3.74c-3.5,0-5.67-2.4-5.67-5.84a5.57,5.57,0,0,1,5.67-5.87c3.78,0,5.61,3.18,5.39,6.6Zm5-1.93c-.28-1.55-.94-2.37-2.43-2.37a2.4,2.4,0,0,0-2.53,2.37Z"/><path d="M402.79,128H399.4l-3.8-11.11h3.2l2.34,7.59h0l2.34-7.59h3Z"/><path d="M409.48,123.18c.08,1.93,1,2.81,2.72,2.81a2.5,2.5,0,0,0,2.41-1.44h2.69a5,5,0,0,1-5.2,3.74c-3.51,0-5.68-2.4-5.68-5.84a5.58,5.58,0,0,1,5.68-5.87c3.78,0,5.6,3.18,5.39,6.6Zm5-1.93c-.28-1.55-.95-2.37-2.43-2.37a2.4,2.4,0,0,0-2.53,2.37Z"/><path d="M418.86,116.88h2.9v1.55h.07a4,4,0,0,1,3.39-1.85c3.25,0,4.07,1.83,4.07,4.58V128h-3.06v-6.27c0-1.83-.53-2.73-2-2.73-1.66,0-2.36.92-2.36,3.18V128h-3.06Z"/><path d="M435,116.88h2.24v2H435v5.5c0,1,.26,1.29,1.29,1.29a5.08,5.08,0,0,0,.95-.08V128a11.25,11.25,0,0,1-1.79.11c-1.87,0-3.5-.43-3.5-2.64v-6.56h-1.85v-2H432v-3.33H435Z"/><path class="cls-2" d="M73.82,61.89H59.5V48.8h44.35V61.89H89.54v38H73.82Z"/><path class="cls-2" d="M106.3,48.8h43.05V61.89H122v6.37h27.31V80.43H122v6.36h27.32V99.88H106.3Z"/><path class="cls-2" d="M152,48.8h25.83c17,0,23,12.59,23,25.47,0,15.67-8.3,25.61-26.11,25.61H152Zm15.74,38h6.16c9.8,0,11.23-7.94,11.23-12.74,0-3.21-1-12.16-12.38-12.16h-5Z"/><path class="cls-2" d="M223.49,80.2l-4.81-8-4.68,8H202.47l10.95-16.1L202.88,48.7h11.53l4.27,7.62,4.4-7.62h11.53L224.07,64.1l11,16.1Z"/><text class="cls-3" transform="translate(240.92 99.89)">AucklandSalon</text><text class="cls-4" transform="translate(52.07 245.57)"><tspan xml:space="preserve">IN THE DARK  TASTE  SMELL  TOUCH  HEAR</tspan><tspan x="0" y="99.63" xml:space="preserve">RYDGES HOTEL  31</tspan><tspan class="cls-5" x="481.52" y="99.63">.</tspan><tspan x="493.05" y="99.63">8</tspan><tspan class="cls-5" x="526.26" y="99.63">.</tspan><tspan x="537.79" y="99.63">19</tspan></text><g class="cls-6"><g class="cls-6"><path class="cls-7" d="M625.76,414.39a24.91,24.91,0,1,1-24.91-24.9,24.9,24.9,0,0,1,24.91,24.9"/><path class="cls-8" d="M601.05,428.28c-6.84,0-14-5.82-14-15.2a21.15,21.15,0,0,1,7.6-15.71,24.85,24.85,0,0,1,15.07-5.68,6.17,6.17,0,0,1,1.79.19,10.34,10.34,0,0,0-8.12,9.94,2.15,2.15,0,0,0,0,.41c7.58,1.85,11,6.42,11,12.75a13.32,13.32,0,0,1-13.42,13.3"/><polygon class="cls-7" points="551.34 466.8 545.57 453.04 549.34 453.04 552.94 462.18 556.42 453.04 560.02 453.04 554.43 466.8 551.34 466.8"/><path class="cls-7" d="M573.55,459.87a8.57,8.57,0,0,1-.42,2.64,7,7,0,0,1-1.23,2.32,6,6,0,0,1-2,1.66,7,7,0,0,1-5.8,0,6.12,6.12,0,0,1-2.06-1.66,7.16,7.16,0,0,1-1.22-2.32,8.57,8.57,0,0,1-.42-2.64,8.37,8.37,0,0,1,.42-2.63,7.06,7.06,0,0,1,1.22-2.3,6,6,0,0,1,2.06-1.63,6.45,6.45,0,0,1,2.9-.61,6.36,6.36,0,0,1,2.88.61,6.13,6.13,0,0,1,2.06,1.63,6.92,6.92,0,0,1,1.24,2.3,8.37,8.37,0,0,1,.42,2.63m-3.49,0a6.62,6.62,0,0,0-.2-1.63,3.78,3.78,0,0,0-.6-1.33,2.94,2.94,0,0,0-1-.89,2.89,2.89,0,0,0-2.68,0,2.94,2.94,0,0,0-1,.89,3.78,3.78,0,0,0-.6,1.33,6.82,6.82,0,0,0,0,3.28,4.47,4.47,0,0,0,.58,1.33,2.88,2.88,0,0,0,1,.9,2.74,2.74,0,0,0,1.36.33,2.64,2.64,0,0,0,1.34-.33,3,3,0,0,0,1-.9,4,4,0,0,0,.6-1.33,6.66,6.66,0,0,0,.2-1.65"/><path class="cls-7" d="M584.47,466.8l-.15-1.05a4.31,4.31,0,0,1-1.28.95,4,4,0,0,1-1.88.42,5.08,5.08,0,0,1-2.5-.6,5.59,5.59,0,0,1-1.82-1.6,7.32,7.32,0,0,1-1.13-2.31,10,10,0,0,1-.38-2.74,8.65,8.65,0,0,1,.4-2.63,6.85,6.85,0,0,1,1.21-2.3,6,6,0,0,1,2-1.63,6.36,6.36,0,0,1,2.88-.61,7.83,7.83,0,0,1,2.33.39v-5.33h3.54v19Zm-.29-10.73a5.15,5.15,0,0,0-1.9-.4,3.27,3.27,0,0,0-1.56.34,3,3,0,0,0-1.08.93,4,4,0,0,0-.64,1.32,5.44,5.44,0,0,0-.22,1.5,7.31,7.31,0,0,0,.19,1.65,4.09,4.09,0,0,0,.57,1.38,2.87,2.87,0,0,0,1,.94,2.58,2.58,0,0,0,1.38.36,2.87,2.87,0,0,0,1.34-.36,2.3,2.3,0,0,0,1-.84Z"/><path class="cls-7" d="M598,466.79l-.15-1a3.84,3.84,0,0,1-1.46,1,5.13,5.13,0,0,1-2,.36,4.87,4.87,0,0,1-1.7-.3,4.5,4.5,0,0,1-1.45-.86,4.27,4.27,0,0,1-1-1.37,4.35,4.35,0,0,1-.38-1.84,3.86,3.86,0,0,1,.4-1.81,3.92,3.92,0,0,1,1.09-1.33,6.16,6.16,0,0,1,1.57-.89,9.74,9.74,0,0,1,1.87-.51,12.24,12.24,0,0,1,1.5-.22l1.36-.12v-.2a2,2,0,0,0-.59-1.63,2.49,2.49,0,0,0-1.62-.49,4.37,4.37,0,0,0-1.15.15,5,5,0,0,0-1,.35c-.29.15-.54.29-.76.43a3.85,3.85,0,0,0-.53.39l-1.17-2.49a5,5,0,0,1,.7-.48,7.58,7.58,0,0,1,1.14-.56,10.39,10.39,0,0,1,1.51-.46,8.68,8.68,0,0,1,1.81-.18,6.85,6.85,0,0,1,2.09.3,4.21,4.21,0,0,1,1.63.94,4.54,4.54,0,0,1,1.07,1.62,6.51,6.51,0,0,1,.38,2.39v8.84Zm-.29-6.44c-.38,0-.77,0-1.18.1s-.78.11-1.15.19a2.61,2.61,0,0,0-1.59.78,1.89,1.89,0,0,0-.45,1.21,1.35,1.35,0,0,0,.5,1.1,2.18,2.18,0,0,0,1.43.42,3.25,3.25,0,0,0,1.33-.29,4,4,0,0,0,1.11-.71Z"/><path class="cls-7" d="M612.14,450.9a4,4,0,0,0-.67-.24,4.34,4.34,0,0,0-1.33-.16,1.64,1.64,0,0,0-1.74,1.88V453h3v2.86h-2.94v10.9h-3.54V455.9h-1.83V453h1.83v-.74a6.54,6.54,0,0,1,.34-2.27,4,4,0,0,1,1-1.52,3.75,3.75,0,0,1,1.44-.85,5.76,5.76,0,0,1,1.8-.27,7.91,7.91,0,0,1,2.13.24,5.69,5.69,0,0,1,1,.33Z"/><path class="cls-7" d="M625.28,459.87a8.87,8.87,0,0,1-.41,2.64,7.38,7.38,0,0,1-1.23,2.32,6.12,6.12,0,0,1-2.06,1.66,7,7,0,0,1-5.8,0,6.08,6.08,0,0,1-2-1.66,7.38,7.38,0,0,1-1.23-2.32,8.56,8.56,0,0,1-.41-2.64,8.36,8.36,0,0,1,.41-2.63,7.28,7.28,0,0,1,1.23-2.3,6,6,0,0,1,2-1.63,6.48,6.48,0,0,1,2.9-.61,6.38,6.38,0,0,1,2.89.61,6.1,6.1,0,0,1,2,1.63,6.94,6.94,0,0,1,1.25,2.3,8.66,8.66,0,0,1,.41,2.63m-3.48,0a6.62,6.62,0,0,0-.2-1.63,4.17,4.17,0,0,0-.6-1.33,3,3,0,0,0-1-.89,2.67,2.67,0,0,0-1.35-.33,2.64,2.64,0,0,0-1.34.33,3,3,0,0,0-1,.89,3.78,3.78,0,0,0-.6,1.33,6.82,6.82,0,0,0,0,3.28,4.24,4.24,0,0,0,.59,1.33,2.79,2.79,0,0,0,1,.9,2.93,2.93,0,0,0,2.7,0,3.07,3.07,0,0,0,1-.9,4.5,4.5,0,0,0,.6-1.33,6.66,6.66,0,0,0,.2-1.65"/><path class="cls-7" d="M636.27,466.8V459a3.92,3.92,0,0,0-.66-2.43,2.15,2.15,0,0,0-1.82-.85,2.81,2.81,0,0,0-1.53.43A6.56,6.56,0,0,0,631,457v9.76H627.5V453h3.23l.17,1.09a6.3,6.3,0,0,1,4-1.43,5.87,5.87,0,0,1,2,.33,3.86,3.86,0,0,1,1.57,1,4.63,4.63,0,0,1,1,1.85,9.26,9.26,0,0,1,.36,2.75v8.13Z"/><path class="cls-7" d="M645.49,460.81a3.28,3.28,0,0,0,1.09,2.51,4,4,0,0,0,2.52.77,6.44,6.44,0,0,0,1.35-.13,5.48,5.48,0,0,0,1.12-.33,5.87,5.87,0,0,0,.83-.4,2.1,2.1,0,0,0,.51-.37l1,2.89c-.14.09-.35.22-.65.38a5.52,5.52,0,0,1-1.1.46,10.92,10.92,0,0,1-1.54.37,10.65,10.65,0,0,1-1.94.16,7.52,7.52,0,0,1-2.56-.43,5.73,5.73,0,0,1-2.12-1.33,6.45,6.45,0,0,1-1.46-2.24,9.74,9.74,0,0,1,0-6.28,6.46,6.46,0,0,1,1.37-2.26,6,6,0,0,1,2-1.4,6.36,6.36,0,0,1,2.47-.48,6.59,6.59,0,0,1,2.42.43,4.9,4.9,0,0,1,1.93,1.32,6.58,6.58,0,0,1,1.29,2.33,11,11,0,0,1,.47,3.4v.63Zm5.34-2.54a3.82,3.82,0,0,0-.3-1.25,2.77,2.77,0,0,0-.61-.85,2.45,2.45,0,0,0-.77-.49,2.51,2.51,0,0,0-.85-.16,2.72,2.72,0,0,0-1.75.69,3,3,0,0,0-1,2.06Z"/></g></g></svg>