<svg xmlns="http://www.w3.org/2000/svg" viewBox="0 0 1041.96 185.41"><defs><style>.cls-1{fill:#EB0028;}.cls-2{fill:#231f20;}</style></defs><title>tedx-auckland-logo-black</title><g id="Layer_2" data-name="Layer 2"><g id="Layer_1-2" data-name="Layer 1"><path class="cls-1" d="M11.37,163.08,3.26,151.39H11l4.34,6.44,4.29-6.44h7.49L19,162.94l9.11,13.12H20.38l-5.15-7.78-5.15,7.78H2.49Z"/><path class="cls-2" d="M60.22,161.46H36.13v-5.11H60.22Zm0,10.21H36.13v-5.11H60.22Z"/><path class="cls-2" d="M78.68,147.57H71.91V142h6.77Zm-6.77,3.82h6.77v24.67H71.91Z"/><path class="cls-2" d="M83.07,151.39h6.44v3.43h.14a8.82,8.82,0,0,1,7.54-4.1c7.21,0,9,4.06,9,10.16v15.18H99.43V162.12c0-4.05-1.19-6.05-4.34-6.05-3.67,0-5.24,2.05-5.24,7.06v12.93H83.07Z"/><path class="cls-2" d="M128,172.91h-.09c-1.58,2.67-4.35,3.81-7.5,3.81-7.44,0-11.06-6.39-11.06-13.21,0-6.63,3.67-12.79,10.92-12.79a8.63,8.63,0,0,1,7.35,3.68h.05V142h6.77v34.07H128Zm-5.92-17.08c-4.43,0-6,3.81-6,7.87,0,3.86,1.77,7.92,6,7.92,4.49,0,5.83-3.91,5.83-8S126.48,155.83,122.09,155.83Z"/><path class="cls-2" d="M144.18,165.37c.19,4.29,2.29,6.25,6.06,6.25,2.72,0,4.92-1.67,5.34-3.2h6c-1.91,5.82-6,8.3-11.55,8.3-7.77,0-12.59-5.34-12.59-13,0-7.4,5.1-13,12.59-13,8.4,0,12.46,7.06,12,14.65Zm11-4.3c-.62-3.43-2.1-5.24-5.39-5.24a5.34,5.34,0,0,0-5.63,5.24Z"/><path class="cls-2" d="M165,151.39h6.44v3.15h.1a8.19,8.19,0,0,1,7.34-3.82c7.73,0,11.22,6.25,11.22,13.26,0,6.59-3.63,12.74-10.84,12.74A8.74,8.74,0,0,1,171.9,173h-.1v11.74H165Zm18.32,12.4c0-3.91-1.57-8-5.92-8s-5.86,4-5.86,8,1.52,7.83,5.91,7.83S183.35,167.8,183.35,163.79Z"/><path class="cls-2" d="M198.81,165.37c.19,4.29,2.29,6.25,6.06,6.25,2.71,0,4.91-1.67,5.34-3.2h6c-1.91,5.82-6,8.3-11.54,8.3-7.78,0-12.6-5.34-12.6-13,0-7.4,5.11-13,12.6-13,8.39,0,12.45,7.06,12,14.65Zm11-4.3c-.62-3.43-2.1-5.24-5.39-5.24a5.33,5.33,0,0,0-5.63,5.24Z"/><path class="cls-2" d="M219.65,151.39h6.44v3.43h.15a8.81,8.81,0,0,1,7.54-4.1c7.2,0,9,4.06,9,10.16v15.18H236V162.12c0-4.05-1.19-6.05-4.34-6.05-3.68,0-5.25,2.05-5.25,7.06v12.93h-6.78Z"/><path class="cls-2" d="M264.59,172.91h-.09c-1.58,2.67-4.34,3.81-7.49,3.81-7.44,0-11.07-6.39-11.07-13.21,0-6.63,3.67-12.79,10.93-12.79a8.6,8.6,0,0,1,7.34,3.68h.05V142H271v34.07h-6.45Zm-5.91-17.08c-4.44,0-6,3.81-6,7.87,0,3.86,1.77,7.92,6,7.92,4.48,0,5.82-3.91,5.82-8S263.07,155.83,258.68,155.83Z"/><path class="cls-2" d="M280.77,165.37c.19,4.29,2.29,6.25,6.06,6.25,2.71,0,4.91-1.67,5.34-3.2h6c-1.91,5.82-6,8.3-11.54,8.3-7.78,0-12.6-5.34-12.6-13,0-7.4,5.11-13,12.6-13,8.39,0,12.45,7.06,12,14.65Zm11-4.3c-.62-3.43-2.1-5.24-5.39-5.24a5.33,5.33,0,0,0-5.63,5.24Z"/><path class="cls-2" d="M301.61,151.39h6.44v3.43h.15a8.81,8.81,0,0,1,7.54-4.1c7.2,0,9,4.06,9,10.16v15.18H318V162.12c0-4.05-1.19-6.05-4.34-6.05-3.68,0-5.25,2.05-5.25,7.06v12.93h-6.78Z"/><path class="cls-2" d="M337.54,151.39h5v4.53h-5v12.22c0,2.29.57,2.86,2.86,2.86a10.66,10.66,0,0,0,2.1-.19v5.29a26.17,26.17,0,0,1-4,.24c-4.15,0-7.78-1-7.78-5.87V155.92h-4.1v-4.53h4.1V144h6.78Z"/><path class="cls-2" d="M345,142h6.77v34.07H345Z"/><path class="cls-2" d="M368.31,179.16c-1.48,4-3.82,5.58-8.49,5.58a41.44,41.44,0,0,1-4.16-.24v-5.58c1.29.09,2.63.28,4,.24,2.34-.24,3.11-2.68,2.34-4.63l-8.68-23.14h7.25l5.58,16.89h.1l5.39-16.89h7Z"/><path class="cls-2" d="M404.23,150.72c7.78,0,12.79,5.15,12.79,13s-5,13-12.79,13-12.74-5.15-12.74-13S396.5,150.72,404.23,150.72Zm0,20.9c4.63,0,6-4,6-7.87s-1.38-7.92-6-7.92-6,4-6,7.92S399.65,171.62,404.23,171.62Z"/><path class="cls-2" d="M419.5,151.39h6.44V156H426a8.73,8.73,0,0,1,7.88-5.25,5.14,5.14,0,0,1,1.47.24v6.3A11.83,11.83,0,0,0,433,157c-5,0-6.68,3.58-6.68,7.92v11.12H419.5Z"/><path class="cls-2" d="M460.81,174.48c0,4.06-1.43,10.93-12.78,10.93-4.87,0-10.55-2.29-10.88-7.92h6.73c.62,2.53,2.67,3.39,5.05,3.39,3.77,0,5.49-2.58,5.44-6.11v-3.25h-.09a8.34,8.34,0,0,1-7.4,3.82c-7.39,0-10.54-5.63-10.54-12.4,0-6.4,3.67-12.22,10.59-12.22,3.24,0,5.72,1.1,7.35,4h.09v-3.29h6.44Zm-6.44-11.07c0-4-1.38-7.58-5.77-7.58-3.82,0-5.49,3.34-5.49,7s1.34,7.4,5.49,7.4C452.46,170.24,454.37,166.94,454.37,163.41Z"/><path class="cls-2" d="M464.05,159c.39-6.35,6.06-8.26,11.6-8.26,4.91,0,10.83,1.1,10.83,7v12.83c0,2.24.24,4.48.86,5.49h-6.87a10.24,10.24,0,0,1-.48-2.39,11.33,11.33,0,0,1-8.3,3.05c-4.68,0-8.4-2.33-8.4-7.39,0-5.58,4.2-6.92,8.4-7.49s8-.48,8-3.25-2-3.34-4.39-3.34c-2.57,0-4.24,1.05-4.48,3.73Zm15.65,5c-1.14,1-3.53,1.05-5.63,1.44s-4,1.14-4,3.62,1.95,3.15,4.15,3.15c5.29,0,5.48-4.2,5.48-5.68Z"/><path class="cls-2" d="M490.77,151.39h6.44v3.43h.14a8.82,8.82,0,0,1,7.54-4.1c7.21,0,9,4.06,9,10.16v15.18h-6.78V162.12c0-4.05-1.19-6.05-4.34-6.05-3.67,0-5.24,2.05-5.24,7.06v12.93h-6.78Z"/><path class="cls-2" d="M524.12,147.57h-6.78V142h6.78Zm-6.78,3.82h6.78v24.67h-6.78Z"/><path class="cls-2" d="M527,171l12.83-14.46H527.93v-5.1h20.8v5.1L535.9,171h13.74v5.11H527Z"/><path class="cls-2" d="M557.89,165.37c.19,4.29,2.29,6.25,6.06,6.25,2.72,0,4.92-1.67,5.35-3.2h6c-1.91,5.82-6,8.3-11.55,8.3-7.77,0-12.59-5.34-12.59-13,0-7.4,5.1-13,12.59-13,8.4,0,12.46,7.06,12,14.65Zm11-4.3c-.61-3.43-2.09-5.24-5.39-5.24a5.34,5.34,0,0,0-5.63,5.24Z"/><path class="cls-2" d="M596.35,172.91h-.1c-1.57,2.67-4.34,3.81-7.49,3.81-7.44,0-11.07-6.39-11.07-13.21,0-6.63,3.68-12.79,10.93-12.79A8.63,8.63,0,0,1,596,154.4h0V142h6.78v34.07h-6.44Zm-5.92-17.08c-4.44,0-6,3.81-6,7.87,0,3.86,1.76,7.92,6,7.92,4.49,0,5.82-3.91,5.82-8S594.82,155.83,590.43,155.83Z"/><path class="cls-2" d="M627.5,148.29H617.29V142H645.2v6.3H635v27.77H627.5Z"/><path class="cls-2" d="M648.16,142h25.47v6.3h-18v7.3h16.5v5.82h-16.5v8.35H674v6.3H648.16Z"/><path class="cls-2" d="M677.16,142h14.7c8.82,0,15.45,5.54,15.45,16.84,0,9.88-5,17.23-15.45,17.23h-14.7Zm7.49,27.77h6.68c4.34,0,8.49-2.67,8.49-10.21,0-6.87-2.38-11.26-9.83-11.26h-5.34Z"/><path class="cls-2" d="M728.73,165.37c.19,4.29,2.29,6.25,6.06,6.25,2.72,0,4.92-1.67,5.35-3.2h6c-1.91,5.82-6,8.3-11.55,8.3-7.77,0-12.59-5.34-12.59-13,0-7.4,5.1-13,12.59-13,8.4,0,12.46,7.06,12,14.65Zm11-4.3c-.62-3.43-2.1-5.24-5.39-5.24a5.34,5.34,0,0,0-5.63,5.24Z"/><path class="cls-2" d="M762.27,176.06h-7.54l-8.44-24.67h7.11l5.2,16.84h.09l5.2-16.84h6.73Z"/><path class="cls-2" d="M777.11,165.37c.19,4.29,2.29,6.25,6.06,6.25,2.72,0,4.91-1.67,5.34-3.2h6c-1.9,5.82-6,8.3-11.54,8.3-7.78,0-12.6-5.34-12.6-13,0-7.4,5.11-13,12.6-13,8.4,0,12.45,7.06,12,14.65Zm11-4.3c-.62-3.43-2.1-5.24-5.39-5.24a5.33,5.33,0,0,0-5.63,5.24Z"/><path class="cls-2" d="M798,151.39h6.44v3.43h.14a8.82,8.82,0,0,1,7.54-4.1c7.2,0,9,4.06,9,10.16v15.18h-6.78V162.12c0-4.05-1.19-6.05-4.34-6.05-3.68,0-5.25,2.05-5.25,7.06v12.93H798Z"/><path class="cls-2" d="M833.88,151.39h5v4.53h-5v12.22c0,2.29.57,2.86,2.86,2.86a10.59,10.59,0,0,0,2.1-.19v5.29a26,26,0,0,1-4,.24c-4.15,0-7.78-1-7.78-5.87V155.92H823v-4.53h4.1V144h6.78Z"/><path class="cls-1" d="M31.79,29.29H0V.22H98.49V29.29H66.71v84.35H31.79Z"/><path class="cls-1" d="M103.91.22h95.61V29.29H138.86V43.42h60.66v27H138.86V84.57h60.68v29.07H103.91Z"/><path class="cls-1" d="M205.4.22h57.35c37.8,0,51.16,28,51.16,56.54,0,34.8-18.43,56.88-58,56.88H205.4Zm34.94,84.35H254c21.77,0,24.95-17.64,24.95-28.29,0-7.14-2.23-27-27.49-27H240.34Z"/><path class="cls-1" d="M364.12,69.93,353.46,52.26,343.07,69.93H317.46l24.31-35.74L318.36,0H344l9.48,16.9L363.22,0h25.61l-23.4,34.19,24.3,35.74Z"/><path d="M449.66.51h17.27l41,113H491.17l-11.8-33.83H435.06l-12.25,33.83H407.13ZM475,67.17l-17.39-49.9-18.07,49.9Z"/><path d="M533.72,31.11V85.78a23.53,23.53,0,0,0,1.95,10.3q3.6,7.38,13.41,7.38,14.07,0,19.16-12.92,2.78-6.92,2.77-19V31.11h13.84v82.35H571.78l.16-12.15a28,28,0,0,1-6.57,7.92,28.57,28.57,0,0,1-18.86,6.46q-17.28,0-23.54-11.77-3.39-6.3-3.39-16.84v-56Z"/><path d="M661.86,35.49q8.71,6.76,10.49,23.3H658.9a24.77,24.77,0,0,0-5.62-12.65q-4.38-5-14.07-5Q626,41.1,620.3,54q-3.69,8.37-3.69,20.65t5.23,20.82q5.22,8.44,16.45,8.44,8.61,0,13.65-5.24t7-14.36h13.45q-2.31,16.37-11.53,24t-23.61,7.57q-16.14,0-25.75-11.8t-9.61-29.49q0-21.67,10.53-33.75t26.83-12.07Q653.13,28.73,661.86,35.49Z"/><path d="M685.89.51h13.3V66.09l35.49-35h17.68L720.71,61.73l33.42,51.73H736.45l-25.9-41.91-11.36,11v30.91h-13.3Z"/><path d="M765.31.51h13.84v113H765.31Z"/><path d="M844.05,63.62q4.76-.61,6.38-4a12.33,12.33,0,0,0,.92-5.33q0-7.09-5-10.3t-14.38-3.2q-10.83,0-15.35,5.87-2.54,3.24-3.3,9.66H800.37q.39-15.27,9.87-21.24a40.34,40.34,0,0,1,22-6q14.52,0,23.58,5.54t9,17.22V99.31a6.06,6.06,0,0,0,.89,3.46c.59.87,1.83,1.31,3.73,1.31a20.08,20.08,0,0,0,2.07-.12c.77-.08,1.59-.19,2.46-.34v10.22A36.77,36.77,0,0,1,869,115a34.42,34.42,0,0,1-4.61.24q-7.15,0-10.38-5.08a19.5,19.5,0,0,1-2.38-7.61,35.27,35.27,0,0,1-12.15,9.61,37.55,37.55,0,0,1-17.46,4.07q-11.44,0-18.72-6.94a23.11,23.11,0,0,1-7.26-17.4q0-11.44,7.15-17.74T822,66.39ZM814.9,101a16.31,16.31,0,0,0,10.38,3.45,31.63,31.63,0,0,0,14.15-3.38Q851,95.48,851,82.74V71.61a23.15,23.15,0,0,1-6.52,2.69,52.91,52.91,0,0,1-7.82,1.54l-8.37,1.08c-5,.67-8.78,1.71-11.31,3.15q-6.42,3.6-6.42,11.5A11.37,11.37,0,0,0,814.9,101Z"/><path d="M887.49,31.11h13.14V42.8A37,37,0,0,1,913,32.42a33.05,33.05,0,0,1,14.54-3.16q17.52,0,23.68,12.23,3.38,6.69,3.38,19.14v52.83H940.54V61.56q0-7.55-2.23-12.15-3.69-7.69-13.38-7.69a27.09,27.09,0,0,0-8.07,1,20.75,20.75,0,0,0-10,6.77,20.51,20.51,0,0,0-4.5,8.41,57,57,0,0,0-1,12.42v43.14H887.49Z"/><path d="M1020.31,33.65c2.45,1.53,5.23,4.23,8.34,8.07V.12H1042V113.46H1029.5V102a30,30,0,0,1-11.41,11,32.65,32.65,0,0,1-15.09,3.38q-13.71,0-23.75-11.57t-10-30.8q0-18,9.15-31.18t26.16-13.18Q1014,29.65,1020.31,33.65Zm-30.9,61.74q5.58,8.91,17.9,8.92,9.57,0,15.72-8.27t6.16-23.72q0-15.6-6.35-23.1a19.76,19.76,0,0,0-15.68-7.5,20.67,20.67,0,0,0-16.87,8q-6.46,8-6.46,23.52Q983.83,86.47,989.41,95.39Z"/></g></g></svg>
