<svg xmlns="http://www.w3.org/2000/svg" viewBox="0 0 363.59 106.02"><defs><style>.cls-1{fill:#ff2b06;}</style></defs><title>Asset 1</title><g id="Layer_2" data-name="Layer 2"><g id="Layer_1-2" data-name="Layer 1"><path class="cls-1" d="M29.65,27.32H0V.2H91.88V27.32H62.24V106H29.65Z"/><path class="cls-1" d="M96.94.2h89.19V27.32H129.55V40.51h56.59v25.2H129.55V78.9h56.6V106H96.94Z"/><path class="cls-1" d="M191.62.2h53.5C280.39.2,292.85,26.29,292.85,53c0,32.47-17.19,53.06-54.1,53.06H191.62Zm32.6,78.7H237c20.31,0,23.28-16.46,23.28-26.4,0-6.66-2.09-25.18-25.65-25.18H224.22Z"/><path class="cls-1" d="M339.7,65.24l-9.95-16.49-9.7,16.49H296.17L318.84,31.9,297,0H320.9l8.85,15.77L338.85,0h23.89L340.91,31.9l22.68,33.35Z"/></g></g></svg>