<?xml version="1.0" standalone="no"?>
<!DOCTYPE svg PUBLIC "-//W3C//DTD SVG 20010904//EN"
 "http://www.w3.org/TR/2001/REC-SVG-20010904/DTD/svg10.dtd">
<svg version="1.0" xmlns="http://www.w3.org/2000/svg"
 width="900.000000pt" height="351.000000pt" viewBox="0 0 900.000000 351.000000"
 preserveAspectRatio="xMidYMid meet">
<metadata>
Created by potrace 1.16, written by Peter Selinger 2001-2019
</metadata>
<g transform="translate(0.000000,351.000000) scale(0.100000,-0.100000)"
fill="#000000" stroke="none">
<path d="M4109 3003 c37 -60 222 -351 411 -647 l342 -540 -18 -30 c-10 -17
-117 -188 -238 -381 -121 -192 -309 -492 -417 -665 l-198 -315 336 -3 c185 -1
340 1 344 5 20 20 750 1344 761 1380 2 5 -65 124 -149 264 -83 140 -250 430
-371 644 l-219 390 -327 3 -326 2 69 -107z"/>
<path d="M5220 3106 c0 -2 98 -159 218 -348 509 -801 597 -941 595 -948 -1 -4
-192 -312 -423 -685 -232 -372 -424 -683 -427 -691 -4 -12 43 -14 319 -14
l324 0 23 40 c104 186 511 865 518 864 4 -1 57 -88 116 -195 60 -107 169 -303
244 -436 74 -133 140 -249 146 -257 11 -14 51 -16 349 -14 l336 3 -134 215
c-75 118 -175 278 -224 355 -398 632 -503 801 -507 811 -2 7 176 297 397 645
221 348 404 639 407 646 4 11 -54 13 -318 11 l-323 -3 -240 -427 c-133 -234
-244 -429 -247 -432 -3 -3 -113 190 -244 429 l-238 435 -334 0 c-183 0 -333
-2 -333 -4z"/>
<path d="M8007 3068 c-13 -24 -118 -209 -232 -413 -114 -203 -270 -474 -346
-601 -77 -126 -139 -235 -139 -241 0 -21 732 -1356 759 -1386 4 -4 159 -6 345
-5 l337 3 -104 165 c-57 91 -188 300 -292 465 -104 165 -253 403 -332 528
l-144 229 19 31 c10 18 183 291 384 607 201 316 377 594 392 618 l26 42 -324
0 -324 0 -25 -42z"/>
<path d="M362 2239 c-37 -14 -27 -59 17 -74 19 -6 36 -16 38 -22 6 -18 -29
-24 -47 -8 -21 19 -30 19 -30 0 0 -40 93 -44 105 -4 8 26 -9 46 -46 54 -16 4
-29 13 -29 21 0 16 36 19 45 4 9 -15 25 -12 25 5 0 12 -41 38 -53 34 -1 0 -12
-4 -25 -10z"/>
<path d="M503 2223 c-3 -10 -14 -39 -24 -65 -16 -40 -16 -48 -4 -48 7 0 17 5
20 10 3 6 17 10 30 10 13 0 27 -4 30 -10 3 -5 12 -10 20 -10 11 0 9 14 -9 63
-24 63 -50 84 -63 50z m37 -55 c0 -5 -7 -8 -15 -8 -17 0 -18 2 -9 25 5 13 8
14 15 3 5 -7 9 -16 9 -20z"/>
<path d="M580 2230 c0 -5 9 -10 20 -10 18 0 20 -7 20 -55 0 -42 3 -55 15 -55
12 0 15 13 15 55 0 48 2 55 20 55 11 0 20 5 20 10 0 6 -25 10 -55 10 -30 0
-55 -4 -55 -10z"/>
<path d="M710 2180 c0 -48 4 -61 19 -70 55 -29 91 3 91 78 0 39 -4 52 -14 52
-11 0 -16 -15 -18 -52 -3 -46 -6 -53 -25 -56 -22 -3 -23 0 -23 52 0 43 -3 56
-15 56 -12 0 -15 -13 -15 -60z"/>
<path d="M850 2175 c0 -37 4 -65 10 -65 6 0 10 11 10 25 0 20 5 25 24 25 18 0
26 -6 28 -22 2 -12 9 -23 17 -26 10 -3 12 3 9 29 -3 19 0 41 5 51 17 27 -8 48
-59 48 l-44 0 0 -65z m75 25 c0 -23 -49 -20 -53 3 -3 15 2 18 25 15 17 -2 28
-9 28 -18z"/>
<path d="M980 2175 l0 -65 44 0 c51 0 70 17 70 65 0 48 -19 65 -70 65 l-44 0
0 -65z m82 19 c14 -31 1 -57 -31 -62 -19 -3 -21 1 -21 42 0 39 3 46 20 46 12
0 25 -10 32 -26z"/>
<path d="M1153 2223 c-3 -10 -14 -39 -24 -65 -16 -40 -16 -48 -4 -48 7 0 17 5
20 10 3 6 17 10 30 10 13 0 27 -4 30 -10 3 -5 12 -10 19 -10 10 0 8 16 -9 63
-23 63 -49 85 -62 50z m37 -55 c0 -5 -7 -8 -15 -8 -17 0 -18 2 -9 25 5 13 8
14 15 3 5 -7 9 -16 9 -20z"/>
<path d="M1255 2197 c14 -24 25 -53 25 -65 0 -12 5 -22 10 -22 6 0 10 9 10 20
0 12 9 38 20 60 24 47 24 50 5 50 -8 0 -17 -11 -21 -25 -3 -14 -10 -25 -15
-25 -5 0 -11 11 -15 25 -4 16 -13 25 -26 25 -18 0 -17 -3 7 -43z"/>
<path d="M1422 2228 c-15 -15 -16 -38 -2 -38 6 0 13 7 16 15 9 22 34 18 34 -5
0 -11 -13 -29 -30 -42 -44 -32 -39 -48 15 -48 25 0 45 5 45 10 0 6 -12 10 -27
10 l-27 0 27 28 c40 42 31 82 -18 82 -12 0 -26 -5 -33 -12z"/>
<path d="M1521 2221 c-15 -26 5 -40 23 -15 13 17 36 13 36 -7 0 -5 -12 -19
-26 -32 -14 -12 -30 -30 -35 -39 -9 -16 -4 -18 36 -18 25 0 45 5 45 10 0 6
-12 10 -27 10 l-28 0 28 23 c22 17 28 29 25 52 -2 26 -8 30 -35 33 -23 2 -34
-2 -42 -17z"/>
<path d="M1680 2175 c0 -51 3 -65 15 -65 10 0 15 11 16 33 l1 32 9 -32 c5 -18
16 -33 24 -33 8 0 19 15 24 33 l9 32 1 -32 c1 -22 6 -33 16 -33 12 0 15 14 15
66 0 62 -1 65 -22 62 -18 -2 -24 -13 -31 -48 -10 -47 -18 -42 -31 23 -5 18
-13 27 -26 27 -18 0 -20 -7 -20 -65z"/>
<path d="M1856 2188 c-9 -29 -20 -59 -23 -65 -2 -7 2 -13 11 -13 9 0 16 5 16
10 0 6 14 10 30 10 17 0 30 -4 30 -10 0 -5 7 -10 15 -10 20 0 19 8 -6 74 -28
73 -49 74 -73 4z m42 -27 c-15 -5 -21 7 -13 26 7 17 8 17 15 -2 4 -11 3 -22
-2 -24z"/>
<path d="M1970 2200 c11 -21 20 -51 20 -65 0 -16 6 -25 15 -25 8 0 15 9 15 20
0 12 9 38 20 60 24 46 24 50 7 50 -8 0 -19 -12 -26 -27 l-13 -28 -14 28 c-8
15 -21 27 -30 27 -12 0 -11 -7 6 -40z"/>
<path d="M624 1506 c-112 -49 -134 -192 -41 -271 36 -31 47 -35 100 -35 99 0
167 64 167 157 0 73 -69 161 -107 137 -40 -25 -40 -42 0 -75 29 -24 37 -37 37
-64 0 -52 -38 -90 -88 -90 -104 0 -133 128 -46 204 19 17 41 31 49 31 7 0 17
5 20 10 9 15 -54 12 -91 -4z"/>
<path d="M1455 1452 c-24 -18 -33 -51 -27 -102 9 -69 32 -80 32 -16 0 32 5 48
15 52 8 4 15 10 15 15 0 5 -7 9 -15 9 -8 0 -15 5 -15 10 0 6 7 10 15 10 8 0
15 7 15 15 0 16 -18 20 -35 7z"/>
<path d="M1250 1432 c0 -12 -11 -21 -32 -27 -29 -9 -33 -15 -36 -48 -4 -50 11
-67 59 -67 l39 0 0 80 c0 64 -3 80 -15 80 -8 0 -15 -8 -15 -18z m-2 -79 c-4
-47 -34 -59 -44 -19 -7 29 9 56 33 56 10 0 13 -10 11 -37z"/>
<path d="M920 1401 c0 -22 44 -111 55 -111 7 0 22 25 34 56 24 65 24 64 11 64
-6 0 -19 -19 -29 -42 l-17 -42 -17 42 c-15 37 -37 57 -37 33z"/>
<path d="M1056 1388 c-9 -12 -16 -29 -16 -38 0 -51 77 -83 100 -41 36 68 -42
140 -84 79z m68 -21 c14 -22 -4 -52 -30 -52 -14 0 -20 8 -22 29 -5 44 29 59
52 23z"/>
<path d="M1320 1400 c-15 -10 -13 -11 22 -14 25 -2 23 -20 -3 -26 -12 -3 -27
-13 -32 -22 -17 -26 8 -47 54 -46 39 0 39 1 39 40 0 22 -5 48 -10 59 -11 20
-45 25 -70 9z m48 -67 c-4 -22 -38 -30 -38 -10 0 14 13 24 33 26 5 1 7 -7 5
-16z"/>
<path d="M1516 1394 c-18 -18 -21 -56 -6 -85 14 -25 61 -25 83 -1 49 54 -26
137 -77 86z m48 -10 c21 -8 21 -63 1 -70 -33 -13 -59 38 -33 64 14 14 12 14
32 6z"/>
<path d="M1630 1349 c0 -45 3 -59 14 -59 11 0 16 14 18 48 3 39 6 47 23 47 17
0 20 -8 23 -48 2 -32 7 -47 15 -44 16 5 20 57 8 90 -9 23 -15 26 -56 25 l-45
-1 0 -58z"/>
<path d="M1777 1392 c-39 -43 -9 -105 47 -100 36 3 33 22 -3 22 -13 1 -26 7
-28 14 -3 8 8 12 37 12 38 0 41 2 34 23 -15 50 -56 63 -87 29z m53 -17 c11
-13 8 -15 -14 -15 -25 0 -33 10 -19 23 10 11 19 8 33 -8z"/>
</g>
</svg>
