<?xml version="1.0" standalone="no"?>
<!DOCTYPE svg PUBLIC "-//W3C//DTD SVG 20010904//EN"
 "http://www.w3.org/TR/2001/REC-SVG-20010904/DTD/svg10.dtd">
<svg version="1.0" xmlns="http://www.w3.org/2000/svg"
 width="400.000000pt" height="156.000000pt" viewBox="0 0 400.000000 156.000000"
 preserveAspectRatio="xMidYMid meet">
<metadata>
Created by potrace 1.16, written by Peter Selinger 2001-2019
</metadata>
<g transform="translate(0.000000,156.000000) scale(0.100000,-0.100000)"
fill="#000000" stroke="none">
<path d="M1806 1368 c4 -7 85 -136 181 -286 142 -223 171 -276 163 -291 -5
-11 -91 -148 -190 -305 -99 -158 -180 -289 -180 -291 0 -3 67 -5 149 -5 l149
0 142 258 c78 141 155 280 170 308 l28 50 -49 80 c-27 43 -102 172 -166 287
l-117 207 -144 0 c-112 0 -142 -3 -136 -12z"/>
<path d="M2346 1338 c15 -24 97 -152 181 -286 85 -133 153 -248 150 -255 -3
-6 -88 -145 -190 -307 l-184 -295 136 -3 c74 -1 140 -1 146 2 6 2 62 92 125
200 63 107 117 196 120 196 3 -1 54 -90 115 -200 l110 -200 152 0 152 0 -178
282 c-97 156 -185 294 -194 308 -16 25 -14 28 163 308 99 156 180 285 180 288
0 2 -64 4 -142 4 l-143 0 -105 -190 c-58 -104 -107 -190 -110 -190 -3 0 -51
86 -108 190 l-104 190 -149 0 -149 0 26 -42z"/>
<path d="M3556 1358 c-8 -13 -55 -97 -106 -188 -51 -91 -120 -210 -153 -264
l-61 -99 25 -46 c14 -25 90 -164 170 -308 l144 -263 153 0 153 0 -34 53 c-142
222 -352 561 -350 567 1 4 81 131 177 283 97 152 176 279 176 282 0 3 -63 5
-140 5 -134 0 -140 -1 -154 -22z"/>
<path d="M155 990 c-8 -14 3 -30 21 -30 8 0 13 -4 9 -10 -3 -5 -13 -6 -23 -3
-13 4 -14 3 -6 -6 11 -12 44 -5 44 10 0 5 -7 12 -15 15 -8 4 -15 10 -15 15 0
4 7 5 17 2 11 -4 14 -3 9 5 -9 15 -33 16 -41 2z"/>
<path d="M220 974 c-6 -14 -10 -26 -10 -27 0 -1 11 -3 24 -3 22 -2 23 0 14 27
-12 36 -16 36 -28 3z"/>
<path d="M268 988 c5 -7 12 -22 15 -33 4 -15 5 -13 6 8 1 30 21 38 21 8 0 -22
25 -45 40 -36 5 3 9 21 9 38 -2 30 -2 31 -6 5 -5 -31 -23 -38 -23 -9 0 20 -18
31 -52 31 -15 0 -18 -3 -10 -12z"/>
<path d="M380 968 c0 -25 3 -29 10 -18 9 13 11 13 20 0 7 -11 10 -7 10 18 0
25 -4 32 -20 32 -16 0 -20 -7 -20 -32z m30 12 c0 -5 -4 -10 -10 -10 -5 0 -10
5 -10 10 0 6 5 10 10 10 6 0 10 -4 10 -10z"/>
<path d="M440 970 c0 -23 4 -30 20 -30 25 0 36 25 20 45 -21 25 -40 18 -40
-15z m30 0 c0 -11 -4 -20 -10 -20 -5 0 -10 9 -10 20 0 11 5 20 10 20 6 0 10
-9 10 -20z"/>
<path d="M510 981 c-15 -29 -13 -36 14 -37 22 -2 23 0 14 27 -12 34 -14 35
-28 10z"/>
<path d="M550 995 c1 -6 6 -20 13 -32 13 -23 13 -23 24 8 10 24 9 28 -1 20 -9
-7 -16 -7 -24 1 -7 7 -12 8 -12 3z"/>
<path d="M635 989 c-5 -8 -4 -10 3 -5 7 4 12 1 12 -8 0 -9 -4 -16 -10 -16 -5
0 -10 -4 -10 -10 0 -5 7 -10 16 -10 8 0 13 4 9 9 -6 10 35 44 44 36 2 -3 -4
-14 -14 -25 -18 -19 -17 -20 1 -20 14 0 20 8 22 25 2 28 -13 41 -32 26 -9 -7
-16 -7 -23 0 -8 8 -13 7 -18 -2z"/>
<path d="M750 973 c0 -24 4 -28 30 -29 25 -1 30 2 30 22 0 32 -18 40 -29 12
-7 -16 -10 -18 -10 -6 -1 30 -21 31 -21 1z"/>
<path d="M826 978 c-8 -33 -8 -33 18 -34 22 -2 23 0 14 27 -12 35 -24 37 -32
7z"/>
<path d="M870 994 c1 -5 7 -20 14 -33 l13 -24 7 28 c4 15 5 30 1 33 -3 3 -5 0
-5 -8 0 -10 -3 -10 -15 0 -8 7 -15 9 -15 4z"/>
<path d="M250 643 c-25 -32 -20 -69 12 -95 63 -54 149 30 97 96 -15 19 -25 24
-32 17 -7 -7 -5 -17 8 -31 38 -42 -19 -94 -59 -54 -21 21 -20 36 5 68 16 21
17 26 5 26 -8 0 -24 -12 -36 -27z"/>
<path d="M643 638 c-5 -7 -7 -26 -3 -43 6 -29 7 -28 11 13 5 47 5 47 -8 30z"/>
<path d="M560 635 c-2 -5 -3 -18 -4 -27 -1 -10 -5 -17 -11 -15 -5 1 -9 8 -8
16 1 10 -2 10 -10 2 -8 -8 -7 -15 3 -26 22 -21 42 -4 37 31 -2 16 -5 25 -7 19z"/>
<path d="M417 602 c3 -12 9 -25 13 -27 10 -6 25 34 16 42 -3 4 -6 -2 -6 -12 0
-18 -1 -18 -15 1 -13 18 -14 18 -8 -4z"/>
<path d="M464 609 c-3 -6 0 -18 9 -26 8 -9 20 -12 26 -9 13 9 15 46 2 46 -5 0
-7 -10 -4 -21 4 -16 2 -20 -8 -17 -8 3 -13 13 -13 22 2 19 -2 21 -12 5z"/>
<path d="M607 613 c-3 -5 -1 -17 4 -28 7 -17 8 -17 8 8 1 27 -4 34 -12 20z"/>
<path d="M674 595 c1 -28 30 -25 34 3 2 19 1 19 -4 2 -7 -25 -21 -26 -27 -2
-3 13 -4 12 -3 -3z"/>
<path d="M732 600 c0 -14 2 -19 5 -12 2 6 2 18 0 25 -3 6 -5 1 -5 -13z"/>
<path d="M762 595 c0 -16 2 -22 5 -12 2 9 2 23 0 30 -3 6 -5 -1 -5 -18z"/>
<path d="M786 612 c-9 -14 10 -42 28 -42 8 0 8 2 0 8 -7 4 -13 16 -16 27 -2
15 -6 17 -12 7z"/>
<path d="M810 610 c0 -5 5 -10 11 -10 5 0 7 5 4 10 -3 6 -8 10 -11 10 -2 0 -4
-4 -4 -10z"/>
<path d="M580 591 c0 -6 4 -13 10 -16 6 -3 7 1 4 9 -7 18 -14 21 -14 7z"/>
</g>
</svg>
