<?xml version="1.0" standalone="no"?>
<!DOCTYPE svg PUBLIC "-//W3C//DTD SVG 20010904//EN"
 "http://www.w3.org/TR/2001/REC-SVG-20010904/DTD/svg10.dtd">
<svg version="1.0" xmlns="http://www.w3.org/2000/svg"
 width="600.000000pt" height="234.000000pt" viewBox="0 0 600.000000 234.000000"
 preserveAspectRatio="xMidYMid meet">
<metadata>
Created by potrace 1.16, written by Peter Selinger 2001-2019
</metadata>
<g transform="translate(0.000000,234.000000) scale(0.100000,-0.100000)"
fill="#000000" stroke="none">
<path d="M2706 2058 c4 -7 126 -201 271 -430 168 -265 262 -422 257 -430 -11
-18 -544 -868 -562 -895 l-14 -23 228 0 229 0 187 338 c245 442 318 578 318
591 0 6 -33 64 -72 128 -40 65 -150 255 -245 423 l-172 305 -216 3 c-173 2
-215 0 -209 -10z"/>
<path d="M3494 2045 c102 -155 526 -829 526 -836 0 -4 -125 -210 -278 -456
-153 -246 -282 -454 -286 -460 -6 -10 39 -13 211 -13 l218 0 179 306 c122 209
182 301 187 292 5 -7 82 -145 171 -305 l163 -293 229 0 228 0 -15 23 c-125
192 -561 896 -561 907 0 8 112 191 249 405 136 215 257 405 268 423 l19 32
-217 -2 -217 -3 -157 -279 c-87 -153 -161 -279 -166 -280 -5 0 -78 126 -164
282 l-155 282 -224 0 -224 0 16 -25z"/>
<path d="M5205 1808 c-81 -145 -190 -333 -241 -419 -52 -86 -96 -163 -99 -171
-7 -17 58 -140 318 -606 99 -178 185 -326 191 -328 6 -2 109 -3 228 -2 l217 3
-290 462 -291 463 271 426 c149 234 271 428 271 430 0 2 -96 4 -214 4 l-214 0
-147 -262z"/>
<path d="M243 1493 c-23 -9 -15 -42 12 -49 37 -9 31 -28 -6 -20 -27 5 -30 4
-19 -9 16 -19 44 -19 60 0 10 12 10 18 0 30 -7 8 -19 15 -26 15 -8 0 -14 5
-14 11 0 6 9 9 20 6 24 -6 27 8 4 17 -9 3 -16 6 -17 5 -1 0 -8 -3 -14 -6z"/>
<path d="M326 1457 c-19 -51 -20 -65 -4 -49 16 16 45 15 51 0 2 -7 8 -10 12
-6 8 8 -24 98 -35 98 -4 0 -15 -19 -24 -43z m34 -7 c0 -5 -4 -10 -10 -10 -5 0
-10 5 -10 10 0 6 5 10 10 10 6 0 10 -4 10 -10z"/>
<path d="M390 1491 c0 -5 6 -11 14 -14 8 -3 17 -23 19 -44 l4 -38 1 43 c2 30
6 42 17 42 8 0 15 5 15 10 0 6 -16 10 -35 10 -19 0 -35 -4 -35 -9z"/>
<path d="M476 1488 c-20 -43 11 -99 48 -85 12 5 16 18 15 54 l-2 48 -6 -40
c-4 -26 -12 -41 -23 -43 -13 -3 -18 6 -20 40 -3 30 -6 38 -12 26z"/>
<path d="M567 1493 c-11 -10 -8 -81 3 -88 6 -3 10 3 10 14 0 28 28 27 40 -1
10 -26 11 -25 14 22 1 19 -2 41 -7 48 -10 13 -49 17 -60 5z m53 -23 c0 -5 -9
-10 -20 -10 -11 0 -20 5 -20 10 0 6 9 10 20 10 11 0 20 -4 20 -10z"/>
<path d="M657 1493 c-14 -14 -7 -84 9 -90 29 -11 64 14 64 46 0 38 -50 68 -73
44z m48 -43 c0 -16 -6 -26 -17 -28 -14 -3 -18 3 -18 28 0 25 4 31 18 28 11 -2
17 -12 17 -28z"/>
<path d="M759 1454 c-12 -25 -17 -49 -13 -52 3 -4 9 -1 11 6 3 6 12 12 22 12
9 0 23 -6 30 -12 11 -11 12 -8 7 14 -9 40 -25 78 -31 78 -4 0 -15 -21 -26 -46z
m31 -4 c0 -5 -5 -10 -11 -10 -5 0 -7 5 -4 10 3 6 8 10 11 10 2 0 4 -4 4 -10z"/>
<path d="M835 1480 c4 -14 9 -37 12 -52 3 -16 9 -28 13 -28 4 0 10 12 13 28 3
15 8 38 12 52 6 24 6 24 -9 6 -16 -20 -16 -20 -32 0 -15 18 -15 18 -9 -6z"/>
<path d="M1120 1449 c0 -31 4 -48 10 -44 6 3 10 14 11 23 0 15 1 15 8 -1 9
-25 25 -23 33 5 6 22 6 21 7 -4 1 -16 6 -28 12 -28 14 0 7 92 -8 97 -7 3 -16
-10 -21 -29 l-8 -33 -12 33 c-17 48 -32 39 -32 -19z"/>
<path d="M1236 1453 c-9 -25 -13 -49 -10 -52 4 -3 9 0 11 7 3 6 12 12 22 12 9
0 23 -6 30 -12 11 -11 12 -8 7 14 -11 46 -25 78 -35 78 -5 0 -16 -21 -25 -47z
m34 -3 c0 -5 -4 -10 -10 -10 -5 0 -10 5 -10 10 0 6 5 10 10 10 6 0 10 -4 10
-10z"/>
<path d="M1307 1494 c-3 -4 0 -19 8 -35 8 -15 15 -35 15 -44 0 -26 17 -17 23
13 3 15 8 38 12 52 l6 25 -17 -23 -17 -24 -12 22 c-6 11 -14 18 -18 14z"/>
<path d="M945 1479 c-4 -6 -4 -13 0 -17 4 -4 10 -1 12 6 6 17 23 15 23 -3 0
-8 -9 -19 -20 -25 -31 -17 -25 -40 10 -40 17 0 30 5 30 10 0 6 -7 10 -17 10
-15 0 -14 2 2 20 9 10 15 26 12 35 -7 17 -43 20 -52 4z"/>
<path d="M1015 1479 c-4 -6 -4 -13 0 -17 4 -4 10 -1 12 6 6 17 23 15 23 -3 0
-8 -9 -19 -20 -25 -31 -17 -25 -40 10 -40 17 0 30 5 30 10 0 6 -7 10 -17 10
-15 0 -14 2 2 20 9 10 15 26 12 35 -7 17 -43 20 -52 4z"/>
<path d="M384 976 c-69 -69 -26 -175 72 -176 51 0 88 27 104 75 10 30 9 41 -7
72 -24 49 -47 63 -70 41 -16 -16 -15 -19 10 -38 32 -26 35 -62 7 -90 -40 -40
-100 -12 -100 46 0 47 15 73 53 89 l32 14 -33 1 c-26 0 -43 -9 -68 -34z"/>
<path d="M840 955 c0 -8 -9 -15 -20 -15 -28 0 -48 -44 -30 -65 7 -8 23 -15 36
-15 22 0 24 4 24 55 0 30 -2 55 -5 55 -3 0 -5 -7 -5 -15z m-2 -61 c-4 -25 -32
-24 -36 0 -4 21 18 40 31 27 5 -5 7 -17 5 -27z"/>
<path d="M957 952 c-2 -11 -1 -37 3 -58 7 -37 8 -38 9 -7 0 17 7 34 14 36 9 4
9 8 -2 15 -11 8 -10 12 5 21 18 10 18 10 -2 11 -13 0 -24 -8 -27 -18z"/>
<path d="M610 935 c0 -11 34 -75 40 -75 4 0 14 18 23 40 8 22 11 40 6 40 -5 0
-11 -11 -15 -25 -3 -14 -10 -25 -14 -25 -4 0 -11 11 -14 25 -4 14 -11 25 -16
25 -6 0 -10 -2 -10 -5z"/>
<path d="M704 926 c-12 -31 0 -61 25 -61 31 0 50 28 35 53 -14 22 -52 28 -60
8z m44 -32 c-4 -23 -26 -30 -34 -10 -8 20 15 51 29 37 5 -5 7 -17 5 -27z"/>
<path d="M880 931 c0 -6 7 -8 15 -5 8 4 15 1 15 -4 0 -6 -9 -14 -21 -17 -29
-10 -20 -39 14 -43 27 -3 28 -2 25 35 -2 31 -7 39 -25 41 -13 2 -23 -1 -23 -7z
m30 -46 c0 -8 -4 -15 -9 -15 -13 0 -22 16 -14 24 11 11 23 6 23 -9z"/>
<path d="M1010 925 c-20 -24 -4 -65 25 -65 18 0 26 7 31 25 7 27 -9 55 -31 55
-7 0 -18 -7 -25 -15z m39 -41 c-14 -14 -17 -14 -29 0 -10 13 -10 19 0 32 12
14 15 14 29 0 14 -15 14 -17 0 -32z"/>
<path d="M1090 898 c0 -46 18 -51 22 -5 2 17 8 32 13 32 6 0 11 -15 13 -32 4
-40 22 -44 22 -5 0 39 -12 52 -43 50 -24 -2 -27 -6 -27 -40z"/>
<path d="M1180 921 c-15 -29 3 -61 35 -61 14 0 25 4 25 8 0 5 -9 8 -20 8 -26
-1 -26 18 0 22 28 5 22 36 -7 40 -14 2 -26 -4 -33 -17z m35 -1 c3 -5 -1 -10
-10 -10 -9 0 -13 5 -10 10 3 6 8 10 10 10 2 0 7 -4 10 -10z"/>
</g>
</svg>
