<?xml version="1.0" standalone="no"?>
<!DOCTYPE svg PUBLIC "-//W3C//DTD SVG 20010904//EN"
 "http://www.w3.org/TR/2001/REC-SVG-20010904/DTD/svg10.dtd">
<svg version="1.0" xmlns="http://www.w3.org/2000/svg"
 width="1200.000000pt" height="468.000000pt" viewBox="0 0 1200.000000 468.000000"
 preserveAspectRatio="xMidYMid meet">
<metadata>
Created by potrace 1.16, written by Peter Selinger 2001-2019
</metadata>
<g transform="translate(0.000000,468.000000) scale(0.100000,-0.100000)"
fill="#000000" stroke="none">
<path d="M5401 4128 c7 -13 47 -77 89 -143 42 -66 179 -282 305 -480 126 -198
327 -515 448 -705 121 -190 224 -354 229 -366 8 -17 -24 -73 -198 -350 -435
-692 -533 -849 -734 -1169 -113 -181 -210 -336 -214 -342 -6 -10 86 -13 447
-13 l454 0 135 243 c75 133 202 361 283 507 81 146 164 294 185 330 21 36 124
226 229 422 l191 357 -168 278 c-92 153 -253 429 -357 613 -104 184 -252 448
-330 585 l-141 250 -432 3 -433 2 12 -22z"/>
<path d="M6963 4137 c3 -7 69 -114 147 -238 79 -123 260 -408 403 -634 143
-225 323 -508 399 -628 l139 -218 -169 -272 c-623 -1002 -890 -1432 -933
-1499 -27 -42 -49 -79 -49 -82 0 -4 195 -6 433 -6 l434 0 278 472 c153 260
315 535 359 611 62 106 83 134 92 125 6 -7 60 -101 119 -208 266 -480 548
-986 554 -993 4 -4 210 -6 459 -5 l451 3 -38 60 c-21 33 -134 213 -251 400
-321 512 -529 842 -709 1129 -141 223 -162 262 -153 280 5 13 88 146 184 297
96 151 309 486 473 744 164 259 324 511 356 561 33 50 59 96 59 102 0 9 -110
12 -425 12 l-425 0 -20 -32 c-11 -18 -158 -279 -327 -580 -170 -301 -311 -548
-314 -548 -3 0 -41 64 -84 143 -140 254 -406 739 -482 880 l-75 137 -445 0
c-365 0 -444 -2 -440 -13z"/>
<path d="M10672 4083 c-21 -38 -112 -198 -202 -358 -354 -631 -429 -760 -588
-1024 -91 -150 -165 -279 -165 -285 0 -6 25 -56 55 -111 30 -55 97 -179 148
-275 94 -176 224 -412 483 -875 77 -137 176 -315 220 -395 44 -80 89 -157 99
-172 l19 -28 450 0 c247 0 449 2 449 4 0 2 -91 150 -203 327 -510 812 -704
1122 -866 1379 -40 63 -77 123 -82 133 -8 14 24 72 163 290 94 150 233 369
308 487 75 118 243 383 373 588 131 205 237 374 237 377 0 3 -193 5 -430 5
l-429 0 -39 -67z"/>
<path d="M465 2974 c-9 -9 -15 -28 -13 -43 2 -21 12 -29 53 -43 52 -17 70 -42
37 -52 -22 -7 -52 2 -52 15 0 5 -9 9 -21 9 -28 0 -21 -30 12 -49 33 -19 95 -7
110 20 20 39 3 67 -48 81 -30 9 -49 20 -51 31 -4 22 43 24 64 2 19 -19 34 -19
34 -1 0 42 -91 64 -125 30z"/>
<path d="M675 2978 c-2 -7 -16 -45 -30 -84 -30 -86 -30 -84 -5 -84 11 0 20 7
20 15 0 11 11 15 40 15 29 0 40 -4 40 -15 0 -8 9 -15 20 -15 26 0 25 1 -9 96
-22 61 -34 80 -50 82 -12 2 -23 -3 -26 -10z m39 -70 c9 -33 8 -38 -8 -38 -20
0 -29 16 -21 40 8 26 21 25 29 -2z"/>
<path d="M780 2975 c0 -9 9 -15 25 -15 24 0 25 -2 25 -75 0 -68 2 -75 20 -75
18 0 20 7 20 75 0 73 1 75 25 75 16 0 25 6 25 15 0 12 -14 15 -70 15 -56 0
-70 -3 -70 -15z"/>
<path d="M947 2983 c-4 -3 -7 -35 -7 -70 0 -55 4 -68 25 -88 26 -27 54 -31 88
-14 33 18 37 28 37 107 0 65 -2 72 -20 72 -18 0 -20 -7 -20 -74 0 -79 -11 -97
-51 -76 -16 9 -19 22 -19 80 0 52 -3 70 -13 70 -8 0 -17 -3 -20 -7z"/>
<path d="M1130 2900 c0 -72 3 -90 14 -90 9 0 16 12 18 33 3 28 6 32 33 32 25
0 31 -5 35 -30 4 -21 12 -31 26 -33 18 -3 20 1 16 30 -2 18 -9 38 -14 45 -5 7
-5 14 2 18 14 9 13 58 -2 73 -7 7 -38 12 -70 12 l-58 0 0 -90z m105 35 c0 -16
-8 -21 -37 -23 -32 -3 -38 0 -38 16 0 27 10 33 45 30 22 -2 30 -8 30 -23z"/>
<path d="M1310 2900 l0 -90 54 0 c47 0 57 4 75 26 13 16 21 41 21 64 0 23 -8
48 -21 64 -18 22 -28 26 -75 26 l-54 0 0 -90z m98 48 c7 -7 12 -28 12 -48 0
-42 -14 -60 -47 -60 -21 0 -23 4 -23 60 0 56 2 60 23 60 13 0 28 -5 35 -12z"/>
<path d="M1546 2981 c-3 -4 -19 -45 -35 -90 -29 -78 -30 -81 -10 -81 11 0 22
7 25 15 4 9 19 15 40 15 22 0 37 -6 40 -15 4 -8 15 -15 26 -15 12 0 18 5 15
13 -3 6 -17 47 -32 90 -20 59 -31 77 -45 77 -10 0 -21 -4 -24 -9z m37 -81 c3
-13 0 -23 -9 -27 -21 -8 -27 2 -20 32 7 29 21 26 29 -5z"/>
<path d="M1650 2978 c0 -7 12 -31 25 -53 15 -24 25 -55 25 -77 0 -31 4 -38 20
-38 16 0 20 7 20 35 0 20 11 58 25 85 30 59 30 60 6 60 -13 0 -24 -11 -32 -35
-7 -19 -16 -35 -19 -35 -4 0 -14 16 -23 35 -16 34 -47 49 -47 23z"/>
<path d="M1896 2974 c-20 -19 -21 -54 -2 -54 7 0 16 9 19 21 7 27 41 21 45 -8
2 -15 -9 -31 -37 -54 -23 -18 -41 -41 -41 -51 0 -15 9 -18 61 -18 44 0 60 3
57 13 -3 6 -19 14 -37 17 l-32 5 35 34 c41 40 45 62 16 91 -24 24 -63 26 -84
4z"/>
<path d="M2037 2972 c-10 -10 -17 -26 -17 -35 0 -24 27 -21 35 4 8 25 38 21
43 -5 3 -13 -10 -33 -37 -57 -59 -55 -55 -69 20 -69 44 0 60 3 57 13 -3 6 -19
14 -37 17 l-32 5 35 34 c41 40 45 62 16 91 -25 25 -62 26 -83 2z"/>
<path d="M2240 2901 c0 -74 3 -91 15 -91 11 0 15 12 15 45 0 25 4 45 9 45 6 0
13 -20 17 -45 5 -38 10 -45 28 -45 19 0 25 9 38 63 l16 62 1 -62 c1 -56 3 -63
21 -63 20 0 21 5 18 88 l-3 87 -29 0 c-28 0 -30 -3 -44 -63 -7 -35 -16 -62
-18 -60 -2 3 -10 31 -17 64 -12 53 -16 59 -40 62 l-27 3 0 -90z"/>
<path d="M2471 2904 c-17 -47 -31 -87 -31 -90 0 -2 9 -4 20 -4 11 0 20 7 20
15 0 11 11 15 39 15 25 0 41 -5 45 -15 5 -15 36 -22 36 -8 0 4 -12 44 -27 90
-23 71 -30 83 -49 83 -19 0 -27 -13 -53 -86z m60 -27 c-20 -20 -33 6 -20 39
l11 29 10 -28 c7 -20 7 -32 -1 -40z"/>
<path d="M2600 2985 c0 -3 14 -29 30 -58 17 -30 30 -68 30 -85 0 -25 4 -32 20
-32 16 0 20 7 20 35 0 20 11 58 25 85 30 59 30 60 6 60 -11 0 -23 -12 -31 -30
-18 -44 -29 -46 -45 -6 -10 24 -22 36 -35 36 -11 0 -20 -2 -20 -5z"/>
<path d="M849 2016 c-100 -35 -154 -116 -147 -220 11 -183 220 -272 355 -153
98 86 97 257 -1 332 -45 34 -72 32 -96 -7 -11 -18 -20 -36 -20 -40 0 -3 17
-15 37 -25 78 -41 80 -149 4 -200 -40 -27 -71 -29 -114 -8 -133 65 -75 282 82
311 30 6 32 8 16 15 -30 11 -76 10 -116 -5z"/>
<path d="M1670 1910 c0 -27 -3 -30 -30 -30 -44 0 -70 -31 -70 -83 0 -58 21
-77 83 -75 l47 1 0 108 c0 90 -3 109 -15 109 -10 0 -15 -10 -15 -30z m-2 -108
c3 -46 -16 -65 -47 -45 -36 23 -18 97 22 91 18 -2 23 -11 25 -46z"/>
<path d="M1922 1928 c-7 -7 -12 -20 -12 -30 0 -10 -4 -18 -10 -18 -5 0 -10 -7
-10 -15 0 -8 5 -15 10 -15 6 0 10 -28 10 -65 0 -58 2 -65 20 -65 18 0 20 7 20
65 0 51 3 65 15 65 8 0 15 7 15 15 0 8 -7 15 -15 15 -22 0 -18 21 5 27 11 3
20 12 20 19 0 17 -51 19 -68 2z"/>
<path d="M1220 1875 c0 -3 14 -39 31 -80 41 -97 57 -98 92 -7 31 77 33 92 12
92 -8 0 -22 -21 -32 -50 -10 -27 -21 -50 -24 -50 -3 0 -16 23 -27 50 -12 30
-27 50 -36 50 -9 0 -16 -2 -16 -5z"/>
<path d="M1411 1854 c-23 -30 -27 -64 -10 -97 16 -30 28 -37 65 -37 42 0 69
31 69 82 0 73 -81 106 -124 52z m77 -16 c7 -7 12 -24 12 -38 0 -50 -52 -69
-71 -27 -22 48 24 100 59 65z"/>
<path d="M1763 1873 c-28 -11 -12 -30 23 -29 47 1 56 -20 12 -29 -43 -9 -58
-22 -58 -50 0 -33 20 -44 73 -43 l47 1 0 63 c0 44 -5 67 -16 78 -15 15 -55 20
-81 9z m63 -108 c-7 -19 -47 -17 -54 3 -5 15 39 33 52 22 5 -5 6 -16 2 -25z"/>
<path d="M2020 1860 c-24 -24 -27 -86 -4 -118 11 -16 25 -22 54 -22 47 0 70
27 70 82 0 47 -28 78 -70 78 -17 0 -39 -9 -50 -20z m80 -31 c24 -44 -10 -96
-47 -73 -36 22 -22 94 17 94 11 0 24 -9 30 -21z"/>
<path d="M2180 1798 c0 -63 3 -78 15 -78 11 0 15 13 15 54 0 60 19 88 48 69
12 -7 18 -27 20 -67 2 -41 7 -56 17 -56 20 0 21 132 2 148 -7 6 -36 10 -65 10
l-52 -1 0 -79z"/>
<path d="M2377 1868 c-38 -30 -43 -92 -9 -130 15 -17 91 -26 105 -12 15 15 -6
30 -37 26 -27 -3 -37 1 -45 17 -11 20 -9 21 45 21 l56 0 -7 28 c-14 56 -67 80
-108 50z m68 -38 c0 -9 -11 -16 -27 -18 -27 -3 -38 14 -21 32 12 12 48 2 48
-14z"/>
</g>
</svg>
