<svg xmlns="http://www.w3.org/2000/svg" xmlns:xlink="http://www.w3.org/1999/xlink" viewBox="0 0 1568.52 1738.41"><defs><style>.cls-1{fill:none;}.cls-2{fill:#fff;}.cls-3{fill:#090909;}.cls-4{clip-path:url(#clip-path);}.cls-5{fill:#e60000;}.cls-6{fill:#e62b1e;}</style><clipPath id="clip-path"><rect class="cls-1" x="1116.91" y="1592.14" width="439.21" height="116.27"/></clipPath></defs><title>Artboard 1 copy 2</title><g id="Artboard_1" data-name="Artboard 1"><g id="Hope-2" data-name="Hope"><g id="Rectangle_1" data-name="Rectangle 1"><rect x="7.74" y="12.7" width="1548.39" height="1548.39"/></g><g id="O"><circle class="cls-2" cx="1169.03" cy="399.79" r="387.1"/></g><g id="line_in_O" data-name="line in O"><rect class="cls-3" x="1153.55" y="51.41" width="30.97" height="696.77"/></g><g id="Vert_line_in_H" data-name="Vert line in H"><rect class="cls-2" x="394.84" width="30.97" height="801.29"/></g><g id="Hor_line_in_H" data-name="Hor line in H"><rect x="342.97" y="368.83" width="92.9" height="61.94"/></g><g id="P"><path class="cls-2" d="M410.32,788.81q-7.79,0-15.48.38v-.38H0V1563H394.84V1407.78q7.7.38,15.48.38c171,0,309.68-138.65,309.68-309.68S581.35,788.81,410.32,788.81Z"/></g><g id="bottom_line_in_E" data-name="bottom line in E"><rect class="cls-2" x="1153.55" y="1271.23" width="414.97" height="30.97"/></g><g id="top_line_in_E" data-name="top line in E"><rect class="cls-2" x="1153.55" y="1008.77" width="414.97" height="30.97"/></g></g><g id="Vodafone_Logo-2" data-name="Vodafone Logo"><g id="Vodafone_logo_linked" data-name="Vodafone logo linked"><g class="cls-4"><g class="cls-4"><path class="cls-5" d="M1227.9,1650.28a52.85,52.85,0,1,1-52.85-52.85,52.85,52.85,0,0,1,52.85,52.85"/><path class="cls-2" d="M1175.47,1679.75c-14.52,0-29.63-12.35-29.69-32.25,0-13.16,7-25.83,16.13-33.34,8.85-7.33,21-12,32-12.07a13,13,0,0,1,3.8.42,22,22,0,0,0-17.24,21.1,4.62,4.62,0,0,0,.07.86c16.09,3.92,23.4,13.63,23.44,27.06a28.28,28.28,0,0,1-28.49,28.22"/><polygon class="cls-5" points="1262.03 1672.17 1245.87 1633.61 1256.43 1633.61 1266.51 1659.21 1276.27 1633.61 1286.36 1633.61 1270.67 1672.17 1262.03 1672.17"/><path class="cls-5" d="M1324.24,1652.73a24.34,24.34,0,0,1-1.16,7.4,20.26,20.26,0,0,1-3.44,6.52,17,17,0,0,1-5.76,4.64,19.61,19.61,0,0,1-16.24,0,17,17,0,0,1-5.76-4.64,20.26,20.26,0,0,1-3.44-6.52,24,24,0,0,1-1.16-7.4,23.64,23.64,0,0,1,1.16-7.36,19.87,19.87,0,0,1,3.44-6.44,16.79,16.79,0,0,1,5.76-4.56,18.08,18.08,0,0,1,8.12-1.72,17.82,17.82,0,0,1,8.08,1.72,17.37,17.37,0,0,1,5.76,4.56,19.41,19.41,0,0,1,3.48,6.44,23.94,23.94,0,0,1,1.16,7.36m-9.76,0a18.42,18.42,0,0,0-.56-4.58,11,11,0,0,0-1.68-3.73,8.72,8.72,0,0,0-2.72-2.49,8.14,8.14,0,0,0-7.52,0,8.61,8.61,0,0,0-2.72,2.49,11,11,0,0,0-1.68,3.73,19.17,19.17,0,0,0,0,9.2,12.18,12.18,0,0,0,1.64,3.73,8,8,0,0,0,2.72,2.53,7.66,7.66,0,0,0,3.8.92,7.46,7.46,0,0,0,3.76-.92,8.5,8.5,0,0,0,2.72-2.53,11.56,11.56,0,0,0,1.68-3.73,18.28,18.28,0,0,0,.56-4.62"/><path class="cls-5" d="M1354.84,1672.17l-.4-3a12.47,12.47,0,0,1-3.59,2.68,11.3,11.3,0,0,1-5.26,1.16,14.24,14.24,0,0,1-7-1.68,15.9,15.9,0,0,1-5.11-4.48,20.57,20.57,0,0,1-3.15-6.48,27.46,27.46,0,0,1-1.07-7.68,24.82,24.82,0,0,1,1.11-7.36,19.57,19.57,0,0,1,3.39-6.44,17,17,0,0,1,5.71-4.56,17.69,17.69,0,0,1,8-1.72,21.77,21.77,0,0,1,6.54,1.11v-15H1364v53.36Zm-.8-30.08a14.65,14.65,0,0,0-5.33-1.12,9.32,9.32,0,0,0-4.38,1,8.56,8.56,0,0,0-3,2.61,12,12,0,0,0-1.8,3.69,15.31,15.31,0,0,0-.59,4.22,20,20,0,0,0,.52,4.62,11.82,11.82,0,0,0,1.59,3.85,8.53,8.53,0,0,0,2.7,2.65,7.23,7.23,0,0,0,3.86,1,8,8,0,0,0,3.74-1,6.49,6.49,0,0,0,2.71-2.37Z"/><path class="cls-5" d="M1392.69,1672.13l-.4-2.87a11,11,0,0,1-4.1,2.78,14.42,14.42,0,0,1-5.46,1,13.69,13.69,0,0,1-4.77-.84,12.65,12.65,0,0,1-4.06-2.4,11.75,11.75,0,0,1-2.85-3.84,11.91,11.91,0,0,1-1.08-5.16,11,11,0,0,1,1.12-5.08,11.13,11.13,0,0,1,3.05-3.72,17.08,17.08,0,0,1,4.42-2.48,27.91,27.91,0,0,1,5.22-1.44,34.93,34.93,0,0,1,4.21-.6c1.53-.13,2.8-.25,3.82-.36v-.56q0-3.19-1.65-4.56a6.91,6.91,0,0,0-4.54-1.36,12.52,12.52,0,0,0-3.22.4,14.26,14.26,0,0,0-2.73,1,20.26,20.26,0,0,0-2.13,1.2,13.65,13.65,0,0,0-1.49,1.08l-3.28-7a14.22,14.22,0,0,1,2-1.36,22.82,22.82,0,0,1,3.2-1.56,26.3,26.3,0,0,1,4.24-1.28,23.31,23.31,0,0,1,5.08-.52,19.21,19.21,0,0,1,5.84.84,11.8,11.8,0,0,1,4.56,2.64,12.14,12.14,0,0,1,3,4.55,18.32,18.32,0,0,1,1.08,6.67v24.78Zm-.8-18c-1.07.05-2.17.15-3.3.28s-2.2.31-3.22.52a7.4,7.4,0,0,0-4.47,2.2,5.28,5.28,0,0,0-1.25,3.4,3.78,3.78,0,0,0,1.41,3.08,6.13,6.13,0,0,0,4,1.16,9.26,9.26,0,0,0,3.75-.8,11,11,0,0,0,3.1-2Z"/><path class="cls-5" d="M1432.38,1627.61a14.81,14.81,0,0,0-1.88-.68,12.52,12.52,0,0,0-3.72-.44,5,5,0,0,0-3.48,1.24,5.15,5.15,0,0,0-1.4,4v1.84h8.32v8H1422v30.56h-9.92v-30.56h-5.12v-8h5.12v-2.08a18.43,18.43,0,0,1,1-6.36,10.9,10.9,0,0,1,2.68-4.24,10.36,10.36,0,0,1,4-2.4,16,16,0,0,1,5-.76,21.67,21.67,0,0,1,6,.68,18.36,18.36,0,0,1,2.76.92Z"/><path class="cls-5" d="M1469.18,1652.73a24,24,0,0,1-1.16,7.4,20.26,20.26,0,0,1-3.44,6.52,17,17,0,0,1-5.76,4.64,19.61,19.61,0,0,1-16.24,0,17,17,0,0,1-5.76-4.64,20.26,20.26,0,0,1-3.44-6.52,24.34,24.34,0,0,1-1.16-7.4,23.94,23.94,0,0,1,1.16-7.36,19.87,19.87,0,0,1,3.44-6.44,16.79,16.79,0,0,1,5.76-4.56,18.08,18.08,0,0,1,8.12-1.72,17.79,17.79,0,0,1,8.08,1.72,17.17,17.17,0,0,1,5.76,4.56,19.41,19.41,0,0,1,3.48,6.44,23.64,23.64,0,0,1,1.16,7.36m-9.76,0a18,18,0,0,0-.56-4.58,11,11,0,0,0-1.68-3.73,8.72,8.72,0,0,0-2.72-2.49,8.14,8.14,0,0,0-7.52,0,8.72,8.72,0,0,0-2.72,2.49,11,11,0,0,0-1.68,3.73,19.17,19.17,0,0,0,0,9.2,12.18,12.18,0,0,0,1.64,3.73,8,8,0,0,0,2.72,2.53,7.66,7.66,0,0,0,3.8.92,7.43,7.43,0,0,0,3.76-.92,8.5,8.5,0,0,0,2.72-2.53,11.56,11.56,0,0,0,1.68-3.73,17.84,17.84,0,0,0,.56-4.62"/><path class="cls-5" d="M1500,1672.17v-22a11,11,0,0,0-1.84-6.8,6.1,6.1,0,0,0-5.12-2.4,8,8,0,0,0-4.28,1.2,18.16,18.16,0,0,0-3.4,2.64v27.36h-9.92v-38.56h9l.48,3a17,17,0,0,1,5.24-3,17.44,17.44,0,0,1,5.88-1,16.57,16.57,0,0,1,5.6.92,11,11,0,0,1,4.4,2.92,13.63,13.63,0,0,1,2.84,5.2,26.12,26.12,0,0,1,1,7.68v22.8Z"/><path class="cls-5" d="M1525.8,1655.37c.22,3.25,1.23,5.6,3,7a11.06,11.06,0,0,0,7.07,2.16,19,19,0,0,0,3.78-.36,17.91,17.91,0,0,0,3.13-.92,19,19,0,0,0,2.33-1.12,7.09,7.09,0,0,0,1.44-1l2.64,8.08a17.32,17.32,0,0,1-1.8,1.08,18.14,18.14,0,0,1-3.08,1.28,31.86,31.86,0,0,1-9.76,1.48,21.4,21.4,0,0,1-7.16-1.2,16,16,0,0,1-6-3.72,18.17,18.17,0,0,1-4.08-6.28,23.93,23.93,0,0,1-1.52-9,24.77,24.77,0,0,1,1.4-8.64,18.16,18.16,0,0,1,3.84-6.32,16.73,16.73,0,0,1,5.68-3.92,17.65,17.65,0,0,1,6.92-1.36,18.76,18.76,0,0,1,6.8,1.2,14,14,0,0,1,5.4,3.72,17.94,17.94,0,0,1,3.6,6.52,30.52,30.52,0,0,1,1.32,9.52v1.76Zm15-7.12a10.22,10.22,0,0,0-.84-3.48,7.41,7.41,0,0,0-1.69-2.4,6.65,6.65,0,0,0-4.55-1.8,7.61,7.61,0,0,0-4.9,1.92,8.19,8.19,0,0,0-2.74,5.76Z"/></g></g></g></g><g id="Text-2" data-name="Text"><path d="M22.73,1634.56h8.85L44.82,1672H36.34l-2.47-7.7H20.09l-2.54,7.7H9.37Zm-.51,23.28H31.8l-4.72-14.72Z"/><path d="M57.3,1660.43a7.6,7.6,0,0,0,1.43,3.84q1.94,2.31,6.66,2.31A14.27,14.27,0,0,0,70,1666q3.34-1.17,3.34-4.34a3.2,3.2,0,0,0-1.63-2.87,17.69,17.69,0,0,0-5.2-1.75l-4-.89c-4-.88-6.72-1.84-8.21-2.87q-3.78-2.6-3.78-8.1a10.73,10.73,0,0,1,3.7-8.35q3.7-3.33,10.87-3.33a16.63,16.63,0,0,1,10.22,3.14q4.23,3.14,4.43,9.1H72.16a5.37,5.37,0,0,0-3-4.8,10.32,10.32,0,0,0-4.66-.94,8.89,8.89,0,0,0-5,1.22,3.85,3.85,0,0,0-1.85,3.4,3.21,3.21,0,0,0,1.83,3,22.91,22.91,0,0,0,5,1.55l6.57,1.54a16.88,16.88,0,0,1,6.47,2.72,9.16,9.16,0,0,1,3.34,7.64,10.75,10.75,0,0,1-4,8.52q-4,3.39-11.2,3.39-7.39,0-11.63-3.34a11,11,0,0,1-4.23-9.18Z"/><path d="M116.34,1638.55a9.47,9.47,0,0,1,1.72,5.71,8.36,8.36,0,0,1-1.73,5.51,8.92,8.92,0,0,1-2.86,2.13,8.45,8.45,0,0,1,4.33,3.3,9.94,9.94,0,0,1,1.45,5.49,11,11,0,0,1-1.66,6,10.32,10.32,0,0,1-6.88,4.82,25.88,25.88,0,0,1-5.29.51H88.56v-37.43h18.08Q113.49,1634.67,116.34,1638.55ZM96,1641.06v8.25h9.1a7.48,7.48,0,0,0,3.95-.92,3.53,3.53,0,0,0,1.52-3.29,3.33,3.33,0,0,0-2-3.45,14,14,0,0,0-4.42-.59Zm0,14.45v10h9.09a8.86,8.86,0,0,0,3.79-.66c1.64-.82,2.46-2.37,2.46-4.67a4,4,0,0,0-2.39-4,9.6,9.6,0,0,0-3.74-.63Z"/><path d="M149.68,1634.56l4.94,21.43,1.08,6,1.08-5.84,4.22-21.56h8.26L173.7,1656l1.14,6,1.16-5.74,5-21.66h8L178.42,1672h-7.49l-4.52-21.89-1.32-7.24-1.32,7.24L159.25,1672H152l-10.61-37.43Z"/><path d="M204.22,1655.15a11.67,11.67,0,0,0,2.89-.63,2.18,2.18,0,0,0,1.56-2.06,2.46,2.46,0,0,0-1.19-2.35,7.62,7.62,0,0,0-3.52-.64,4.6,4.6,0,0,0-3.68,1.27,5.23,5.23,0,0,0-1,2.53h-7a10.53,10.53,0,0,1,2-6q2.88-3.66,9.89-3.66a17.64,17.64,0,0,1,8.11,1.8c2.37,1.21,3.55,3.47,3.55,6.81V1665c0,.88,0,2,0,3.2a4,4,0,0,0,.43,1.93,2.58,2.58,0,0,0,1.07.84V1672h-7.87a7.86,7.86,0,0,1-.46-1.58c-.09-.49-.15-1.05-.2-1.67a15.44,15.44,0,0,1-3.48,2.77,10.53,10.53,0,0,1-5.31,1.34,9.15,9.15,0,0,1-6.24-2.14,7.64,7.64,0,0,1-2.47-6.09q0-5.1,4-7.38a17.57,17.57,0,0,1,6.39-1.78Zm4.43,3.38a8,8,0,0,1-1.41.7,11.47,11.47,0,0,1-1.94.49l-1.65.31a10.75,10.75,0,0,0-3.32,1,3.3,3.3,0,0,0-1.71,3.07,3.22,3.22,0,0,0,1,2.68,4,4,0,0,0,2.54.82,7.52,7.52,0,0,0,4.37-1.37c1.33-.91,2-2.58,2.08-5Z"/><path d="M221.42,1649.72v-5.15h3.86v-7.72h7.16v7.72h4.49v5.15h-4.49v14.62a3.31,3.31,0,0,0,.43,2.13,4.88,4.88,0,0,0,2.64.41h.7l.72,0v5.41l-3.43.13c-3.42.12-5.75-.48-7-1.78a5.3,5.3,0,0,1-1.21-3.83v-17Z"/><path d="M261.69,1644.87a11.22,11.22,0,0,1,4.78,4.1,13.54,13.54,0,0,1,2.21,5.72,36.65,36.65,0,0,1,.24,5.49H248.76c.11,2.78,1.08,4.72,2.89,5.84a7.32,7.32,0,0,0,4,1,6.11,6.11,0,0,0,4-1.27,6,6,0,0,0,1.49-1.9h7.39a9.08,9.08,0,0,1-2.68,5q-3.72,4-10.41,4a15.07,15.07,0,0,1-9.75-3.41q-4.23-3.4-4.23-11.08,0-7.18,3.82-11a13.32,13.32,0,0,1,9.89-3.83A15.83,15.83,0,0,1,261.69,1644.87Zm-10.82,6.25a7.5,7.5,0,0,0-1.93,4.29h12.47a6.11,6.11,0,0,0-1.93-4.38,6.38,6.38,0,0,0-4.29-1.49A5.75,5.75,0,0,0,250.87,1651.12Z"/><path d="M290,1643.66c.09,0,.3,0,.62,0v7.42c-.45,0-.86-.09-1.22-.11l-.86,0c-2.91,0-4.87,1-5.86,2.84a11.06,11.06,0,0,0-.84,4.93V1672h-7.29v-27.68h6.91v4.83a15.14,15.14,0,0,1,2.92-3.79,8,8,0,0,1,5.28-1.7Z"/><path d="M308.42,1634.22l1.53.11v5.89c-.41,0-1.09-.09-2.05-.11a2.38,2.38,0,0,0-2,.63,2.34,2.34,0,0,0-.54,1.49v2.34h4.75v5.1h-4.75V1672h-7.19v-22.32h-4.06v-5.1h4v-1.78q0-4.44,1.5-6.12,1.57-2.49,7.59-2.49C307.64,1634.18,308.05,1634.19,308.42,1634.22Z"/><path d="M331.74,1643.66c.1,0,.3,0,.63,0v7.42c-.46,0-.87-.09-1.22-.11l-.87,0q-4.36,0-5.86,2.84a11.06,11.06,0,0,0-.84,4.93V1672h-7.29v-27.68h6.91v4.83a15.38,15.38,0,0,1,2.92-3.79,8,8,0,0,1,5.28-1.7Z"/><path d="M361.77,1668.6q-3.51,4.34-10.64,4.33t-10.64-4.33a17.15,17.15,0,0,1,0-20.79q3.5-4.38,10.64-4.39t10.64,4.39a17.19,17.19,0,0,1,0,20.79Zm-5.79-4a12.92,12.92,0,0,0,0-12.81,6.43,6.43,0,0,0-9.77,0,12.85,12.85,0,0,0,0,12.81,6.41,6.41,0,0,0,9.77,0Z"/><path d="M394.85,1645.9q2.72,2.25,2.71,7.45V1672h-7.41v-16.84a7.69,7.69,0,0,0-.58-3.35q-1.06-2.13-4-2.13a5,5,0,0,0-5,3.12,10.84,10.84,0,0,0-.7,4.22v15h-7.24v-27.63h7v4a12,12,0,0,1,2.63-3.07,9.08,9.08,0,0,1,5.64-1.68A10.63,10.63,0,0,1,394.85,1645.9Z"/><path d="M403.53,1649.72v-5.15h3.86v-7.72h7.16v7.72H419v5.15h-4.49v14.62a3.31,3.31,0,0,0,.43,2.13,4.88,4.88,0,0,0,2.64.41h.7l.72,0v5.41l-3.42.13c-3.42.12-5.76-.48-7-1.78a5.3,5.3,0,0,1-1.22-3.83v-17Z"/><path d="M470.07,1634.56v6.63H458.88V1672H451v-30.8H439.76v-6.63Z"/><path d="M496,1644.47a8.13,8.13,0,0,1,3.43,2.71,7.41,7.41,0,0,1,1.39,3.19,41.22,41.22,0,0,1,.25,5.35V1672h-7.39v-16.86a7.41,7.41,0,0,0-.76-3.61,3.79,3.79,0,0,0-3.73-1.93,5.12,5.12,0,0,0-4.32,1.92,8.87,8.87,0,0,0-1.47,5.48v15h-7.24v-37.3h7.24v13.2a8.77,8.77,0,0,1,3.62-3.36,10.17,10.17,0,0,1,4.34-1A11.6,11.6,0,0,1,496,1644.47Z"/><path d="M528,1644.87a11.28,11.28,0,0,1,4.78,4.1,13.67,13.67,0,0,1,2.21,5.72,35.6,35.6,0,0,1,.23,5.49H515.09c.11,2.78,1.07,4.72,2.89,5.84a7.32,7.32,0,0,0,4,1,6.11,6.11,0,0,0,4-1.27,6,6,0,0,0,1.49-1.9h7.39a9,9,0,0,1-2.69,5c-2.47,2.69-5.95,4-10.41,4a15.11,15.11,0,0,1-9.75-3.41q-4.22-3.4-4.22-11.08,0-7.18,3.81-11a13.33,13.33,0,0,1,9.9-3.83A15.83,15.83,0,0,1,528,1644.87Zm-10.83,6.25a7.56,7.56,0,0,0-1.92,4.29h12.46a6,6,0,0,0-1.93-4.38,6.35,6.35,0,0,0-4.29-1.49A5.78,5.78,0,0,0,517.19,1651.12Z"/><path d="M552,1655.15a11.79,11.79,0,0,0,2.89-.63,2.18,2.18,0,0,0,1.56-2.06,2.44,2.44,0,0,0-1.2-2.35,7.6,7.6,0,0,0-3.51-.64,4.59,4.59,0,0,0-3.68,1.27,5.14,5.14,0,0,0-1,2.53h-7a10.68,10.68,0,0,1,2-6q2.88-3.66,9.9-3.66a17.7,17.7,0,0,1,8.11,1.8c2.36,1.21,3.54,3.47,3.54,6.81V1665c0,.88,0,2,0,3.2a4.1,4.1,0,0,0,.43,1.93,2.64,2.64,0,0,0,1.07.84V1672h-7.87a8.58,8.58,0,0,1-.46-1.58c-.08-.49-.15-1.05-.2-1.67a15.38,15.38,0,0,1-3.47,2.77,10.59,10.59,0,0,1-5.32,1.34,9.15,9.15,0,0,1-6.24-2.14,7.66,7.66,0,0,1-2.46-6.09q0-5.1,4-7.38a17.57,17.57,0,0,1,6.39-1.78Zm4.42,3.38a8,8,0,0,1-1.4.7,11.37,11.37,0,0,1-2,.49l-1.64.31a10.74,10.74,0,0,0-3.33,1,3.3,3.3,0,0,0-1.71,3.07,3.2,3.2,0,0,0,1,2.68,4,4,0,0,0,2.54.82,7.54,7.54,0,0,0,4.37-1.37q2-1.37,2.07-5Z"/><path d="M569.14,1649.72v-5.15H573v-7.72h7.16v7.72h4.49v5.15h-4.49v14.62a3.31,3.31,0,0,0,.43,2.13,4.88,4.88,0,0,0,2.64.41h.7l.72,0v5.41l-3.42.13c-3.42.12-5.76-.48-7-1.78a5.3,5.3,0,0,1-1.22-3.83v-17Z"/><path d="M606.75,1643.66c.1,0,.3,0,.63,0v7.42c-.46,0-.87-.09-1.22-.11l-.87,0q-4.37,0-5.86,2.84a11.06,11.06,0,0,0-.84,4.93V1672H591.3v-27.68h6.91v4.83a15.38,15.38,0,0,1,2.92-3.79,8,8,0,0,1,5.28-1.7Z"/><path d="M631.73,1644.87a11.22,11.22,0,0,1,4.78,4.1,13.54,13.54,0,0,1,2.21,5.72,36.65,36.65,0,0,1,.24,5.49H618.8c.11,2.78,1.08,4.72,2.89,5.84a7.32,7.32,0,0,0,4,1,6.11,6.11,0,0,0,4-1.27,6,6,0,0,0,1.49-1.9h7.39a9.08,9.08,0,0,1-2.68,5q-3.72,4-10.42,4a15.06,15.06,0,0,1-9.74-3.41q-4.23-3.4-4.23-11.08,0-7.18,3.82-11a13.32,13.32,0,0,1,9.89-3.83A15.83,15.83,0,0,1,631.73,1644.87Zm-10.82,6.25a7.5,7.5,0,0,0-1.93,4.29h12.46a6.07,6.07,0,0,0-1.92-4.38,6.39,6.39,0,0,0-4.3-1.49A5.74,5.74,0,0,0,620.91,1651.12Z"/><path d="M669.51,1633.42h6L661,1672h-6Z"/><path d="M694.51,1646.6v-4.93a30.55,30.55,0,0,0,4.78-.46,6.68,6.68,0,0,0,3.55-1.93,7.4,7.4,0,0,0,1.7-4.11h6V1672h-7.41V1646.6Z"/><path d="M741,1644.44a3.69,3.69,0,0,0-.69-2,4,4,0,0,0-3.52-1.72c-2.36,0-4,1.32-5,4a24.41,24.41,0,0,0-1.12,6.45,8.14,8.14,0,0,1,3.12-2.34,11.41,11.41,0,0,1,12.1,2.59,11.91,11.91,0,0,1,3.14,8.51,14.43,14.43,0,0,1-3.07,9.09q-3.07,3.93-9.55,3.93a11,11,0,0,1-10.26-5.81q-2.57-4.55-2.56-11.73a53,53,0,0,1,.35-6.86,21.06,21.06,0,0,1,2.46-7.82,12.57,12.57,0,0,1,4.13-4.29,11.16,11.16,0,0,1,6.11-1.62,12.08,12.08,0,0,1,8.17,2.62,10,10,0,0,1,3.43,7Zm-8.58,20.74a5.07,5.07,0,0,0,4.06,1.88,4.52,4.52,0,0,0,3.8-1.81,7.57,7.57,0,0,0,1.38-4.71,7,7,0,0,0-1.57-4.94,5.06,5.06,0,0,0-3.86-1.72,5.19,5.19,0,0,0-3.28,1.12q-2.13,1.65-2.13,5.33A7.2,7.2,0,0,0,732.39,1665.18Z"/><path d="M756.15,1664.4h7.69V1672h-7.69Z"/><path d="M773,1646.6v-4.93a30.72,30.72,0,0,0,4.79-.46,6.75,6.75,0,0,0,3.55-1.93,6.39,6.39,0,0,0,1.41-2.64,5.88,5.88,0,0,0,.28-1.47h6.05V1672h-7.42V1646.6Z"/><path d="M801.19,1646.6v-4.93a30.72,30.72,0,0,0,4.79-.46,6.68,6.68,0,0,0,3.54-1.93,6.29,6.29,0,0,0,1.42-2.64,5.88,5.88,0,0,0,.28-1.47h6V1672h-7.41V1646.6Z"/><path d="M831.83,1664.4h7.7V1672h-7.7Z"/><path d="M848.72,1646.6v-4.93a30.55,30.55,0,0,0,4.78-.46,6.68,6.68,0,0,0,3.55-1.93,7.4,7.4,0,0,0,1.7-4.11h6V1672h-7.41V1646.6Z"/><path d="M881.08,1638.54a11.53,11.53,0,0,1,8.87-3.67q8.4,0,11.53,7.44a29,29,0,0,1,1.77,11.09,31.47,31.47,0,0,1-1.7,11.15q-3.24,8.51-11.93,8.5a12.13,12.13,0,0,1-7.44-2.45,9.63,9.63,0,0,1-3.78-7.14h7.21a4.35,4.35,0,0,0,1.37,2.64,4.26,4.26,0,0,0,3,1c2.39,0,4.06-1.32,5-4a23.43,23.43,0,0,0,1-6.37,7.87,7.87,0,0,1-2.11,1.9,9.48,9.48,0,0,1-5,1.22,11.4,11.4,0,0,1-7.8-3q-3.4-3-3.4-8.75A13.48,13.48,0,0,1,881.08,1638.54Zm12.17,14.61q2.46-1.58,2.46-5.46a7.68,7.68,0,0,0-1.46-5,4.83,4.83,0,0,0-4-1.83,5,5,0,0,0-3.17,1q-2.08,1.62-2.08,5.51a7.65,7.65,0,0,0,1.33,4.91,5,5,0,0,0,4.1,1.64A5.1,5.1,0,0,0,893.25,1653.15Z"/><g id="Tumanako"><path class="cls-6" d="M71.18,1089.87H64.83v-15h6.35v-12.52H89.3v12.52h9.38v15H89.3v17.3c0,2.76,1.2,3.95,4.23,3.95h5.25v15.37H91c-11.41,0-19.78-4.79-19.78-19.6Z"/><path class="cls-6" d="M163.54,1126.49H145.42v-7.36c-2.95,4.41-8.37,7.82-15.64,7.82-12,0-19.41-8.47-19.41-22.08v-30h17.94v27.69c0,6,3.4,9.47,8.55,9.47s8.56-3.49,8.56-9.47v-27.69h18.12Z"/><path class="cls-6" d="M247.81,1098.8c0-5.62-3.4-8.74-8.55-8.74s-8.56,3.12-8.56,8.74v27.69h-18V1098.8c0-5.62-3.31-8.74-8.46-8.74-5.34,0-8.65,3.12-8.65,8.74v27.69h-18v-51.61h18v6.8c2.94-4.14,8-7.26,15-7.26,7.73,0,13.8,3.49,17.21,9.47a20.7,20.7,0,0,1,17.2-9.47c13.06,0,20.88,8.46,20.88,22v30.09h-18Z"/><path class="cls-6" d="M298.41,1074.23c7.36,0,12.51,3.22,15.18,7.82v-7.17h18v51.61h-18v-7.18c-2.67,4.6-7.91,7.82-15.18,7.82-12.23,0-22-10-22-26.5S286.18,1074.23,298.41,1074.23Zm5.8,15.73c-5.15,0-9.39,3.68-9.39,10.67s4.24,10.77,9.39,10.77,9.38-3.77,9.38-10.77S309.27,1090,304.21,1090Z"/><path class="cls-6" d="M380.75,1098.8c0-6-3.31-9.48-8.46-9.48-5.34,0-8.65,3.5-8.65,9.48v27.69h-18v-51.61h18v7.36a18.61,18.61,0,0,1,15.73-7.82c12,0,19.41,8.46,19.41,22v30.09h-18Z"/><path class="cls-6" d="M431.44,1074.23c7.36,0,12.51,3.22,15.18,7.82v-7.17h18v51.61h-18v-7.18c-2.67,4.6-7.91,7.82-15.18,7.82-12.23,0-22-10-22-26.5S419.21,1074.23,431.44,1074.23Zm5.8,15.73c-5.15,0-9.38,3.68-9.38,10.67s4.23,10.77,9.38,10.77,9.38-3.77,9.38-10.77S442.3,1090,437.24,1090Z"/><path class="cls-6" d="M478.64,1058.41h18v36.71l14.26-20.24h21.62l-20.33,25.94,20.7,25.67h-22l-14.26-21.16v21.16h-18Z"/><path class="cls-6" d="M565.85,1127.13c-15.36,0-27-10-27-26.5s11.68-26.4,27-26.4,27,10,27,26.4S581.22,1127.13,565.85,1127.13Zm0-15.64c4.6,0,8.83-3.4,8.83-10.86s-4.14-10.76-8.74-10.76-8.64,3.41-8.64,10.76S561.16,1111.49,565.85,1111.49Z"/><g id="u_line" data-name="u line"><rect class="cls-6" x="117.69" y="1057.19" width="38.79" height="7.74"/></g></g></g></g></svg>