<svg xmlns="http://www.w3.org/2000/svg" xmlns:xlink="http://www.w3.org/1999/xlink" viewBox="0 0 1568.52 1738.41"><defs><style>.cls-1{fill:none;}.cls-2{mask:url(#mask);}.cls-3{isolation:isolate;}.cls-4{clip-path:url(#clip-path);}.cls-5{fill:#e60000;}.cls-6{fill:#fff;}.cls-7{fill:#020202;}.cls-8{fill:#e62b1e;}</style><mask id="mask" x="2034.13" y="-1289.56" width="2322.58" height="2322.58" maskUnits="userSpaceOnUse"/><clipPath id="clip-path"><rect class="cls-1" x="1116.91" y="1622.14" width="439.21" height="116.27"/></clipPath></defs><title>Artboard 2 outlines</title><g id="TEDxAkl_RGB_on_White_Image" data-name="TEDxAkl RGB on White Image"><g id="Vodafone_logo_linked" data-name="Vodafone logo linked"><g class="cls-4"><g class="cls-4"><path class="cls-5" d="M1227.9,1680.28a52.85,52.85,0,1,1-52.85-52.85,52.85,52.85,0,0,1,52.85,52.85"/><path class="cls-6" d="M1175.47,1709.75c-14.52,0-29.63-12.35-29.69-32.25,0-13.16,7-25.83,16.13-33.34,8.85-7.33,21-12,32-12.07a13,13,0,0,1,3.8.42,22,22,0,0,0-17.24,21.1,4.62,4.62,0,0,0,.07.86c16.09,3.92,23.4,13.63,23.44,27.06a28.28,28.28,0,0,1-28.49,28.22"/><polygon class="cls-5" points="1262.03 1702.17 1245.87 1663.61 1256.43 1663.61 1266.51 1689.21 1276.27 1663.61 1286.36 1663.61 1270.67 1702.17 1262.03 1702.17"/><path class="cls-5" d="M1324.24,1682.73a24.34,24.34,0,0,1-1.16,7.4,20.26,20.26,0,0,1-3.44,6.52,17,17,0,0,1-5.76,4.64,19.61,19.61,0,0,1-16.24,0,17,17,0,0,1-5.76-4.64,20.26,20.26,0,0,1-3.44-6.52,24,24,0,0,1-1.16-7.4,23.64,23.64,0,0,1,1.16-7.36,19.87,19.87,0,0,1,3.44-6.44,16.79,16.79,0,0,1,5.76-4.56,18.08,18.08,0,0,1,8.12-1.72,17.82,17.82,0,0,1,8.08,1.72,17.37,17.37,0,0,1,5.76,4.56,19.41,19.41,0,0,1,3.48,6.44,23.94,23.94,0,0,1,1.16,7.36m-9.76,0a18.42,18.42,0,0,0-.56-4.58,11,11,0,0,0-1.68-3.73,8.72,8.72,0,0,0-2.72-2.49,8.14,8.14,0,0,0-7.52,0,8.61,8.61,0,0,0-2.72,2.49,11,11,0,0,0-1.68,3.73,19.17,19.17,0,0,0,0,9.2,12.18,12.18,0,0,0,1.64,3.73,8,8,0,0,0,2.72,2.53,7.66,7.66,0,0,0,3.8.92,7.46,7.46,0,0,0,3.76-.92,8.5,8.5,0,0,0,2.72-2.53,11.56,11.56,0,0,0,1.68-3.73,18.28,18.28,0,0,0,.56-4.62"/><path class="cls-5" d="M1354.84,1702.17l-.4-3a12.47,12.47,0,0,1-3.59,2.68,11.3,11.3,0,0,1-5.26,1.16,14.24,14.24,0,0,1-7-1.68,15.9,15.9,0,0,1-5.11-4.48,20.57,20.57,0,0,1-3.15-6.48,27.46,27.46,0,0,1-1.07-7.68,24.82,24.82,0,0,1,1.11-7.36,19.57,19.57,0,0,1,3.39-6.44,17,17,0,0,1,5.71-4.56,17.69,17.69,0,0,1,8-1.72,21.77,21.77,0,0,1,6.54,1.11v-15H1364v53.36Zm-.8-30.08a14.65,14.65,0,0,0-5.33-1.12,9.32,9.32,0,0,0-4.38,1,8.56,8.56,0,0,0-3,2.61,12,12,0,0,0-1.8,3.69,15.31,15.31,0,0,0-.59,4.22,20,20,0,0,0,.52,4.62,11.82,11.82,0,0,0,1.59,3.85,8.53,8.53,0,0,0,2.7,2.65,7.23,7.23,0,0,0,3.86,1,8,8,0,0,0,3.74-1,6.49,6.49,0,0,0,2.71-2.37Z"/><path class="cls-5" d="M1392.69,1702.13l-.4-2.87a11,11,0,0,1-4.1,2.78,14.42,14.42,0,0,1-5.46,1,13.69,13.69,0,0,1-4.77-.84,12.65,12.65,0,0,1-4.06-2.4,11.75,11.75,0,0,1-2.85-3.84,11.91,11.91,0,0,1-1.08-5.16,11,11,0,0,1,1.12-5.08,11.13,11.13,0,0,1,3.05-3.72,17.08,17.08,0,0,1,4.42-2.48,27.91,27.91,0,0,1,5.22-1.44,34.93,34.93,0,0,1,4.21-.6c1.53-.13,2.8-.25,3.82-.36v-.56q0-3.19-1.65-4.56a6.91,6.91,0,0,0-4.54-1.36,12.52,12.52,0,0,0-3.22.4,14.26,14.26,0,0,0-2.73,1,20.26,20.26,0,0,0-2.13,1.2,13.65,13.65,0,0,0-1.49,1.08l-3.28-7a14.22,14.22,0,0,1,2-1.36,22.82,22.82,0,0,1,3.2-1.56,26.3,26.3,0,0,1,4.24-1.28,23.31,23.31,0,0,1,5.08-.52,19.21,19.21,0,0,1,5.84.84,11.8,11.8,0,0,1,4.56,2.64,12.14,12.14,0,0,1,3,4.55,18.32,18.32,0,0,1,1.08,6.67v24.78Zm-.8-18c-1.07.05-2.17.15-3.3.28s-2.2.31-3.22.52a7.4,7.4,0,0,0-4.47,2.2,5.28,5.28,0,0,0-1.25,3.4,3.78,3.78,0,0,0,1.41,3.08,6.13,6.13,0,0,0,4,1.16,9.26,9.26,0,0,0,3.75-.8,11,11,0,0,0,3.1-2Z"/><path class="cls-5" d="M1432.38,1657.61a14.81,14.81,0,0,0-1.88-.68,12.52,12.52,0,0,0-3.72-.44,5,5,0,0,0-3.48,1.24,5.15,5.15,0,0,0-1.4,4v1.84h8.32v8H1422v30.56h-9.92v-30.56h-5.12v-8h5.12v-2.08a18.43,18.43,0,0,1,1-6.36,10.9,10.9,0,0,1,2.68-4.24,10.36,10.36,0,0,1,4-2.4,16,16,0,0,1,5-.76,21.67,21.67,0,0,1,6,.68,18.36,18.36,0,0,1,2.76.92Z"/><path class="cls-5" d="M1469.18,1682.73a24,24,0,0,1-1.16,7.4,20.26,20.26,0,0,1-3.44,6.52,17,17,0,0,1-5.76,4.64,19.61,19.61,0,0,1-16.24,0,17,17,0,0,1-5.76-4.64,20.26,20.26,0,0,1-3.44-6.52,24.34,24.34,0,0,1-1.16-7.4,23.94,23.94,0,0,1,1.16-7.36,19.87,19.87,0,0,1,3.44-6.44,16.79,16.79,0,0,1,5.76-4.56,18.08,18.08,0,0,1,8.12-1.72,17.79,17.79,0,0,1,8.08,1.72,17.17,17.17,0,0,1,5.76,4.56,19.41,19.41,0,0,1,3.48,6.44,23.64,23.64,0,0,1,1.16,7.36m-9.76,0a18,18,0,0,0-.56-4.58,11,11,0,0,0-1.68-3.73,8.72,8.72,0,0,0-2.72-2.49,8.14,8.14,0,0,0-7.52,0,8.72,8.72,0,0,0-2.72,2.49,11,11,0,0,0-1.68,3.73,19.17,19.17,0,0,0,0,9.2,12.18,12.18,0,0,0,1.64,3.73,8,8,0,0,0,2.72,2.53,7.66,7.66,0,0,0,3.8.92,7.43,7.43,0,0,0,3.76-.92,8.5,8.5,0,0,0,2.72-2.53,11.56,11.56,0,0,0,1.68-3.73,17.84,17.84,0,0,0,.56-4.62"/><path class="cls-5" d="M1500,1702.17v-22a11,11,0,0,0-1.84-6.8,6.1,6.1,0,0,0-5.12-2.4,8,8,0,0,0-4.28,1.2,18.16,18.16,0,0,0-3.4,2.64v27.36h-9.92v-38.56h9l.48,3a17,17,0,0,1,5.24-3,17.44,17.44,0,0,1,5.88-1,16.57,16.57,0,0,1,5.6.92,11,11,0,0,1,4.4,2.92,13.63,13.63,0,0,1,2.84,5.2,26.12,26.12,0,0,1,1,7.68v22.8Z"/><path class="cls-5" d="M1525.8,1685.37c.22,3.25,1.23,5.6,3,7a11.06,11.06,0,0,0,7.07,2.16,19,19,0,0,0,3.78-.36,17.91,17.91,0,0,0,3.13-.92,19,19,0,0,0,2.33-1.12,7.09,7.09,0,0,0,1.44-1l2.64,8.08a17.32,17.32,0,0,1-1.8,1.08,18.14,18.14,0,0,1-3.08,1.28,31.86,31.86,0,0,1-9.76,1.48,21.4,21.4,0,0,1-7.16-1.2,16,16,0,0,1-6-3.72,18.17,18.17,0,0,1-4.08-6.28,23.93,23.93,0,0,1-1.52-9,24.77,24.77,0,0,1,1.4-8.64,18.16,18.16,0,0,1,3.84-6.32,16.73,16.73,0,0,1,5.68-3.92,17.65,17.65,0,0,1,6.92-1.36,18.76,18.76,0,0,1,6.8,1.2,14,14,0,0,1,5.4,3.72,17.94,17.94,0,0,1,3.6,6.52,30.52,30.52,0,0,1,1.32,9.52v1.76Zm15-7.12a10.22,10.22,0,0,0-.84-3.48,7.41,7.41,0,0,0-1.69-2.4,6.65,6.65,0,0,0-4.55-1.8,7.61,7.61,0,0,0-4.9,1.92,8.19,8.19,0,0,0-2.74,5.76Z"/></g></g></g><g id="Rectangle_1-2" data-name="Rectangle 1"><rect x="7.74" y="12.7" width="1548.39" height="1548.39"/></g><g id="O-2" data-name="O"><circle class="cls-6" cx="1169.03" cy="399.79" r="387.1"/></g><g id="line_in_O-2" data-name="line in O"><rect class="cls-7" x="1153.55" y="51.41" width="30.97" height="696.77"/></g><g id="Vert_line_in_H-2" data-name="Vert line in H"><rect class="cls-6" x="394.84" width="30.97" height="801.29"/></g><g id="Hor_line_in_H-2" data-name="Hor line in H"><rect x="342.97" y="368.83" width="92.9" height="61.94"/></g><g id="P-2" data-name="P"><path class="cls-6" d="M410.32,788.81q-7.79,0-15.48.38v-.38H0V1563H394.84V1407.78q7.7.38,15.48.38c171,0,309.68-138.65,309.68-309.68S581.35,788.81,410.32,788.81Z"/></g><g id="bottom_line_in_E-2" data-name="bottom line in E"><rect class="cls-6" x="1153.55" y="1271.23" width="414.97" height="30.97"/></g><g id="top_line_in_E-2" data-name="top line in E"><rect class="cls-6" x="1153.55" y="1008.77" width="414.97" height="30.97"/></g><path class="cls-8" d="M71.18,1089.87H64.83v-15h6.35v-12.52H89.3v12.52h9.38v15H89.3v17.3c0,2.76,1.2,3.95,4.23,3.95h5.24v15.37H91c-11.41,0-19.78-4.79-19.78-19.6Z"/><path class="cls-8" d="M163.54,1126.49H145.42v-7.36c-2.95,4.41-8.37,7.82-15.64,7.82-12,0-19.41-8.47-19.41-22.08v-30h17.94v27.69c0,6,3.4,9.47,8.55,9.47s8.56-3.49,8.56-9.47v-27.69h18.12Z"/><path class="cls-8" d="M247.81,1098.79c0-5.61-3.4-8.73-8.55-8.73s-8.56,3.12-8.56,8.73v27.7h-18v-27.7c0-5.61-3.31-8.73-8.46-8.73-5.34,0-8.65,3.12-8.65,8.73v27.7h-18v-51.61h18v6.8c2.94-4.14,8-7.26,15-7.26,7.73,0,13.8,3.49,17.21,9.47a20.7,20.7,0,0,1,17.2-9.47c13.06,0,20.88,8.46,20.88,22v30.09h-18Z"/><path class="cls-8" d="M298.41,1074.23c7.36,0,12.51,3.22,15.18,7.82v-7.17h18v51.61h-18v-7.18c-2.67,4.6-7.91,7.82-15.18,7.82-12.23,0-22-10-22-26.5S286.18,1074.23,298.41,1074.23Zm5.8,15.73c-5.15,0-9.39,3.68-9.39,10.67s4.24,10.77,9.39,10.77,9.38-3.77,9.38-10.77S309.27,1090,304.21,1090Z"/><path class="cls-8" d="M380.75,1098.79c0-6-3.31-9.47-8.46-9.47-5.34,0-8.65,3.5-8.65,9.47v27.7h-18v-51.61h18v7.36a18.61,18.61,0,0,1,15.73-7.82c12,0,19.41,8.46,19.41,22v30.09h-18Z"/><path class="cls-8" d="M431.44,1074.23c7.36,0,12.51,3.22,15.18,7.82v-7.17h18v51.61h-18v-7.18c-2.67,4.6-7.91,7.82-15.18,7.82-12.23,0-22-10-22-26.5S419.21,1074.23,431.44,1074.23Zm5.8,15.73c-5.15,0-9.39,3.68-9.39,10.67s4.24,10.77,9.39,10.77,9.38-3.77,9.38-10.77S442.3,1090,437.24,1090Z"/><path class="cls-8" d="M478.64,1058.41h18v36.71l14.26-20.24h21.62l-20.33,25.94,20.7,25.67h-22l-14.26-21.16v21.16h-18Z"/><path class="cls-8" d="M565.85,1127.13c-15.36,0-27-10-27-26.5s11.68-26.4,27-26.4,27,10,27,26.4S581.22,1127.13,565.85,1127.13Zm0-15.64c4.6,0,8.83-3.4,8.83-10.86s-4.14-10.76-8.74-10.76-8.64,3.41-8.64,10.76S561.16,1111.49,565.85,1111.49Z"/><g id="u_line" data-name="u line"><rect class="cls-8" x="117.69" y="1057.19" width="38.79" height="7.74"/></g><path d="M17.12,1664.56,22.06,1686l1.08,6,1.08-5.84,4.23-21.56H36.7L41.15,1686l1.13,6,1.16-5.74,5-21.66h8L45.86,1702H38.37l-4.52-21.89-1.32-7.24-1.32,7.24L26.69,1702H19.43L8.82,1664.56Z"/><path d="M71.67,1685.15a11.57,11.57,0,0,0,2.88-.63,2.18,2.18,0,0,0,1.57-2.06,2.43,2.43,0,0,0-1.2-2.35,7.6,7.6,0,0,0-3.51-.64,4.63,4.63,0,0,0-3.69,1.27,5.23,5.23,0,0,0-1,2.53h-7a10.68,10.68,0,0,1,2-6q2.88-3.66,9.9-3.66a17.7,17.7,0,0,1,8.11,1.8c2.36,1.21,3.54,3.47,3.54,6.81V1695c0,.88,0,2,0,3.2a4.1,4.1,0,0,0,.43,1.93,2.64,2.64,0,0,0,1.07.84V1702H77a8.58,8.58,0,0,1-.46-1.58c-.08-.49-.15-1.05-.2-1.67a15.07,15.07,0,0,1-3.47,2.76,10.49,10.49,0,0,1-5.32,1.35,9.15,9.15,0,0,1-6.24-2.14,7.67,7.67,0,0,1-2.47-6.09c0-3.4,1.33-5.86,4-7.38a17.57,17.57,0,0,1,6.39-1.78Zm4.42,3.38a8,8,0,0,1-1.4.7,11.37,11.37,0,0,1-2,.49l-1.64.31a10.74,10.74,0,0,0-3.33,1,3.3,3.3,0,0,0-1.71,3.07,3.22,3.22,0,0,0,1,2.68,4,4,0,0,0,2.54.82,7.49,7.49,0,0,0,4.37-1.37q2-1.37,2.08-5Z"/><path d="M88.86,1679.72v-5.15h3.86v-7.72h7.16v7.72h4.49v5.15H99.88v14.62c0,1.14.14,1.85.43,2.12s1.17.42,2.64.42h.7l.72,0v5.41l-3.42.13c-3.42.12-5.76-.48-7-1.78a5.3,5.3,0,0,1-1.22-3.83v-17Z"/><path d="M129.13,1674.87a11.31,11.31,0,0,1,4.79,4.1,13.53,13.53,0,0,1,2.2,5.72,34.13,34.13,0,0,1,.24,5.49H116.2c.12,2.78,1.08,4.72,2.9,5.84a7.36,7.36,0,0,0,4,1,6.08,6.08,0,0,0,4-1.27,6,6,0,0,0,1.49-1.9H136a9,9,0,0,1-2.68,5q-3.72,4-10.41,4a15.07,15.07,0,0,1-9.75-3.41q-4.23-3.4-4.22-11.08,0-7.18,3.81-11a13.33,13.33,0,0,1,9.9-3.83A15.81,15.81,0,0,1,129.13,1674.87Zm-10.82,6.25a7.56,7.56,0,0,0-1.93,4.29h12.47a6.07,6.07,0,0,0-1.93-4.38,6.35,6.35,0,0,0-4.29-1.49A5.75,5.75,0,0,0,118.31,1681.12Z"/><path d="M157.47,1673.66c.1,0,.3,0,.63,0v7.42c-.46,0-.87-.09-1.22-.11l-.87,0q-4.37,0-5.86,2.84a11.06,11.06,0,0,0-.84,4.93V1702H142v-27.68h6.91v4.83a15.38,15.38,0,0,1,2.92-3.79,8,8,0,0,1,5.28-1.7Z"/><path d="M175.87,1664.22l1.52.11v5.89c-.41,0-1.09-.09-2-.11a2.35,2.35,0,0,0-2,.63,2.29,2.29,0,0,0-.55,1.49v2.34h4.75v5.1h-4.75V1702h-7.19v-22.32h-4.06v-5.1h4v-1.78q0-4.44,1.5-6.12,1.58-2.49,7.59-2.49C175.08,1664.18,175.49,1664.19,175.87,1664.22Z"/><path d="M199.19,1673.66c.09,0,.3,0,.62,0v7.42c-.46,0-.86-.09-1.22-.11l-.86,0c-2.92,0-4.87,1-5.87,2.84a11.06,11.06,0,0,0-.84,4.93V1702h-7.28v-27.68h6.9v4.83a15.38,15.38,0,0,1,2.92-3.79,8,8,0,0,1,5.28-1.7Z"/><path d="M229.21,1698.6q-3.51,4.34-10.64,4.33t-10.64-4.33a17.19,17.19,0,0,1,0-20.79q3.51-4.38,10.64-4.39t10.64,4.39a17.19,17.19,0,0,1,0,20.79Zm-5.79-4a12.92,12.92,0,0,0,0-12.81,6.42,6.42,0,0,0-9.76,0,12.79,12.79,0,0,0,0,12.81,6.4,6.4,0,0,0,9.76,0Z"/><path d="M262.29,1675.9q2.71,2.25,2.72,7.45V1702h-7.42v-16.84a7.69,7.69,0,0,0-.58-3.35c-.7-1.42-2-2.13-4-2.13a5,5,0,0,0-5,3.12,10.64,10.64,0,0,0-.71,4.22v15H240v-27.63h7v4a12.15,12.15,0,0,1,2.63-3.07,9.08,9.08,0,0,1,5.64-1.68A10.59,10.59,0,0,1,262.29,1675.9Z"/><path d="M271,1679.72v-5.15h3.86v-7.72H282v7.72h4.5v5.15H282v14.62c0,1.14.14,1.85.43,2.12s1.17.42,2.64.42h.7l.73,0v5.41l-3.43.13c-3.42.12-5.76-.48-7-1.78a5.3,5.3,0,0,1-1.22-3.83v-17Z"/><path d="M337.52,1664.56v6.63h-11.2V1702h-7.87v-30.8H307.2v-6.63Z"/><path d="M363.47,1674.46a8.17,8.17,0,0,1,3.43,2.72,7.29,7.29,0,0,1,1.39,3.19,39.47,39.47,0,0,1,.25,5.35V1702h-7.39v-16.86a7.54,7.54,0,0,0-.75-3.61,3.81,3.81,0,0,0-3.73-1.93,5.14,5.14,0,0,0-4.33,1.92,8.87,8.87,0,0,0-1.47,5.48v15h-7.24v-37.3h7.24v13.2a8.85,8.85,0,0,1,3.63-3.36,10.12,10.12,0,0,1,4.33-1A11.74,11.74,0,0,1,363.47,1674.46Z"/><path d="M395.46,1674.87a11.22,11.22,0,0,1,4.78,4.1,13.54,13.54,0,0,1,2.21,5.72,36.65,36.65,0,0,1,.24,5.49H382.53c.11,2.78,1.08,4.72,2.9,5.84a7.35,7.35,0,0,0,4,1,5.63,5.63,0,0,0,5.51-3.17h7.39a9,9,0,0,1-2.68,5q-3.72,4-10.41,4a15.07,15.07,0,0,1-9.75-3.41q-4.23-3.4-4.23-11.08,0-7.18,3.82-11a13.32,13.32,0,0,1,9.89-3.83A15.83,15.83,0,0,1,395.46,1674.87Zm-10.82,6.25a7.5,7.5,0,0,0-1.93,4.29h12.47a6.11,6.11,0,0,0-1.93-4.38,6.38,6.38,0,0,0-4.29-1.49A5.75,5.75,0,0,0,384.64,1681.12Z"/><path d="M419.39,1685.15a11.67,11.67,0,0,0,2.89-.63,2.18,2.18,0,0,0,1.56-2.06,2.43,2.43,0,0,0-1.2-2.35,7.6,7.6,0,0,0-3.51-.64,4.6,4.6,0,0,0-3.68,1.27,5.14,5.14,0,0,0-1,2.53h-7a10.53,10.53,0,0,1,2-6q2.88-3.66,9.89-3.66a17.67,17.67,0,0,1,8.11,1.8c2.36,1.21,3.54,3.47,3.54,6.81V1695c0,.88,0,2,.06,3.2a4,4,0,0,0,.43,1.93,2.54,2.54,0,0,0,1.06.84V1702H424.7a7.79,7.79,0,0,1-.45-1.58c-.09-.49-.16-1.05-.21-1.67a14.86,14.86,0,0,1-3.47,2.76,10.48,10.48,0,0,1-5.31,1.35,9.19,9.19,0,0,1-6.25-2.14,7.66,7.66,0,0,1-2.46-6.09q0-5.1,4-7.38a17.57,17.57,0,0,1,6.4-1.78Zm4.42,3.38a8,8,0,0,1-1.4.7,11.47,11.47,0,0,1-1.94.49l-1.65.31a10.92,10.92,0,0,0-3.33,1,3.3,3.3,0,0,0-1.71,3.07,3.2,3.2,0,0,0,1.05,2.68,4,4,0,0,0,2.54.82,7.52,7.52,0,0,0,4.37-1.37q2-1.37,2.07-5Z"/><path d="M436.58,1679.72v-5.15h3.86v-7.72h7.16v7.72h4.5v5.15h-4.5v14.62a3.32,3.32,0,0,0,.43,2.12c.29.28,1.17.42,2.65.42h.69l.73,0v5.41l-3.43.13c-3.42.12-5.76-.48-7-1.78a5.3,5.3,0,0,1-1.22-3.83v-17Z"/><path d="M474.2,1673.66c.09,0,.3,0,.62,0v7.42c-.46,0-.86-.09-1.22-.11l-.86,0q-4.37,0-5.87,2.84a11.06,11.06,0,0,0-.84,4.93V1702h-7.28v-27.68h6.9v4.83a15.38,15.38,0,0,1,2.92-3.79,8,8,0,0,1,5.28-1.7Z"/><path d="M499.17,1674.87A11.31,11.31,0,0,1,504,1679a13.53,13.53,0,0,1,2.2,5.72,34.13,34.13,0,0,1,.24,5.49H486.24c.12,2.78,1.08,4.72,2.9,5.84a7.36,7.36,0,0,0,4,1,6.08,6.08,0,0,0,4-1.27,6,6,0,0,0,1.49-1.9H506a9,9,0,0,1-2.68,5q-3.72,4-10.41,4a15.07,15.07,0,0,1-9.75-3.41q-4.23-3.4-4.22-11.08,0-7.18,3.81-11a13.33,13.33,0,0,1,9.9-3.83A15.81,15.81,0,0,1,499.17,1674.87Zm-10.82,6.25a7.56,7.56,0,0,0-1.93,4.29h12.47A6.07,6.07,0,0,0,497,1681a6.35,6.35,0,0,0-4.29-1.49A5.75,5.75,0,0,0,488.35,1681.12Z"/><path d="M537,1663.42h6L528.4,1702h-6Z"/><path d="M565.88,1668.47a15.4,15.4,0,0,1,11.5-4.62q9.35,0,13.67,6.2a13.51,13.51,0,0,1,2.56,7h-7.82a10.6,10.6,0,0,0-1.91-4.06c-1.4-1.63-3.46-2.44-6.2-2.44a7.62,7.62,0,0,0-6.59,3.44q-2.42,3.43-2.41,9.74c0,4.19.85,7.34,2.54,9.43a8,8,0,0,0,6.47,3.13,7.32,7.32,0,0,0,6.14-2.69,11.84,11.84,0,0,0,1.94-4.34h7.77a16.86,16.86,0,0,1-5.14,10,14.94,14.94,0,0,1-10.59,3.84q-8,0-12.56-5.18t-4.57-14.27Q560.68,1673.77,565.88,1668.47Z"/><path d="M629.85,1668.55a9.47,9.47,0,0,1,1.72,5.71,8.36,8.36,0,0,1-1.73,5.51,8.92,8.92,0,0,1-2.86,2.13,8.38,8.38,0,0,1,4.32,3.3,9.86,9.86,0,0,1,1.46,5.49,11,11,0,0,1-1.66,6,10.32,10.32,0,0,1-6.88,4.82,25.88,25.88,0,0,1-5.29.51H602.06v-37.43h18.09Q627,1664.67,629.85,1668.55Zm-20.32,2.51v8.25h9.1a7.57,7.57,0,0,0,4-.92,3.53,3.53,0,0,0,1.52-3.29,3.34,3.34,0,0,0-2-3.45,14,14,0,0,0-4.42-.59Zm0,14.45v10h9.09a8.86,8.86,0,0,0,3.79-.66c1.64-.82,2.46-2.37,2.46-4.67a4,4,0,0,0-2.39-4,9.64,9.64,0,0,0-3.74-.63Z"/><path d="M663.5,1665.37a12.42,12.42,0,0,1,6.38,4.75,16.85,16.85,0,0,1,2.67,6,29.35,29.35,0,0,1,.71,6.2,24.82,24.82,0,0,1-3,12.64q-4.07,7-12.55,7H641.57v-37.43h16.14A20.15,20.15,0,0,1,663.5,1665.37Zm-14.34,5.69v24.43h7.22q5.55,0,7.74-5.46a19.41,19.41,0,0,0,1.19-7.14q0-5.72-1.79-8.77c-1.2-2-3.57-3.06-7.14-3.06Z"/><path d="M705.43,1663.42h6L696.88,1702h-6Z"/><path d="M730.43,1676.6v-4.93a30.86,30.86,0,0,0,4.79-.46,6.68,6.68,0,0,0,3.54-1.93,6.29,6.29,0,0,0,1.42-2.64,5.88,5.88,0,0,0,.28-1.47h6V1702h-7.41V1676.6Z"/><path d="M776.89,1674.44a3.76,3.76,0,0,0-.68-2,4,4,0,0,0-3.53-1.72c-2.36,0-4,1.32-5,4a24.83,24.83,0,0,0-1.12,6.45,8.09,8.09,0,0,1,3.13-2.34,11.41,11.41,0,0,1,12.1,2.59,12,12,0,0,1,3.13,8.51,14.37,14.37,0,0,1-3.07,9.09q-3.08,3.93-9.55,3.93a11,11,0,0,1-10.26-5.81q-2.57-4.55-2.56-11.73a54.88,54.88,0,0,1,.35-6.86,21.06,21.06,0,0,1,2.47-7.82,12.54,12.54,0,0,1,4.12-4.29,11.16,11.16,0,0,1,6.11-1.62,12.12,12.12,0,0,1,8.18,2.62,10,10,0,0,1,3.42,7Zm-8.58,20.74a5.08,5.08,0,0,0,4.06,1.88,4.51,4.51,0,0,0,3.8-1.81,7.57,7.57,0,0,0,1.38-4.71,7,7,0,0,0-1.57-4.94,5.06,5.06,0,0,0-3.86-1.72,5.19,5.19,0,0,0-3.28,1.12q-2.13,1.65-2.13,5.33A7.2,7.2,0,0,0,768.31,1695.18Z"/><path d="M792.07,1694.4h7.7V1702h-7.7Z"/><path d="M809,1676.6v-4.93a30.55,30.55,0,0,0,4.78-.46,6.71,6.71,0,0,0,3.55-1.93,7.4,7.4,0,0,0,1.7-4.11h6V1702h-7.42V1676.6Z"/><path d="M837.11,1676.6v-4.93a30.72,30.72,0,0,0,4.79-.46,6.68,6.68,0,0,0,3.54-1.93,6.29,6.29,0,0,0,1.42-2.64,5.88,5.88,0,0,0,.28-1.47h6V1702h-7.41V1676.6Z"/><path d="M867.76,1694.4h7.69V1702h-7.69Z"/><path d="M884.64,1676.6v-4.93a30.86,30.86,0,0,0,4.79-.46,6.68,6.68,0,0,0,3.54-1.93,6.29,6.29,0,0,0,1.42-2.64,5.88,5.88,0,0,0,.28-1.47h6V1702H893.3V1676.6Z"/><path d="M917,1668.54a11.53,11.53,0,0,1,8.87-3.67q8.4,0,11.53,7.44a29,29,0,0,1,1.78,11.09,31.7,31.7,0,0,1-1.7,11.15q-3.26,8.51-11.94,8.5a12.13,12.13,0,0,1-7.44-2.45,9.63,9.63,0,0,1-3.78-7.14h7.21a4.4,4.4,0,0,0,1.37,2.64,4.29,4.29,0,0,0,3,1c2.39,0,4.06-1.32,5-4a23.43,23.43,0,0,0,1-6.37,7.72,7.72,0,0,1-2.11,1.9,9.48,9.48,0,0,1-5,1.22,11.35,11.35,0,0,1-7.79-3q-3.4-3-3.41-8.75A13.48,13.48,0,0,1,917,1668.54Zm12.17,14.61c1.64-1.05,2.47-2.87,2.47-5.46a7.74,7.74,0,0,0-1.46-5,4.85,4.85,0,0,0-4-1.83,5,5,0,0,0-3.18,1c-1.38,1.08-2.08,2.92-2.08,5.51a7.71,7.71,0,0,0,1.33,4.91,5,5,0,0,0,4.1,1.64A5.1,5.1,0,0,0,929.17,1683.15Z"/></g></svg>