<svg xmlns="http://www.w3.org/2000/svg" xmlns:xlink="http://www.w3.org/1999/xlink" viewBox="0 0 3200 1600"><defs><style>.cls-1{fill:none;}.cls-2{mask:url(#mask);}.cls-3{fill:#fff;}.cls-4{fill:#020202;}.cls-5{fill:#e62b1e;}.cls-6{clip-path:url(#clip-path);}.cls-7{clip-path:url(#clip-path-3);}.cls-8{clip-path:url(#clip-path-4);}.cls-9{fill:#e60000;}</style><mask id="mask" x="-5674.65" y="0" width="2322.58" height="1161.29" maskUnits="userSpaceOnUse"/><clipPath id="clip-path"><rect class="cls-1" x="79.93" y="79.76" width="1356.33" height="250.99"/></clipPath><clipPath id="clip-path-3"><rect class="cls-1" x="77.28" y="1368.46" width="580.32" height="153.63"/></clipPath><clipPath id="clip-path-4"><rect class="cls-1" x="77.28" y="1368.46" width="580.32" height="153.63"/></clipPath></defs><title>HOPE banners v3</title><g id="Info"><g id="Vodafone_logo_Image" data-name="Vodafone logo Image"><g id="Rectangle_1" data-name="Rectangle 1"><rect x="1683.1" y="83.76" width="1433.09" height="1433.09"/></g><g id="O"><circle class="cls-3" cx="2757.92" cy="442.04" r="358.27" transform="translate(495.21 2079.61) rotate(-45)"/></g><g id="line_in_O" data-name="line in O"><rect class="cls-4" x="2743.58" y="119.59" width="28.66" height="644.89"/></g><g id="Vert_line_in_H" data-name="Vert line in H"><rect class="cls-3" x="2041.37" y="82.4" width="28.66" height="731.24"/></g><g id="Hor_line_in_H" data-name="Hor line in H"><rect x="1993.36" y="413.37" width="85.99" height="57.32"/></g><g id="P"><path class="cls-3" d="M2055.7,802.08q-7.2,0-14.33.36v-.36H1679v718.83h362.39V1375c4.75.23,9.53.36,14.33.36,158.3,0,286.62-128.33,286.62-286.62S2214,802.08,2055.7,802.08Z"/></g><g id="bottom_line_in_E" data-name="bottom line in E"><rect class="cls-3" x="2743.58" y="1248.58" width="374.83" height="28.66"/></g><g id="top_line_in_E" data-name="top line in E"><rect class="cls-3" x="2743.58" y="1005.67" width="374.83" height="28.66"/></g><path class="cls-5" d="M1741.81,1080.73h-5.87v-13.88h5.87v-11.58h16.78v11.58h8.68v13.88h-8.68v16c0,2.55,1.1,3.66,3.91,3.66h4.86v14.21h-7.24c-10.56,0-18.31-4.42-18.31-18.13Z"/><path class="cls-5" d="M1827.3,1114.61h-16.78v-6.81c-2.72,4.09-7.74,7.24-14.47,7.24-11.07,0-18-7.83-18-20.43v-27.76h16.6v25.63c0,5.53,3.15,8.77,7.92,8.77s7.91-3.24,7.91-8.77v-25.63h16.78Z"/><path class="cls-5" d="M1905.29,1089c0-5.2-3.15-8.09-7.92-8.09s-7.91,2.89-7.91,8.09v25.62h-16.69V1089c0-5.2-3.07-8.09-7.84-8.09-4.93,0-8,2.89-8,8.09v25.62h-16.69v-47.76h16.69v6.3c2.72-3.83,7.41-6.73,13.88-6.73,7.15,0,12.77,3.24,15.92,8.77a19.19,19.19,0,0,1,15.92-8.77c12.09,0,19.33,7.84,19.33,20.35v27.84h-16.69Z"/><path class="cls-5" d="M1952.13,1066.25c6.81,0,11.58,3,14,7.24v-6.64h16.68v47.76h-16.68V1108c-2.47,4.26-7.33,7.24-14,7.24-11.33,0-20.35-9.28-20.35-24.52S1940.8,1066.25,1952.13,1066.25Zm5.36,14.56c-4.77,0-8.68,3.41-8.68,9.88s3.91,10,8.68,10,8.69-3.49,8.69-10S1962.17,1080.81,1957.49,1080.81Z"/><path class="cls-5" d="M2028.33,1089c0-5.54-3.06-8.77-7.83-8.77-4.94,0-8,3.23-8,8.77v25.62h-16.69v-47.76h16.69v6.81a17.23,17.23,0,0,1,14.56-7.24c11.07,0,18,7.84,18,20.35v27.84h-16.69Z"/><path class="cls-5" d="M2075.25,1066.25c6.81,0,11.58,3,14.05,7.24v-6.64H2106v47.76H2089.3V1108c-2.47,4.26-7.32,7.24-14.05,7.24-11.32,0-20.35-9.28-20.35-24.52S2063.93,1066.25,2075.25,1066.25Zm5.37,14.56c-4.77,0-8.69,3.41-8.69,9.88s3.92,10,8.69,10,8.68-3.49,8.68-10S2085.3,1080.81,2080.62,1080.81Z"/><path class="cls-5" d="M2118.93,1051.61h16.69v34l13.2-18.73h20l-18.82,24,19.16,23.75h-20.35l-13.2-19.58v19.58h-16.69Z"/><path class="cls-5" d="M2199.65,1115.21c-14.22,0-24.94-9.28-24.94-24.52s10.81-24.44,25-24.44,25,9.28,25,24.44S2213.87,1115.21,2199.65,1115.21Zm0-14.47c4.26,0,8.18-3.15,8.18-10s-3.83-10-8.09-10-8,3.15-8,10S2195.31,1100.74,2199.65,1100.74Z"/><g id="u_line" data-name="u line"><rect class="cls-5" x="1784.86" y="1049.26" width="35.9" height="7.17"/></g><g class="cls-6"><polygon class="cls-5" points="98.68 296.66 88.17 281.52 98.19 281.52 103.81 289.86 109.38 281.52 119.08 281.52 108.57 296.47 120.38 313.47 110.36 313.47 103.69 303.4 97.01 313.47 87.19 313.47 98.68 296.66"/><path d="M162,294.56H130.76v-6.62H162Zm0,13.23H130.76v-6.62H162Z"/><path d="M185.89,276.57h-8.78v-7.23h8.78Zm-8.78,4.95h8.78v32h-8.78Z"/><g class="cls-6"><path d="M191.57,281.52h8.35V286h.18a11.4,11.4,0,0,1,9.77-5.32c9.33,0,11.68,5.26,11.68,13.17v19.65h-8.78V295.42c0-5.25-1.54-7.85-5.62-7.85-4.76,0-6.8,2.66-6.8,9.15v16.75h-8.78Z"/><path d="M249.79,309.39h-.12c-2,3.46-5.63,4.95-9.71,4.95-9.64,0-14.33-8.29-14.33-17.12,0-8.6,4.75-16.57,14.15-16.57a11.19,11.19,0,0,1,9.52,4.76h.06V269.34h8.78v44.13h-8.35Zm-7.66-22.12c-5.75,0-7.73,4.94-7.73,10.19,0,5,2.29,10.26,7.73,10.26,5.81,0,7.54-5.06,7.54-10.32s-1.86-10.13-7.54-10.13"/><path d="M270.74,299.63c.25,5.56,3,8.09,7.85,8.09,3.52,0,6.37-2.16,6.92-4.14h7.73c-2.47,7.54-7.73,10.76-15,10.76-10.07,0-16.31-6.93-16.31-16.81,0-9.59,6.61-16.88,16.31-16.88,10.88,0,16.13,9.15,15.52,19ZM285,294.06c-.8-4.45-2.72-6.79-7-6.79a6.91,6.91,0,0,0-7.29,6.79Z"/><path d="M297.75,281.52h8.34v4.08h.13c2.1-3.4,5.56-5,9.52-5,10,0,14.52,8.1,14.52,17.18,0,8.53-4.7,16.51-14,16.51a11.35,11.35,0,0,1-9.58-4.82h-.12v15.2h-8.78Zm23.73,16.07c0-5.07-2-10.32-7.66-10.32s-7.6,5.13-7.6,10.32,2,10.13,7.66,10.13,7.6-4.94,7.6-10.13"/><path d="M341.51,299.63c.24,5.56,3,8.09,7.85,8.09,3.52,0,6.36-2.16,6.92-4.14H364c-2.47,7.54-7.72,10.76-14.95,10.76-10.08,0-16.32-6.93-16.32-16.81,0-9.59,6.61-16.88,16.32-16.88,10.87,0,16.13,9.15,15.51,19Zm14.27-5.57c-.8-4.45-2.72-6.79-7-6.79a6.91,6.91,0,0,0-7.29,6.79Z"/><path d="M368.51,281.52h8.35V286H377a11.4,11.4,0,0,1,9.77-5.32c9.33,0,11.68,5.26,11.68,13.17v19.65h-8.78V295.42c0-5.25-1.54-7.85-5.62-7.85-4.76,0-6.8,2.66-6.8,9.15v16.75h-8.78Z"/><path d="M426.73,309.39h-.12c-2,3.46-5.62,4.95-9.7,4.95-9.65,0-14.34-8.29-14.34-17.12,0-8.6,4.76-16.57,14.15-16.57a11.19,11.19,0,0,1,9.52,4.76h.06V269.34h8.78v44.13h-8.35Zm-7.66-22.12c-5.75,0-7.73,4.94-7.73,10.19,0,5,2.29,10.26,7.73,10.26,5.81,0,7.54-5.06,7.54-10.32s-1.85-10.13-7.54-10.13"/><path d="M447.68,299.63c.25,5.56,3,8.09,7.85,8.09,3.53,0,6.37-2.16,6.92-4.14h7.73c-2.47,7.54-7.73,10.76-15,10.76-10.07,0-16.31-6.93-16.31-16.81,0-9.59,6.61-16.88,16.31-16.88,10.88,0,16.14,9.15,15.52,19ZM462,294.06c-.8-4.45-2.72-6.79-7-6.79a6.92,6.92,0,0,0-7.3,6.79Z"/><path d="M474.69,281.52H483V286h.19a11.39,11.39,0,0,1,9.76-5.32c9.34,0,11.69,5.26,11.69,13.17v19.65h-8.78V295.42c0-5.25-1.55-7.85-5.62-7.85-4.76,0-6.8,2.66-6.8,9.15v16.75h-8.78Z"/><path d="M521.23,281.52h6.43v5.87h-6.43v15.82c0,3,.74,3.71,3.71,3.71a13.24,13.24,0,0,0,2.72-.25v6.86a33.36,33.36,0,0,1-5.13.31c-5.38,0-10.08-1.23-10.08-7.6V287.39h-5.31v-5.87h5.31v-9.58h8.78Z"/><rect x="530.87" y="269.34" width="8.78" height="44.13"/><path d="M561.09,317.49c-1.92,5.13-4.94,7.23-11,7.23a51.07,51.07,0,0,1-5.38-.31v-7.23a48.07,48.07,0,0,0,5.13.31c3-.31,4-3.46,3-6l-11.25-30H551l7.23,21.88h.12l7-21.88h9.08Z"/><path d="M607.63,280.65c10.07,0,16.56,6.68,16.56,16.88s-6.49,16.81-16.56,16.81-16.5-6.68-16.5-16.81,6.49-16.88,16.5-16.88m0,27.07c6,0,7.79-5.13,7.79-10.19s-1.8-10.26-7.79-10.26-7.73,5.13-7.73,10.26,1.8,10.19,7.73,10.19"/><path d="M627.4,281.52h8.35v5.93h.12a11.31,11.31,0,0,1,10.2-6.8A6.77,6.77,0,0,1,648,281v8.16a15.73,15.73,0,0,0-3.16-.31c-6.42,0-8.65,4.64-8.65,10.26v14.4H627.4Z"/><path d="M680.93,311.43c0,5.25-1.86,14.16-16.57,14.16-6.3,0-13.65-3-14.09-10.26H659c.8,3.27,3.46,4.38,6.55,4.38,4.88,0,7.11-3.33,7-7.91v-4.2h-.12c-1.92,3.34-5.75,4.94-9.58,4.94-9.58,0-13.66-7.29-13.66-16.07,0-8.28,4.76-15.82,13.72-15.82,4.21,0,7.42,1.42,9.52,5.13h.12v-4.26h8.35Zm-8.35-14.34c0-5.19-1.79-9.82-7.47-9.82-5,0-7.11,4.32-7.11,9.08,0,4.57,1.73,9.58,7.11,9.58,5,0,7.47-4.26,7.47-8.84"/><path d="M685.13,291.34c.49-8.22,7.85-10.69,15-10.69,6.36,0,14,1.42,14,9.09v16.62c0,2.91.31,5.81,1.11,7.11h-8.9a12.93,12.93,0,0,1-.62-3.09c-2.78,2.91-6.86,4-10.75,4-6.06,0-10.88-3-10.88-9.58,0-7.23,5.44-9,10.88-9.71s10.38-.62,10.38-4.2c0-3.77-2.6-4.33-5.69-4.33-3.33,0-5.5,1.36-5.81,4.82Zm20.27,6.49c-1.48,1.3-4.57,1.36-7.29,1.86s-5.19,1.48-5.19,4.7,2.53,4.08,5.37,4.08c6.86,0,7.11-5.44,7.11-7.36Z"/><path d="M719.74,281.52h8.34V286h.19a11.37,11.37,0,0,1,9.76-5.32c9.34,0,11.68,5.26,11.68,13.17v19.65h-8.77V295.42c0-5.25-1.55-7.85-5.63-7.85-4.75,0-6.79,2.66-6.79,9.15v16.75h-8.78Z"/><path d="M762.94,276.57h-8.78v-7.23h8.78Zm-8.78,4.95h8.78v32h-8.78Z"/><polygon points="766.65 306.86 783.27 288.13 767.88 288.13 767.88 281.52 794.83 281.52 794.83 288.13 778.21 306.86 796 306.86 796 313.47 766.65 313.47 766.65 306.86"/><path d="M806.7,299.63c.24,5.56,3,8.09,7.84,8.09,3.53,0,6.37-2.16,6.93-4.14h7.72c-2.47,7.54-7.72,10.76-15,10.76-10.07,0-16.31-6.93-16.31-16.81,0-9.59,6.61-16.88,16.31-16.88,10.88,0,16.14,9.15,15.52,19ZM821,294.06c-.8-4.45-2.72-6.79-7-6.79a6.91,6.91,0,0,0-7.29,6.79Z"/><path d="M856.51,309.39h-.12c-2,3.46-5.63,4.95-9.71,4.95-9.64,0-14.34-8.29-14.34-17.12,0-8.6,4.76-16.57,14.16-16.57a11.19,11.19,0,0,1,9.52,4.76h.06V269.34h8.77v44.13h-8.34Zm-7.66-22.12c-5.75,0-7.73,4.94-7.73,10.19,0,5,2.29,10.26,7.73,10.26,5.81,0,7.54-5.06,7.54-10.32s-1.86-10.13-7.54-10.13"/><polygon points="896.87 277.5 883.64 277.5 883.64 269.34 919.8 269.34 919.8 277.5 906.57 277.5 906.57 313.47 896.87 313.47 896.87 277.5"/><polygon points="923.63 269.34 956.63 269.34 956.63 277.5 933.33 277.5 933.33 286.96 954.72 286.96 954.72 294.5 933.33 294.5 933.33 305.31 957.13 305.31 957.13 313.47 923.63 313.47 923.63 269.34"/><path d="M961.2,269.34h19c11.43,0,20,7.17,20,21.82,0,12.79-6.56,22.31-20,22.31h-19Zm9.71,36h8.65c5.62,0,11-3.46,11-13.22,0-8.9-3.09-14.59-12.73-14.59h-6.92Z"/><path d="M1028,299.63c.25,5.56,3,8.09,7.85,8.09,3.53,0,6.37-2.16,6.92-4.14h7.73c-2.47,7.54-7.73,10.76-15,10.76-10.07,0-16.31-6.93-16.31-16.81,0-9.59,6.61-16.88,16.31-16.88,10.88,0,16.14,9.15,15.52,19Zm14.28-5.57c-.8-4.45-2.72-6.79-7-6.79a6.92,6.92,0,0,0-7.3,6.79Z"/><polygon points="1071.46 313.47 1061.7 313.47 1050.76 281.52 1059.97 281.52 1066.7 303.33 1066.83 303.33 1073.56 281.52 1082.28 281.52 1071.46 313.47"/><path d="M1090.68,299.63c.25,5.56,3,8.09,7.85,8.09,3.52,0,6.37-2.16,6.92-4.14h7.73c-2.47,7.54-7.73,10.76-15,10.76-10.07,0-16.32-6.93-16.32-16.81,0-9.59,6.62-16.88,16.32-16.88,10.88,0,16.13,9.15,15.51,19Zm14.28-5.57c-.8-4.45-2.72-6.79-7-6.79a6.91,6.91,0,0,0-7.29,6.79Z"/><path d="M1117.69,281.52H1126V286h.19a11.39,11.39,0,0,1,9.76-5.32c9.34,0,11.69,5.26,11.69,13.17v19.65h-8.78V295.42c0-5.25-1.55-7.85-5.62-7.85-4.76,0-6.8,2.66-6.8,9.15v16.75h-8.78Z"/><path d="M1164.23,281.52h6.43v5.87h-6.43v15.82c0,3,.74,3.71,3.71,3.71a13.24,13.24,0,0,0,2.72-.25v6.86a33.36,33.36,0,0,1-5.13.31c-5.38,0-10.08-1.23-10.08-7.6V287.39h-5.31v-5.87h5.31v-9.58h8.78Z"/><polygon class="cls-5" points="125.14 123.34 83.96 123.34 83.96 85.68 211.54 85.68 211.54 123.34 170.38 123.34 170.38 232.62 125.14 232.62 125.14 123.34"/><polygon class="cls-5" points="218.57 85.68 342.43 85.68 342.43 123.34 263.85 123.34 263.85 141.65 342.43 141.65 342.43 176.65 263.85 176.65 263.85 194.96 342.45 194.96 342.45 232.62 218.57 232.62 218.57 85.68"/><path class="cls-5" d="M350.05,85.68h74.29c49,0,66.28,36.22,66.28,73.25,0,45.08-23.87,73.69-75.12,73.69H350.05ZM395.32,195H413c28.2,0,32.33-22.85,32.33-36.66,0-9.24-2.9-35-35.62-35H395.32Z"/><polygon class="cls-5" points="555.67 175.99 541.86 153.09 528.39 175.99 495.22 175.99 526.71 129.69 496.39 85.39 529.57 85.39 541.86 107.29 554.5 85.39 587.67 85.39 557.36 129.69 588.85 175.99 555.67 175.99"/><path d="M664.05,86.32h22.38l53.1,146.32H717.82l-15.28-43.83h-57.4l-15.87,43.83H609Zm32.87,86.36L674.39,108,651,172.68Z"/><path d="M773,126v70.82q0,8.17,2.53,13.35,4.65,9.56,17.36,9.56,18.24,0,24.83-16.73,3.6-9,3.59-24.61V126h17.93V232.64H822.26l.2-15.74A36.17,36.17,0,0,1,814,227.16q-10.07,8.37-24.43,8.37-22.38,0-30.5-15.24-4.39-8.17-4.39-21.82V126Z"/><path d="M939,131.64q11.29,8.76,13.59,30.18H935.11a32.11,32.11,0,0,0-7.27-16.39q-5.67-6.52-18.23-6.52-17.13,0-24.5,16.71-4.79,10.84-4.78,26.76t6.77,27q6.78,10.93,21.32,10.94,11.16,0,17.68-6.8t9-18.6h17.43q-3,21.21-14.94,31T907,235.73q-20.91,0-33.36-15.29t-12.46-38.2q0-28.1,13.65-43.73t34.76-15.64Q927.64,122.87,939,131.64Z"/><path d="M970.08,86.32h17.23v85l46-45.31h22.91l-41,39.67,43.3,67h-22.91L1002,178.35,987.31,192.6v40H970.08Z"/><path d="M1073,86.32h17.93V232.64H1073Z"/><path d="M1175,168.08q6.18-.79,8.27-5.17a16,16,0,0,0,1.19-6.9q0-9.19-6.51-13.35t-18.64-4.15q-14,0-19.88,7.61-3.29,4.2-4.28,12.51h-16.73q.49-19.77,12.78-27.52t28.51-7.74q18.79,0,30.54,7.17t11.64,22.32v61.46a7.81,7.81,0,0,0,1.15,4.48c.76,1.12,2.37,1.69,4.83,1.69.8,0,1.69-.05,2.69-.15s2-.25,3.19-.45v13.25a51.24,51.24,0,0,1-6.38,1.49,46.39,46.39,0,0,1-6,.3q-9.25,0-13.44-6.57a25.45,25.45,0,0,1-3.09-9.86q-5.47,7.17-15.74,12.45a48.81,48.81,0,0,1-22.61,5.28q-14.85,0-24.25-9a29.87,29.87,0,0,1-9.42-22.53q0-14.82,9.27-23t24.3-10.05Zm-37.75,48.43a21,21,0,0,0,13.44,4.48,40.91,40.91,0,0,0,18.33-4.38q14.94-7.26,14.94-23.77V178.42a30.4,30.4,0,0,1-8.45,3.5,70.31,70.31,0,0,1-10.14,2l-10.83,1.4q-9.75,1.29-14.65,4.07-8.33,4.68-8.32,14.91A14.69,14.69,0,0,0,1137.22,216.51Z"/><path d="M1231.25,126h17V141.1q7.56-9.36,16-13.45a42.82,42.82,0,0,1,18.83-4.08q22.71,0,30.68,15.84,4.38,8.66,4.38,24.8v68.43H1300V165.4q0-9.75-2.88-15.73-4.78-10-17.34-10A35.34,35.34,0,0,0,1269.3,141a26.82,26.82,0,0,0-13,8.77,26.41,26.41,0,0,0-5.83,10.9q-1.35,5.64-1.35,16.09v55.88h-17.92Z"/><path d="M1403.31,129.25q4.76,3,10.81,10.46V85.82h17.24V232.64h-16.14V217.8q-6.26,9.85-14.78,14.24a42.26,42.26,0,0,1-19.55,4.38q-17.76,0-30.76-15t-13-39.89q0-23.31,11.85-40.39t33.89-17.08Q1395.08,124.07,1403.31,129.25Zm-40,80q7.23,11.57,23.19,11.56,12.39,0,20.36-10.71t8-30.73q0-20.22-8.22-29.93t-20.32-9.71a26.74,26.74,0,0,0-21.85,10.36q-8.39,10.35-8.38,30.47Q1356.05,197.69,1363.29,209.23Z"/></g></g><g id="Waterfront_Theatre_Wynyard_Quarter_16.11.19-2" data-name="Waterfront Theatre / Wynyard Quarter / 16.11.19"><path d="M93.85,830.19l5.7,24.71,1.24,6.87L102,855l4.88-24.85h9.51l5.12,24.7,1.32,6.88,1.33-6.61,5.75-25h9.17L127,873.33h-8.63l-5.21-25.23-1.52-8.34-1.52,8.34-5.21,25.23H96.52L84.28,830.19Z"/><path d="M154.32,853.93a13.59,13.59,0,0,0,3.33-.73,2.51,2.51,0,0,0,1.8-2.37,2.81,2.81,0,0,0-1.38-2.71,8.69,8.69,0,0,0-4-.75c-2,0-3.41.49-4.24,1.47a6.06,6.06,0,0,0-1.19,2.92h-8.05a12.14,12.14,0,0,1,2.36-6.87q3.32-4.21,11.4-4.22a20.3,20.3,0,0,1,9.35,2.08c2.72,1.38,4.08,4,4.08,7.84v14.63q0,1.53.06,3.69a4.6,4.6,0,0,0,.5,2.23,2.91,2.91,0,0,0,1.23,1v1.23h-9.08a9.69,9.69,0,0,1-.52-1.81c-.1-.57-.18-1.21-.24-1.94a17.12,17.12,0,0,1-4,3.2,12.16,12.16,0,0,1-6.12,1.55,10.55,10.55,0,0,1-7.2-2.48,8.8,8.8,0,0,1-2.84-7q0-5.88,4.57-8.51a20.34,20.34,0,0,1,7.37-2.05Zm5.1,3.89a9.42,9.42,0,0,1-1.62.81,14.56,14.56,0,0,1-2.24.57l-1.9.35a12.49,12.49,0,0,0-3.83,1.14,3.81,3.81,0,0,0-2,3.54,3.72,3.72,0,0,0,1.2,3.09,4.62,4.62,0,0,0,2.93.95,8.77,8.77,0,0,0,5-1.58q2.29-1.59,2.39-5.77Z"/><path d="M171.74,847.67v-5.94h4.45v-8.9h8.25v8.9h5.18v5.94h-5.18v16.85a3.84,3.84,0,0,0,.5,2.45c.33.32,1.35.48,3,.48l.81,0,.83,0v6.23l-4,.15c-3.94.14-6.63-.55-8.08-2a6.12,6.12,0,0,1-1.4-4.42V847.67Z"/><path d="M215.76,842.08a12.92,12.92,0,0,1,5.52,4.72,15.75,15.75,0,0,1,2.54,6.59,41.67,41.67,0,0,1,.27,6.33H200.86c.13,3.2,1.24,5.45,3.34,6.73a8.44,8.44,0,0,0,4.59,1.2,6.44,6.44,0,0,0,6.35-3.66h8.52a10.43,10.43,0,0,1-3.1,5.77q-4.27,4.65-12,4.65a17.35,17.35,0,0,1-11.23-3.92q-4.87-3.93-4.87-12.77,0-8.29,4.4-12.71a15.35,15.35,0,0,1,11.4-4.43A18.07,18.07,0,0,1,215.76,842.08Zm-12.47,7.2a8.73,8.73,0,0,0-2.23,4.94h14.37a7,7,0,0,0-2.22-5,7.29,7.29,0,0,0-4.94-1.72A6.62,6.62,0,0,0,203.29,849.28Z"/><path d="M246,840.69l.72,0v8.55q-.8-.09-1.41-.12l-1,0q-5,0-6.76,3.28a12.64,12.64,0,0,0-1,5.67v15.25h-8.4v-31.9h8V847a17.7,17.7,0,0,1,3.37-4.36,9.15,9.15,0,0,1,6.09-2Z"/><path d="M264.83,829.8l1.76.13v6.79c-.47-.06-1.25-.1-2.36-.13a2.7,2.7,0,0,0-2.28.73,2.66,2.66,0,0,0-.63,1.71v2.7h5.47v5.88h-5.47v25.72H253V847.61h-4.68v-5.88h4.56v-2.05q0-5.13,1.73-7.06,1.82-2.86,8.75-2.86C263.93,829.76,264.4,829.77,264.83,829.8Z"/><path d="M289.31,840.69l.72,0v8.55c-.53-.06-1-.1-1.4-.12l-1,0q-5,0-6.76,3.28a12.78,12.78,0,0,0-1,5.67v15.25h-8.39v-31.9h8V847a17.72,17.72,0,0,1,3.36-4.36,9.15,9.15,0,0,1,6.09-2Z"/><path d="M321.52,869.43q-4,5-12.26,5t-12.26-5a19.78,19.78,0,0,1,0-24q4-5.07,12.26-5.06t12.26,5.06a19.78,19.78,0,0,1,0,24Zm-6.67-4.61c1.3-1.74,2-4.2,2-7.39s-.66-5.66-2-7.38a7.4,7.4,0,0,0-11.25,0q-2,2.58-2,7.38t2,7.39a7.38,7.38,0,0,0,11.25,0Z"/><path d="M357.25,843.26q3.13,2.6,3.13,8.59v21.48h-8.54v-19.4a8.8,8.8,0,0,0-.67-3.86q-1.21-2.46-4.65-2.46a5.76,5.76,0,0,0-5.78,3.6,12.46,12.46,0,0,0-.81,4.85v17.27h-8.34V841.49h8.07v4.65a14.15,14.15,0,0,1,3-3.54,10.56,10.56,0,0,1,6.5-1.93A12.21,12.21,0,0,1,357.25,843.26Z"/><path d="M364.86,847.67v-5.94h4.45v-8.9h8.25v8.9h5.18v5.94h-5.18v16.85a3.84,3.84,0,0,0,.5,2.45c.33.32,1.35.48,3,.48l.81,0,.83,0v6.23l-3.95.15c-3.94.14-6.63-.55-8.08-2a6.12,6.12,0,0,1-1.4-4.42V847.67Z"/><path d="M436.77,830.19v7.64H423.86v35.5h-9.07v-35.5h-13v-7.64Z"/><path d="M464.28,841.61a9.33,9.33,0,0,1,4,3.13,8.37,8.37,0,0,1,1.61,3.68,46.2,46.2,0,0,1,.29,6.16v18.75h-8.52V853.91a8.6,8.6,0,0,0-.87-4.16q-1.14-2.24-4.3-2.23a5.9,5.9,0,0,0-5,2.21,10.15,10.15,0,0,0-1.7,6.31v17.29h-8.34v-43h8.34v15.22a10.14,10.14,0,0,1,4.18-3.88,11.8,11.8,0,0,1,5-1.1A13.52,13.52,0,0,1,464.28,841.61Z"/><path d="M498.76,842.08a13,13,0,0,1,5.51,4.72,15.75,15.75,0,0,1,2.54,6.59,40.39,40.39,0,0,1,.27,6.33H483.85c.13,3.2,1.24,5.45,3.34,6.73a8.45,8.45,0,0,0,4.6,1.2,6.44,6.44,0,0,0,6.34-3.66h8.52a10.41,10.41,0,0,1-3.09,5.77q-4.29,4.65-12,4.65a17.38,17.38,0,0,1-11.24-3.92q-4.86-3.93-4.87-12.77,0-8.29,4.4-12.71a15.37,15.37,0,0,1,11.4-4.43A18.15,18.15,0,0,1,498.76,842.08Zm-12.48,7.2a8.65,8.65,0,0,0-2.22,4.94h14.37a7,7,0,0,0-2.23-5,7.27,7.27,0,0,0-4.94-1.72A6.64,6.64,0,0,0,486.28,849.28Z"/><path d="M523.94,853.93a13.59,13.59,0,0,0,3.33-.73,2.51,2.51,0,0,0,1.8-2.37,2.81,2.81,0,0,0-1.38-2.71,8.69,8.69,0,0,0-4.05-.75c-2,0-3.41.49-4.24,1.47a6,6,0,0,0-1.19,2.92h-8.05a12.2,12.2,0,0,1,2.35-6.87q3.33-4.21,11.41-4.22a20.26,20.26,0,0,1,9.34,2.08c2.73,1.38,4.09,4,4.09,7.84v14.63q0,1.53.06,3.69a4.75,4.75,0,0,0,.49,2.23,3,3,0,0,0,1.23,1v1.23h-9.07a9.76,9.76,0,0,1-.53-1.81c-.09-.57-.17-1.21-.23-1.94a17.33,17.33,0,0,1-4,3.2,12.17,12.17,0,0,1-6.13,1.55,10.54,10.54,0,0,1-7.19-2.48,8.77,8.77,0,0,1-2.84-7q0-5.88,4.57-8.51a20.28,20.28,0,0,1,7.37-2.05Zm5.1,3.89a10.2,10.2,0,0,1-1.62.81,14.56,14.56,0,0,1-2.24.57l-1.9.35a12.31,12.31,0,0,0-3.83,1.14,3.79,3.79,0,0,0-2,3.54,3.72,3.72,0,0,0,1.2,3.09,4.6,4.6,0,0,0,2.93.95,8.77,8.77,0,0,0,5-1.58q2.29-1.59,2.39-5.77Z"/><path d="M541.36,847.67v-5.94h4.45v-8.9h8.25v8.9h5.18v5.94h-5.18v16.85a3.84,3.84,0,0,0,.5,2.45c.33.32,1.34.48,3,.48l.8,0,.84,0v6.23l-4,.15c-3.94.14-6.64-.55-8.08-2a6.08,6.08,0,0,1-1.4-4.42V847.67Z"/><path d="M582.31,840.69l.72,0v8.55c-.52-.06-1-.1-1.4-.12l-1,0c-3.35,0-5.61,1.09-6.76,3.28a12.8,12.8,0,0,0-1,5.67v15.25h-8.4v-31.9h8V847a17.72,17.72,0,0,1,3.36-4.36,9.15,9.15,0,0,1,6.09-2Z"/><path d="M608.71,842.08a13,13,0,0,1,5.51,4.72,15.75,15.75,0,0,1,2.54,6.59,41.67,41.67,0,0,1,.27,6.33H593.8c.13,3.2,1.24,5.45,3.34,6.73a8.45,8.45,0,0,0,4.6,1.2,6.44,6.44,0,0,0,6.34-3.66h8.52a10.47,10.47,0,0,1-3.09,5.77q-4.29,4.65-12,4.65a17.38,17.38,0,0,1-11.24-3.92q-4.87-3.93-4.87-12.77,0-8.29,4.4-12.71a15.37,15.37,0,0,1,11.4-4.43A18.15,18.15,0,0,1,608.71,842.08Zm-12.48,7.2a8.65,8.65,0,0,0-2.22,4.94h14.37a7,7,0,0,0-2.23-5,7.29,7.29,0,0,0-4.94-1.72A6.64,6.64,0,0,0,596.23,849.28Z"/><path d="M647.45,828.88h6.94L637.6,873.33h-6.88Z"/><path d="M677.75,830.19l5.69,24.71,1.24,6.87,1.25-6.73,4.87-24.85h9.51l5.13,24.7,1.31,6.88,1.33-6.61,5.75-25H723l-12.14,43.14h-8.63L697,848.1l-1.52-8.34L694,848.1l-5.21,25.23h-8.37l-12.23-43.14Z"/><path d="M728,879.45l1,.06a13.76,13.76,0,0,0,2.34-.09,4.14,4.14,0,0,0,1.88-.68,4.54,4.54,0,0,0,1.36-2.07,5,5,0,0,0,.54-1.93l-11.72-33.31h9.28l7,23.53,6.59-23.53h8.86L744.19,872.8q-3.18,9.08-5,11.26t-7.38,2.18l-1.79,0c-.45,0-1.12,0-2-.1Z"/><path d="M785.78,843.26q3.13,2.6,3.13,8.59v21.48h-8.55v-19.4a9,9,0,0,0-.66-3.86q-1.23-2.46-4.65-2.46a5.75,5.75,0,0,0-5.78,3.6,12.44,12.44,0,0,0-.82,4.85v17.27h-8.34V841.49h8.08v4.65a14.15,14.15,0,0,1,3-3.54,10.56,10.56,0,0,1,6.5-1.93A12.22,12.22,0,0,1,785.78,843.26Z"/><path d="M797.92,879.45l1.06.06a13.76,13.76,0,0,0,2.34-.09,4.14,4.14,0,0,0,1.87-.68,4.46,4.46,0,0,0,1.36-2.07,5,5,0,0,0,.54-1.93l-11.72-33.31h9.28l7,23.53,6.59-23.53h8.87L814.13,872.8q-3.17,9.08-5,11.26t-7.38,2.18l-1.79,0c-.44,0-1.12,0-2-.1Z"/><path d="M842.63,853.93a13.37,13.37,0,0,0,3.33-.73,2.51,2.51,0,0,0,1.8-2.37,2.81,2.81,0,0,0-1.38-2.71,8.69,8.69,0,0,0-4-.75c-2,0-3.41.49-4.24,1.47a6.06,6.06,0,0,0-1.19,2.92h-8a12.13,12.13,0,0,1,2.35-6.87q3.31-4.21,11.4-4.22a20.3,20.3,0,0,1,9.35,2.08c2.72,1.38,4.08,4,4.08,7.84v14.63q0,1.53.06,3.69a4.72,4.72,0,0,0,.5,2.23,2.91,2.91,0,0,0,1.23,1v1.23h-9.07a9,9,0,0,1-.53-1.81,18.52,18.52,0,0,1-.23-1.94,17.38,17.38,0,0,1-4,3.2,12.1,12.1,0,0,1-6.12,1.55,10.59,10.59,0,0,1-7.2-2.48,8.8,8.8,0,0,1-2.84-7q0-5.88,4.57-8.51a20.34,20.34,0,0,1,7.37-2.05Zm5.1,3.89a9.71,9.71,0,0,1-1.61.81,15.21,15.21,0,0,1-2.24.57l-1.9.35a12.48,12.48,0,0,0-3.84,1.14,3.81,3.81,0,0,0-2,3.54,3.7,3.7,0,0,0,1.21,3.09,4.57,4.57,0,0,0,2.92.95,8.72,8.72,0,0,0,5-1.58c1.54-1.06,2.33-3,2.39-5.77Z"/><path d="M881.05,840.69l.72,0v8.55q-.79-.09-1.41-.12l-1,0q-5,0-6.76,3.28a12.64,12.64,0,0,0-1,5.67v15.25h-8.4v-31.9h8V847a17.7,17.7,0,0,1,3.37-4.36,9.15,9.15,0,0,1,6.09-2Z"/><path d="M903.57,841.94a10.22,10.22,0,0,1,3.66,3.53V830.25h8.46v43.08h-8.11v-4.42a11.83,11.83,0,0,1-4.07,4.13,11.39,11.39,0,0,1-5.68,1.29,11.83,11.83,0,0,1-9.4-4.53q-3.82-4.51-3.82-11.6,0-8.16,3.76-12.85a12.23,12.23,0,0,1,10-4.68A10.37,10.37,0,0,1,903.57,841.94Zm2,22.73a11.64,11.64,0,0,0,1.84-6.82q0-5.85-3-8.37a6.4,6.4,0,0,0-4.22-1.52,5.86,5.86,0,0,0-5.37,2.76,12.87,12.87,0,0,0-1.71,6.87,12.68,12.68,0,0,0,1.74,7.06,5.88,5.88,0,0,0,5.28,2.65A6.18,6.18,0,0,0,905.62,864.67Z"/><path d="M978.93,860.72a16,16,0,0,1-3.36,6.16l4.95,4.67-4.7,4.9-5.18-4.92a21.34,21.34,0,0,1-4.1,2,21.84,21.84,0,0,1-6.94,1,19.89,19.89,0,0,1-13.94-5Q939,863.44,939,851.7t6.85-17.88a20.25,20.25,0,0,1,13.9-4.94,19.92,19.92,0,0,1,14,5.24q6.56,6,6.55,16.94A28.92,28.92,0,0,1,978.93,860.72Zm-16.36,5.79a15.34,15.34,0,0,0,2-.73l-4.36-4.16,4.63-4.83,4.38,4.13a21.19,21.19,0,0,0,1.44-3.69,21.61,21.61,0,0,0,.64-5.53q0-7.26-3-11.22t-8.68-4a10.55,10.55,0,0,0-8.54,3.8q-3.2,3.81-3.19,11.38,0,8.88,4.56,12.7a10.65,10.65,0,0,0,7.09,2.49A11.27,11.27,0,0,0,962.57,866.51Z"/><path d="M994.85,841.43v19.23a10.1,10.1,0,0,0,.64,4.1q1.14,2.43,4.45,2.43c2.84,0,4.78-1.16,5.83-3.46a12.63,12.63,0,0,0,.81-4.94V841.43H1015v31.9h-8.11v-4.51c-.07.1-.27.39-.58.88a5.74,5.74,0,0,1-1.11,1.29,11.53,11.53,0,0,1-3.78,2.4,12.79,12.79,0,0,1-4.27.64q-7.07,0-9.52-5.09-1.36-2.81-1.37-8.28V841.43Z"/><path d="M1035.78,853.93a13.59,13.59,0,0,0,3.33-.73,2.51,2.51,0,0,0,1.8-2.37,2.81,2.81,0,0,0-1.38-2.71,8.69,8.69,0,0,0-4-.75c-2,0-3.41.49-4.24,1.47a6.06,6.06,0,0,0-1.19,2.92h-8a12.13,12.13,0,0,1,2.35-6.87q3.32-4.21,11.4-4.22a20.3,20.3,0,0,1,9.35,2.08c2.72,1.38,4.08,4,4.08,7.84v14.63q0,1.53.06,3.69a4.72,4.72,0,0,0,.5,2.23,2.91,2.91,0,0,0,1.23,1v1.23h-9.07a9,9,0,0,1-.53-1.81c-.1-.57-.18-1.21-.24-1.94a17.12,17.12,0,0,1-4,3.2,12.13,12.13,0,0,1-6.12,1.55,10.57,10.57,0,0,1-7.2-2.48,8.8,8.8,0,0,1-2.84-7q0-5.88,4.57-8.51a20.34,20.34,0,0,1,7.37-2.05Zm5.1,3.89a9.42,9.42,0,0,1-1.62.81,14.56,14.56,0,0,1-2.24.57l-1.89.35a12.48,12.48,0,0,0-3.84,1.14,3.81,3.81,0,0,0-2,3.54,3.72,3.72,0,0,0,1.2,3.09,4.62,4.62,0,0,0,2.93.95,8.77,8.77,0,0,0,5-1.58q2.29-1.59,2.39-5.77Z"/><path d="M1074.2,840.69l.72,0v8.55q-.8-.09-1.41-.12l-1,0q-5,0-6.76,3.28a12.64,12.64,0,0,0-1,5.67v15.25h-8.4v-31.9h8V847a17.7,17.7,0,0,1,3.37-4.36,9.14,9.14,0,0,1,6.08-2Z"/><path d="M1076.53,847.67v-5.94H1081v-8.9h8.26v8.9h5.18v5.94h-5.18v16.85a3.85,3.85,0,0,0,.49,2.45c.34.32,1.35.48,3,.48l.8,0,.84,0v6.23l-4,.15c-3.94.14-6.64-.55-8.08-2a6.08,6.08,0,0,1-1.41-4.42V847.67Z"/><path d="M1120.55,842.08a13,13,0,0,1,5.51,4.72,15.49,15.49,0,0,1,2.54,6.59,40.15,40.15,0,0,1,.28,6.33h-23.23c.12,3.2,1.24,5.45,3.33,6.73a8.47,8.47,0,0,0,4.6,1.2,6.47,6.47,0,0,0,6.35-3.66h8.51a10.35,10.35,0,0,1-3.09,5.77q-4.29,4.65-12,4.65a17.38,17.38,0,0,1-11.24-3.92q-4.86-3.93-4.86-12.77,0-8.29,4.39-12.71a15.38,15.38,0,0,1,11.41-4.43A18.13,18.13,0,0,1,1120.55,842.08Zm-12.48,7.2a8.65,8.65,0,0,0-2.22,4.94h14.37a7,7,0,0,0-2.22-5,7.3,7.3,0,0,0-5-1.72A6.64,6.64,0,0,0,1108.07,849.28Z"/><path d="M1150.82,840.69l.71,0v8.55c-.52-.06-1-.1-1.4-.12l-1,0c-3.35,0-5.61,1.09-6.76,3.28a12.8,12.8,0,0,0-1,5.67v15.25H1133v-31.9h8V847a18,18,0,0,1,3.36-4.36,9.15,9.15,0,0,1,6.09-2Z"/><path d="M1182.62,828.88h6.94l-16.79,44.45h-6.88Z"/><path d="M1206.64,844.07v-5.68a36.24,36.24,0,0,0,5.51-.53,7.76,7.76,0,0,0,4.09-2.22,7.35,7.35,0,0,0,1.64-3,7.15,7.15,0,0,0,.32-1.69h7v42.43h-8.54V844.07Z"/><path d="M1257.79,841.58a4.25,4.25,0,0,0-.79-2.26,4.58,4.58,0,0,0-4.06-2c-2.72,0-4.65,1.53-5.8,4.57a28.8,28.8,0,0,0-1.29,7.43,9.48,9.48,0,0,1,3.6-2.69,13.17,13.17,0,0,1,14,3,13.69,13.69,0,0,1,3.61,9.8,16.57,16.57,0,0,1-3.54,10.48q-3.54,4.53-11,4.53-8,0-11.83-6.7-3-5.24-3-13.52a60.22,60.22,0,0,1,.41-7.9,24.09,24.09,0,0,1,2.84-9,14.53,14.53,0,0,1,4.75-4.95,12.82,12.82,0,0,1,7-1.87q5.91,0,9.42,3a11.48,11.48,0,0,1,3.95,8.06Zm-9.89,23.91a5.89,5.89,0,0,0,4.68,2.16,5.18,5.18,0,0,0,4.38-2.09,8.71,8.71,0,0,0,1.59-5.43,8.12,8.12,0,0,0-1.81-5.69,5.8,5.8,0,0,0-4.45-2,5.92,5.92,0,0,0-3.77,1.29q-2.46,1.9-2.46,6.15A8.33,8.33,0,0,0,1247.9,865.49Z"/><path d="M1272.89,864.58h8.87v8.75h-8.87Z"/><path d="M1290,844.07v-5.68a36.27,36.27,0,0,0,5.52-.53,7.76,7.76,0,0,0,4.09-2.22,7.34,7.34,0,0,0,1.63-3,6.66,6.66,0,0,0,.32-1.69h7v42.43h-8.55V844.07Z"/><path d="M1320,844.07v-5.68a36.27,36.27,0,0,0,5.52-.53,7.77,7.77,0,0,0,4.08-2.22,7.35,7.35,0,0,0,1.64-3,7.15,7.15,0,0,0,.32-1.69h7v42.43H1330V844.07Z"/><path d="M1352.93,864.58h8.87v8.75h-8.87Z"/><path d="M1370,844.07v-5.68a36.27,36.27,0,0,0,5.52-.53,7.8,7.8,0,0,0,4.09-2.22,7.34,7.34,0,0,0,1.63-3,6.66,6.66,0,0,0,.32-1.69h7v42.43H1380V844.07Z"/><path d="M1404.89,834.77a13.38,13.38,0,0,1,10.23-4.22q9.69,0,13.29,8.57,2,4.86,2,12.79a36.36,36.36,0,0,1-2,12.85q-3.73,9.79-13.75,9.8a14,14,0,0,1-8.57-2.82,11.14,11.14,0,0,1-4.36-8.24h8.31a5,5,0,0,0,1.58,3,4.9,4.9,0,0,0,3.42,1.17q4.13,0,5.8-4.56a27,27,0,0,0,1.14-7.35,9,9,0,0,1-2.43,2.2,11.08,11.08,0,0,1-5.77,1.4,13.07,13.07,0,0,1-9-3.5q-3.93-3.49-3.92-10.08Q1401,839,1404.89,834.77Zm14,16.85q2.83-1.82,2.83-6.3a8.87,8.87,0,0,0-1.68-5.7,5.57,5.57,0,0,0-4.61-2.11,5.75,5.75,0,0,0-3.66,1.2q-2.4,1.88-2.4,6.35a8.83,8.83,0,0,0,1.54,5.66,5.74,5.74,0,0,0,4.73,1.89A5.87,5.87,0,0,0,1418.93,851.62Z"/></g><g class="cls-7"><g class="cls-8"><path class="cls-9" d="M223.92,1445.28a69.83,69.83,0,1,1-69.83-69.83,69.83,69.83,0,0,1,69.83,69.83"/><path class="cls-3" d="M154.64,1484.22c-19.18.06-39.14-16.32-39.23-42.61-.06-17.39,9.32-34.13,21.31-44.06,11.7-9.68,27.73-15.9,42.26-16a17.6,17.6,0,0,1,5,.56c-12.7,2.64-22.82,14.46-22.77,27.88a7.57,7.57,0,0,0,.08,1.13c21.27,5.18,30.92,18,31,35.77s-14,37.2-37.65,37.28"/><polygon class="cls-9" points="269.02 1474.2 247.66 1423.25 261.62 1423.25 274.94 1457.08 287.83 1423.25 301.15 1423.25 280.44 1474.2 269.02 1474.2"/><path class="cls-9" d="M351.21,1448.52a32,32,0,0,1-1.53,9.77,27.07,27.07,0,0,1-4.55,8.62,22.43,22.43,0,0,1-7.61,6.13,25.87,25.87,0,0,1-21.46,0,22.53,22.53,0,0,1-7.61-6.13,26.85,26.85,0,0,1-4.54-8.62,31.71,31.71,0,0,1-1.54-9.77,31.28,31.28,0,0,1,1.54-9.73,26.31,26.31,0,0,1,4.54-8.51,22.24,22.24,0,0,1,7.61-6,23.88,23.88,0,0,1,10.73-2.28,23.54,23.54,0,0,1,10.68,2.28,22.93,22.93,0,0,1,7.61,6,26.07,26.07,0,0,1,4.6,8.51,31.56,31.56,0,0,1,1.53,9.73m-12.9-.06a23.74,23.74,0,0,0-.74-6,14.57,14.57,0,0,0-2.22-4.93,11.25,11.25,0,0,0-3.59-3.29,10.73,10.73,0,0,0-9.94,0,11.25,11.25,0,0,0-3.59,3.29,14.57,14.57,0,0,0-2.22,4.93,25.26,25.26,0,0,0,0,12.14,15.87,15.87,0,0,0,2.17,4.94,10.52,10.52,0,0,0,3.59,3.34,10.09,10.09,0,0,0,5,1.22,9.82,9.82,0,0,0,5-1.22,11.19,11.19,0,0,0,3.59-3.34,15.28,15.28,0,0,0,2.22-4.94,23.55,23.55,0,0,0,.74-6.1"/><path class="cls-9" d="M391.64,1474.2l-.53-3.91a16.49,16.49,0,0,1-4.74,3.54,14.82,14.82,0,0,1-7,1.54,18.81,18.81,0,0,1-9.27-2.22,20.92,20.92,0,0,1-6.74-5.92,26.93,26.93,0,0,1-4.17-8.57,36.21,36.21,0,0,1-1.42-10.14,32.48,32.48,0,0,1,1.48-9.73,25.58,25.58,0,0,1,4.47-8.51,22.36,22.36,0,0,1,7.54-6,23.4,23.4,0,0,1,10.64-2.28,28.68,28.68,0,0,1,8.64,1.47V1403.7h13.11v70.5Zm-1.06-39.74a19.34,19.34,0,0,0-7-1.48,12.25,12.25,0,0,0-5.79,1.27,11.46,11.46,0,0,0-4,3.45,15.81,15.81,0,0,0-2.37,4.88,19.63,19.63,0,0,0-.79,5.57,26.46,26.46,0,0,0,.69,6.1,15.67,15.67,0,0,0,2.1,5.09,11.46,11.46,0,0,0,3.57,3.5,9.59,9.59,0,0,0,5.1,1.32,10.65,10.65,0,0,0,4.95-1.32,8.65,8.65,0,0,0,3.57-3.13Z"/><path class="cls-9" d="M441.64,1474.16l-.52-3.81a14.4,14.4,0,0,1-5.41,3.68,19,19,0,0,1-7.21,1.34,18.2,18.2,0,0,1-6.32-1.11,16.74,16.74,0,0,1-5.36-3.18,15.51,15.51,0,0,1-5.19-11.89,14.57,14.57,0,0,1,1.48-6.71,14.76,14.76,0,0,1,4-4.91,22.24,22.24,0,0,1,5.84-3.28,36.29,36.29,0,0,1,6.89-1.9,47.34,47.34,0,0,1,5.58-.8c2-.17,3.69-.33,5-.47v-.74q0-4.23-2.18-6a9.14,9.14,0,0,0-6-1.8,16.77,16.77,0,0,0-4.25.53,19.83,19.83,0,0,0-3.62,1.32,28.17,28.17,0,0,0-2.81,1.59,18.29,18.29,0,0,0-2,1.43l-4.33-9.2a19.39,19.39,0,0,1,2.59-1.8,30.29,30.29,0,0,1,4.22-2.06,35.5,35.5,0,0,1,5.61-1.69,31,31,0,0,1,6.71-.69,25.39,25.39,0,0,1,7.72,1.11,15.55,15.55,0,0,1,6,3.49,16.15,16.15,0,0,1,4,6,24.25,24.25,0,0,1,1.42,8.81v32.75Zm-1.05-23.85c-1.42.07-2.87.2-4.36.37s-2.91.41-4.26.69q-4.25.84-5.9,2.91a7,7,0,0,0-1.65,4.49,5,5,0,0,0,1.86,4.07,8.09,8.09,0,0,0,5.27,1.53,12.15,12.15,0,0,0,4.94-1,14.56,14.56,0,0,0,4.1-2.65Z"/><path class="cls-9" d="M494.09,1415.32a19.29,19.29,0,0,0-2.48-.89,16.79,16.79,0,0,0-4.92-.59,6.72,6.72,0,0,0-4.6,1.64c-1.23,1.1-1.85,2.87-1.85,5.34v2.43h11v10.57H480.35v40.38H467.24v-40.38h-6.76v-10.57h6.76v-2.75a24.27,24.27,0,0,1,1.27-8.4,14.62,14.62,0,0,1,3.54-5.6,13.91,13.91,0,0,1,5.34-3.17,21.23,21.23,0,0,1,6.66-1,28.92,28.92,0,0,1,7.87.9,23.21,23.21,0,0,1,3.65,1.22Z"/><path class="cls-9" d="M542.72,1448.52a31.71,31.71,0,0,1-1.54,9.77,26.85,26.85,0,0,1-4.54,8.62A22.53,22.53,0,0,1,529,1473a25.87,25.87,0,0,1-21.46,0,22.43,22.43,0,0,1-7.61-6.13,26.87,26.87,0,0,1-4.55-8.62,32,32,0,0,1-1.53-9.77,31.56,31.56,0,0,1,1.53-9.73,26.33,26.33,0,0,1,4.55-8.51,22.15,22.15,0,0,1,7.61-6A23.85,23.85,0,0,1,518.3,1422a23.57,23.57,0,0,1,10.68,2.28,23,23,0,0,1,7.61,6,25.86,25.86,0,0,1,4.59,8.51,31.28,31.28,0,0,1,1.54,9.73m-12.9-.06a24.2,24.2,0,0,0-.74-6,14.57,14.57,0,0,0-2.22-4.93,11.36,11.36,0,0,0-3.59-3.29,10.73,10.73,0,0,0-9.94,0,11.25,11.25,0,0,0-3.59,3.29,14.57,14.57,0,0,0-2.22,4.93,25.26,25.26,0,0,0,0,12.14,16.09,16.09,0,0,0,2.16,4.94,10.55,10.55,0,0,0,3.6,3.34,10.09,10.09,0,0,0,5,1.22,9.82,9.82,0,0,0,5-1.22,11.29,11.29,0,0,0,3.59-3.34,15.28,15.28,0,0,0,2.22-4.94,24,24,0,0,0,.74-6.1"/><path class="cls-9" d="M583.41,1474.2v-29.07c0-3.87-.82-6.87-2.44-9a8,8,0,0,0-6.76-3.17,10.69,10.69,0,0,0-5.66,1.58,24.45,24.45,0,0,0-4.49,3.49v36.15H551v-51H562.9l.63,4a22.63,22.63,0,0,1,6.93-3.91,22.91,22.91,0,0,1,7.77-1.38,21.8,21.8,0,0,1,7.4,1.22,14.44,14.44,0,0,1,5.81,3.86,17.81,17.81,0,0,1,3.75,6.87,34.3,34.3,0,0,1,1.32,10.15v30.12Z"/><path class="cls-9" d="M617.53,1452q.42,6.45,4,9.31a14.61,14.61,0,0,0,9.34,2.85,24.68,24.68,0,0,0,5-.48,22.64,22.64,0,0,0,4.14-1.21,25.58,25.58,0,0,0,3.08-1.48,9.4,9.4,0,0,0,1.91-1.37l3.49,10.67a24.38,24.38,0,0,1-6.45,3.12,42.47,42.47,0,0,1-5.71,1.38,42,42,0,0,1-7.19.58,28.17,28.17,0,0,1-9.46-1.59,21,21,0,0,1-7.87-4.92,23.87,23.87,0,0,1-5.39-8.29,31.51,31.51,0,0,1-2-11.84,32.45,32.45,0,0,1,1.85-11.42,24.12,24.12,0,0,1,5.07-8.35,22.13,22.13,0,0,1,7.51-5.18A23.32,23.32,0,0,1,628,1422a24.8,24.8,0,0,1,9,1.59,18.42,18.42,0,0,1,7.13,4.91,23.74,23.74,0,0,1,4.76,8.62,40.4,40.4,0,0,1,1.74,12.58V1452Zm19.76-9.4a13.51,13.51,0,0,0-1.11-4.6,9.92,9.92,0,0,0-2.23-3.17,9,9,0,0,0-2.88-1.8,8.72,8.72,0,0,0-3.13-.58,10.06,10.06,0,0,0-6.48,2.54c-2.06,1.69-3.26,4.22-3.62,7.61Z"/></g></g></g></g></svg>