<svg xmlns="http://www.w3.org/2000/svg" xmlns:xlink="http://www.w3.org/1999/xlink" viewBox="0 0 3200 1600"><defs><style>.cls-1{fill:none;}.cls-2{clip-path:url(#clip-path);}.cls-3{fill:#e62b1e;}.cls-4{font-size:204px;font-family:Helvetica;}.cls-5{clip-path:url(#clip-path-3);}.cls-6{clip-path:url(#clip-path-4);}.cls-7{fill:#e60000;}.cls-8{fill:#fff;}.cls-9{fill:#090909;}</style><clipPath id="clip-path"><rect class="cls-1" x="79.93" y="79.76" width="1356.33" height="250.99"/></clipPath><clipPath id="clip-path-3"><rect class="cls-1" x="77.28" y="1368.46" width="580.32" height="153.63"/></clipPath><clipPath id="clip-path-4"><rect class="cls-1" x="77.28" y="1368.46" width="580.32" height="153.63"/></clipPath></defs><title>Artboard 102400</title><g id="Artboard_1" data-name="Artboard 1"><g id="Text-3" data-name="Text"><g class="cls-2"><polygon class="cls-3" points="98.68 296.66 88.17 281.52 98.19 281.52 103.81 289.86 109.38 281.52 119.08 281.52 108.57 296.47 120.38 313.47 110.36 313.47 103.69 303.4 97.01 313.47 87.19 313.47 98.68 296.66"/><path d="M162,294.56H130.76v-6.62H162Zm0,13.23H130.76v-6.62H162Z"/><path d="M185.89,276.57h-8.78v-7.23h8.78Zm-8.78,4.95h8.78v32h-8.78Z"/><g class="cls-2"><path d="M191.57,281.52h8.35V286h.18a11.4,11.4,0,0,1,9.77-5.32c9.33,0,11.68,5.26,11.68,13.17v19.65h-8.78V295.42c0-5.25-1.54-7.85-5.62-7.85-4.76,0-6.8,2.66-6.8,9.15v16.75h-8.78Z"/><path d="M249.79,309.39h-.12c-2,3.46-5.63,4.95-9.71,4.95-9.64,0-14.33-8.29-14.33-17.12,0-8.6,4.75-16.57,14.15-16.57a11.19,11.19,0,0,1,9.52,4.76h.06V269.34h8.78v44.13h-8.35Zm-7.66-22.12c-5.75,0-7.73,4.94-7.73,10.19,0,5,2.29,10.26,7.73,10.26,5.81,0,7.54-5.06,7.54-10.32s-1.86-10.13-7.54-10.13"/><path d="M270.74,299.63c.25,5.56,3,8.09,7.85,8.09,3.52,0,6.37-2.16,6.92-4.14h7.73c-2.47,7.54-7.73,10.76-15,10.76-10.07,0-16.31-6.93-16.31-16.81,0-9.59,6.61-16.88,16.31-16.88,10.88,0,16.13,9.15,15.52,19ZM285,294.06c-.8-4.45-2.72-6.79-7-6.79a6.91,6.91,0,0,0-7.29,6.79Z"/><path d="M297.75,281.52h8.34v4.08h.13c2.1-3.4,5.56-5,9.52-5,10,0,14.52,8.1,14.52,17.18,0,8.53-4.7,16.51-14,16.51a11.35,11.35,0,0,1-9.58-4.82h-.12v15.2h-8.78Zm23.73,16.07c0-5.07-2-10.32-7.66-10.32s-7.6,5.13-7.6,10.32,2,10.13,7.66,10.13,7.6-4.94,7.6-10.13"/><path d="M341.51,299.63c.24,5.56,3,8.09,7.85,8.09,3.52,0,6.36-2.16,6.92-4.14H364c-2.47,7.54-7.72,10.76-14.95,10.76-10.08,0-16.32-6.93-16.32-16.81,0-9.59,6.61-16.88,16.32-16.88,10.87,0,16.13,9.15,15.51,19Zm14.27-5.57c-.8-4.45-2.72-6.79-7-6.79a6.91,6.91,0,0,0-7.29,6.79Z"/><path d="M368.51,281.52h8.35V286H377a11.4,11.4,0,0,1,9.77-5.32c9.33,0,11.68,5.26,11.68,13.17v19.65h-8.78V295.42c0-5.25-1.54-7.85-5.62-7.85-4.76,0-6.8,2.66-6.8,9.15v16.75h-8.78Z"/><path d="M426.73,309.39h-.12c-2,3.46-5.62,4.95-9.7,4.95-9.65,0-14.34-8.29-14.34-17.12,0-8.6,4.76-16.57,14.15-16.57a11.19,11.19,0,0,1,9.52,4.76h.06V269.34h8.78v44.13h-8.35Zm-7.66-22.12c-5.75,0-7.73,4.94-7.73,10.19,0,5,2.29,10.26,7.73,10.26,5.81,0,7.54-5.06,7.54-10.32s-1.85-10.13-7.54-10.13"/><path d="M447.68,299.63c.25,5.56,3,8.09,7.85,8.09,3.53,0,6.37-2.16,6.92-4.14h7.73c-2.47,7.54-7.73,10.76-15,10.76-10.07,0-16.31-6.93-16.31-16.81,0-9.59,6.61-16.88,16.31-16.88,10.88,0,16.14,9.15,15.52,19ZM462,294.06c-.8-4.45-2.72-6.79-7-6.79a6.92,6.92,0,0,0-7.3,6.79Z"/><path d="M474.69,281.52H483V286h.19a11.39,11.39,0,0,1,9.76-5.32c9.34,0,11.69,5.26,11.69,13.17v19.65h-8.78V295.42c0-5.25-1.55-7.85-5.62-7.85-4.76,0-6.8,2.66-6.8,9.15v16.75h-8.78Z"/><path d="M521.23,281.52h6.43v5.87h-6.43v15.82c0,3,.74,3.71,3.71,3.71a13.24,13.24,0,0,0,2.72-.25v6.86a33.36,33.36,0,0,1-5.13.31c-5.38,0-10.08-1.23-10.08-7.6V287.39h-5.31v-5.87h5.31v-9.58h8.78Z"/><rect x="530.87" y="269.34" width="8.78" height="44.13"/><path d="M561.09,317.49c-1.92,5.13-4.94,7.23-11,7.23a51.07,51.07,0,0,1-5.38-.31v-7.23a48.07,48.07,0,0,0,5.13.31c3-.31,4-3.46,3-6l-11.25-30H551l7.23,21.88h.12l7-21.88h9.08Z"/><path d="M607.63,280.65c10.07,0,16.56,6.68,16.56,16.88s-6.49,16.81-16.56,16.81-16.5-6.68-16.5-16.81,6.49-16.88,16.5-16.88m0,27.07c6,0,7.79-5.13,7.79-10.19s-1.8-10.26-7.79-10.26-7.73,5.13-7.73,10.26,1.8,10.19,7.73,10.19"/><path d="M627.4,281.52h8.35v5.93h.12a11.31,11.31,0,0,1,10.2-6.8A6.77,6.77,0,0,1,648,281v8.16a15.73,15.73,0,0,0-3.16-.31c-6.42,0-8.65,4.64-8.65,10.26v14.4H627.4Z"/><path d="M680.93,311.43c0,5.25-1.86,14.16-16.57,14.16-6.3,0-13.65-3-14.09-10.26H659c.8,3.27,3.46,4.38,6.55,4.38,4.88,0,7.11-3.33,7-7.91v-4.2h-.12c-1.92,3.34-5.75,4.94-9.58,4.94-9.58,0-13.66-7.29-13.66-16.07,0-8.28,4.76-15.82,13.72-15.82,4.21,0,7.42,1.42,9.52,5.13h.12v-4.26h8.35Zm-8.35-14.34c0-5.19-1.79-9.82-7.47-9.82-5,0-7.11,4.32-7.11,9.08,0,4.57,1.73,9.58,7.11,9.58,5,0,7.47-4.26,7.47-8.84"/><path d="M685.13,291.34c.49-8.22,7.85-10.69,15-10.69,6.36,0,14,1.42,14,9.09v16.62c0,2.91.31,5.81,1.11,7.11h-8.9a12.93,12.93,0,0,1-.62-3.09c-2.78,2.91-6.86,4-10.75,4-6.06,0-10.88-3-10.88-9.58,0-7.23,5.44-9,10.88-9.71s10.38-.62,10.38-4.2c0-3.77-2.6-4.33-5.69-4.33-3.33,0-5.5,1.36-5.81,4.82Zm20.27,6.49c-1.48,1.3-4.57,1.36-7.29,1.86s-5.19,1.48-5.19,4.7,2.53,4.08,5.37,4.08c6.86,0,7.11-5.44,7.11-7.36Z"/><path d="M719.74,281.52h8.34V286h.19a11.37,11.37,0,0,1,9.76-5.32c9.34,0,11.68,5.26,11.68,13.17v19.65h-8.77V295.42c0-5.25-1.55-7.85-5.63-7.85-4.75,0-6.79,2.66-6.79,9.15v16.75h-8.78Z"/><path d="M762.94,276.57h-8.78v-7.23h8.78Zm-8.78,4.95h8.78v32h-8.78Z"/><polygon points="766.65 306.86 783.27 288.13 767.88 288.13 767.88 281.52 794.83 281.52 794.83 288.13 778.21 306.86 796 306.86 796 313.47 766.65 313.47 766.65 306.86"/><path d="M806.7,299.63c.24,5.56,3,8.09,7.84,8.09,3.53,0,6.37-2.16,6.93-4.14h7.72c-2.47,7.54-7.72,10.76-15,10.76-10.07,0-16.31-6.93-16.31-16.81,0-9.59,6.61-16.88,16.31-16.88,10.88,0,16.14,9.15,15.52,19ZM821,294.06c-.8-4.45-2.72-6.79-7-6.79a6.91,6.91,0,0,0-7.29,6.79Z"/><path d="M856.51,309.39h-.12c-2,3.46-5.63,4.95-9.71,4.95-9.64,0-14.34-8.29-14.34-17.12,0-8.6,4.76-16.57,14.16-16.57a11.19,11.19,0,0,1,9.52,4.76h.06V269.34h8.77v44.13h-8.34Zm-7.66-22.12c-5.75,0-7.73,4.94-7.73,10.19,0,5,2.29,10.26,7.73,10.26,5.81,0,7.54-5.06,7.54-10.32s-1.86-10.13-7.54-10.13"/><polygon points="896.87 277.5 883.64 277.5 883.64 269.34 919.8 269.34 919.8 277.5 906.57 277.5 906.57 313.47 896.87 313.47 896.87 277.5"/><polygon points="923.63 269.34 956.63 269.34 956.63 277.5 933.33 277.5 933.33 286.96 954.72 286.96 954.72 294.5 933.33 294.5 933.33 305.31 957.13 305.31 957.13 313.47 923.63 313.47 923.63 269.34"/><path d="M961.2,269.34h19c11.43,0,20,7.17,20,21.82,0,12.79-6.56,22.31-20,22.31h-19Zm9.71,36h8.65c5.62,0,11-3.46,11-13.22,0-8.9-3.09-14.59-12.73-14.59h-6.92Z"/><path d="M1028,299.63c.25,5.56,3,8.09,7.85,8.09,3.53,0,6.37-2.16,6.92-4.14h7.73c-2.47,7.54-7.73,10.76-15,10.76-10.07,0-16.31-6.93-16.31-16.81,0-9.59,6.61-16.88,16.31-16.88,10.88,0,16.14,9.15,15.52,19Zm14.28-5.57c-.8-4.45-2.72-6.79-7-6.79a6.92,6.92,0,0,0-7.3,6.79Z"/><polygon points="1071.46 313.47 1061.7 313.47 1050.76 281.52 1059.97 281.52 1066.7 303.33 1066.83 303.33 1073.56 281.52 1082.28 281.52 1071.46 313.47"/><path d="M1090.68,299.63c.25,5.56,3,8.09,7.85,8.09,3.52,0,6.37-2.16,6.92-4.14h7.73c-2.47,7.54-7.73,10.76-15,10.76-10.07,0-16.32-6.93-16.32-16.81,0-9.59,6.62-16.88,16.32-16.88,10.88,0,16.13,9.15,15.51,19Zm14.28-5.57c-.8-4.45-2.72-6.79-7-6.79a6.91,6.91,0,0,0-7.29,6.79Z"/><path d="M1117.69,281.52H1126V286h.19a11.39,11.39,0,0,1,9.76-5.32c9.34,0,11.69,5.26,11.69,13.17v19.65h-8.78V295.42c0-5.25-1.55-7.85-5.62-7.85-4.76,0-6.8,2.66-6.8,9.15v16.75h-8.78Z"/><path d="M1164.23,281.52h6.43v5.87h-6.43v15.82c0,3,.74,3.71,3.71,3.71a13.24,13.24,0,0,0,2.72-.25v6.86a33.36,33.36,0,0,1-5.13.31c-5.38,0-10.08-1.23-10.08-7.6V287.39h-5.31v-5.87h5.31v-9.58h8.78Z"/><polygon class="cls-3" points="125.14 123.34 83.96 123.34 83.96 85.68 211.54 85.68 211.54 123.34 170.38 123.34 170.38 232.62 125.14 232.62 125.14 123.34"/><polygon class="cls-3" points="218.57 85.68 342.43 85.68 342.43 123.34 263.85 123.34 263.85 141.65 342.43 141.65 342.43 176.65 263.85 176.65 263.85 194.96 342.45 194.96 342.45 232.62 218.57 232.62 218.57 85.68"/><path class="cls-3" d="M350.05,85.68h74.29c49,0,66.28,36.22,66.28,73.25,0,45.08-23.87,73.69-75.12,73.69H350.05ZM395.32,195H413c28.2,0,32.33-22.85,32.33-36.66,0-9.24-2.9-35-35.62-35H395.32Z"/><polygon class="cls-3" points="555.67 175.99 541.86 153.09 528.39 175.99 495.22 175.99 526.71 129.69 496.39 85.39 529.57 85.39 541.86 107.29 554.5 85.39 587.67 85.39 557.36 129.69 588.85 175.99 555.67 175.99"/><text class="cls-4" transform="translate(605.81 232.64)">Auckland</text></g></g><g class="cls-5"><g class="cls-6"><path class="cls-7" d="M223.92,1445.28a69.83,69.83,0,1,1-69.83-69.83,69.83,69.83,0,0,1,69.83,69.83"/><path class="cls-8" d="M154.64,1484.22c-19.18.06-39.14-16.32-39.23-42.61-.06-17.39,9.32-34.13,21.31-44.06,11.7-9.68,27.73-15.9,42.26-16a17.6,17.6,0,0,1,5,.56c-12.7,2.64-22.82,14.46-22.77,27.88a7.57,7.57,0,0,0,.08,1.13c21.27,5.18,30.92,18,31,35.77s-14,37.2-37.65,37.28"/><polygon class="cls-7" points="269.02 1474.2 247.66 1423.25 261.62 1423.25 274.94 1457.08 287.83 1423.25 301.15 1423.25 280.44 1474.2 269.02 1474.2"/><path class="cls-7" d="M351.21,1448.52a32,32,0,0,1-1.53,9.77,27.07,27.07,0,0,1-4.55,8.62,22.43,22.43,0,0,1-7.61,6.13,25.87,25.87,0,0,1-21.46,0,22.53,22.53,0,0,1-7.61-6.13,26.85,26.85,0,0,1-4.54-8.62,31.71,31.71,0,0,1-1.54-9.77,31.28,31.28,0,0,1,1.54-9.73,26.31,26.31,0,0,1,4.54-8.51,22.24,22.24,0,0,1,7.61-6,23.88,23.88,0,0,1,10.73-2.28,23.54,23.54,0,0,1,10.68,2.28,22.93,22.93,0,0,1,7.61,6,26.07,26.07,0,0,1,4.6,8.51,31.56,31.56,0,0,1,1.53,9.73m-12.9-.06a23.74,23.74,0,0,0-.74-6,14.57,14.57,0,0,0-2.22-4.93,11.25,11.25,0,0,0-3.59-3.29,10.73,10.73,0,0,0-9.94,0,11.25,11.25,0,0,0-3.59,3.29,14.57,14.57,0,0,0-2.22,4.93,25.26,25.26,0,0,0,0,12.14,15.87,15.87,0,0,0,2.17,4.94,10.52,10.52,0,0,0,3.59,3.34,10.09,10.09,0,0,0,5,1.22,9.82,9.82,0,0,0,5-1.22,11.19,11.19,0,0,0,3.59-3.34,15.28,15.28,0,0,0,2.22-4.94,23.55,23.55,0,0,0,.74-6.1"/><path class="cls-7" d="M391.64,1474.2l-.53-3.91a16.49,16.49,0,0,1-4.74,3.54,14.82,14.82,0,0,1-7,1.54,18.81,18.81,0,0,1-9.27-2.22,20.92,20.92,0,0,1-6.74-5.92,26.93,26.93,0,0,1-4.17-8.57,36.21,36.21,0,0,1-1.42-10.14,32.48,32.48,0,0,1,1.48-9.73,25.58,25.58,0,0,1,4.47-8.51,22.36,22.36,0,0,1,7.54-6,23.4,23.4,0,0,1,10.64-2.28,28.68,28.68,0,0,1,8.64,1.47V1403.7h13.11v70.5Zm-1.06-39.74a19.34,19.34,0,0,0-7-1.48,12.25,12.25,0,0,0-5.79,1.27,11.46,11.46,0,0,0-4,3.45,15.81,15.81,0,0,0-2.37,4.88,19.63,19.63,0,0,0-.79,5.57,26.46,26.46,0,0,0,.69,6.1,15.67,15.67,0,0,0,2.1,5.09,11.46,11.46,0,0,0,3.57,3.5,9.59,9.59,0,0,0,5.1,1.32,10.65,10.65,0,0,0,4.95-1.32,8.65,8.65,0,0,0,3.57-3.13Z"/><path class="cls-7" d="M441.64,1474.16l-.52-3.81a14.4,14.4,0,0,1-5.41,3.68,19,19,0,0,1-7.21,1.34,18.2,18.2,0,0,1-6.32-1.11,16.74,16.74,0,0,1-5.36-3.18,15.51,15.51,0,0,1-5.19-11.89,14.57,14.57,0,0,1,1.48-6.71,14.76,14.76,0,0,1,4-4.91,22.24,22.24,0,0,1,5.84-3.28,36.29,36.29,0,0,1,6.89-1.9,47.34,47.34,0,0,1,5.58-.8c2-.17,3.69-.33,5-.47v-.74q0-4.23-2.18-6a9.14,9.14,0,0,0-6-1.8,16.77,16.77,0,0,0-4.25.53,19.83,19.83,0,0,0-3.62,1.32,28.17,28.17,0,0,0-2.81,1.59,18.29,18.29,0,0,0-2,1.43l-4.33-9.2a19.39,19.39,0,0,1,2.59-1.8,30.29,30.29,0,0,1,4.22-2.06,35.5,35.5,0,0,1,5.61-1.69,31,31,0,0,1,6.71-.69,25.39,25.39,0,0,1,7.72,1.11,15.55,15.55,0,0,1,6,3.49,16.15,16.15,0,0,1,4,6,24.25,24.25,0,0,1,1.42,8.81v32.75Zm-1.05-23.85c-1.42.07-2.87.2-4.36.37s-2.91.41-4.26.69q-4.25.84-5.9,2.91a7,7,0,0,0-1.65,4.49,5,5,0,0,0,1.86,4.07,8.09,8.09,0,0,0,5.27,1.53,12.15,12.15,0,0,0,4.94-1,14.56,14.56,0,0,0,4.1-2.65Z"/><path class="cls-7" d="M494.09,1415.32a19.29,19.29,0,0,0-2.48-.89,16.79,16.79,0,0,0-4.92-.59,6.72,6.72,0,0,0-4.6,1.64c-1.23,1.1-1.85,2.87-1.85,5.34v2.43h11v10.57H480.35v40.38H467.24v-40.38h-6.76v-10.57h6.76v-2.75a24.27,24.27,0,0,1,1.27-8.4,14.62,14.62,0,0,1,3.54-5.6,13.91,13.91,0,0,1,5.34-3.17,21.23,21.23,0,0,1,6.66-1,28.92,28.92,0,0,1,7.87.9,23.21,23.21,0,0,1,3.65,1.22Z"/><path class="cls-7" d="M542.72,1448.52a31.71,31.71,0,0,1-1.54,9.77,26.85,26.85,0,0,1-4.54,8.62A22.53,22.53,0,0,1,529,1473a25.87,25.87,0,0,1-21.46,0,22.43,22.43,0,0,1-7.61-6.13,26.87,26.87,0,0,1-4.55-8.62,32,32,0,0,1-1.53-9.77,31.56,31.56,0,0,1,1.53-9.73,26.33,26.33,0,0,1,4.55-8.51,22.15,22.15,0,0,1,7.61-6A23.85,23.85,0,0,1,518.3,1422a23.57,23.57,0,0,1,10.68,2.28,23,23,0,0,1,7.61,6,25.86,25.86,0,0,1,4.59,8.51,31.28,31.28,0,0,1,1.54,9.73m-12.9-.06a24.2,24.2,0,0,0-.74-6,14.57,14.57,0,0,0-2.22-4.93,11.36,11.36,0,0,0-3.59-3.29,10.73,10.73,0,0,0-9.94,0,11.25,11.25,0,0,0-3.59,3.29,14.57,14.57,0,0,0-2.22,4.93,25.26,25.26,0,0,0,0,12.14,16.09,16.09,0,0,0,2.16,4.94,10.55,10.55,0,0,0,3.6,3.34,10.09,10.09,0,0,0,5,1.22,9.82,9.82,0,0,0,5-1.22,11.29,11.29,0,0,0,3.59-3.34,15.28,15.28,0,0,0,2.22-4.94,24,24,0,0,0,.74-6.1"/><path class="cls-7" d="M583.41,1474.2v-29.07c0-3.87-.82-6.87-2.44-9a8,8,0,0,0-6.76-3.17,10.69,10.69,0,0,0-5.66,1.58,24.45,24.45,0,0,0-4.49,3.49v36.15H551v-51H562.9l.63,4a22.63,22.63,0,0,1,6.93-3.91,22.91,22.91,0,0,1,7.77-1.38,21.8,21.8,0,0,1,7.4,1.22,14.44,14.44,0,0,1,5.81,3.86,17.81,17.81,0,0,1,3.75,6.87,34.3,34.3,0,0,1,1.32,10.15v30.12Z"/><path class="cls-7" d="M617.53,1452q.42,6.45,4,9.31a14.61,14.61,0,0,0,9.34,2.85,24.68,24.68,0,0,0,5-.48,22.64,22.64,0,0,0,4.14-1.21,25.58,25.58,0,0,0,3.08-1.48,9.4,9.4,0,0,0,1.91-1.37l3.49,10.67a24.38,24.38,0,0,1-6.45,3.12,42.47,42.47,0,0,1-5.71,1.38,42,42,0,0,1-7.19.58,28.17,28.17,0,0,1-9.46-1.59,21,21,0,0,1-7.87-4.92,23.87,23.87,0,0,1-5.39-8.29,31.51,31.51,0,0,1-2-11.84,32.45,32.45,0,0,1,1.85-11.42,24.12,24.12,0,0,1,5.07-8.35,22.13,22.13,0,0,1,7.51-5.18A23.32,23.32,0,0,1,628,1422a24.8,24.8,0,0,1,9,1.59,18.42,18.42,0,0,1,7.13,4.91,23.74,23.74,0,0,1,4.76,8.62,40.4,40.4,0,0,1,1.74,12.58V1452Zm19.76-9.4a13.51,13.51,0,0,0-1.11-4.6,9.92,9.92,0,0,0-2.23-3.17,9,9,0,0,0-2.88-1.8,8.72,8.72,0,0,0-3.13-.58,10.06,10.06,0,0,0-6.48,2.54c-2.06,1.69-3.26,4.22-3.62,7.61Z"/></g></g><g id="Rectangle_1" data-name="Rectangle 1"><rect x="1683.1" y="83.76" width="1433.09" height="1433.09"/></g><g id="O"><circle class="cls-8" cx="2757.92" cy="442.04" r="358.27" transform="translate(495.21 2079.61) rotate(-45)"/></g><g id="line_in_O" data-name="line in O"><rect class="cls-9" x="2743.58" y="119.59" width="28.66" height="644.89"/></g><g id="Vert_line_in_H" data-name="Vert line in H"><rect class="cls-8" x="2041.37" y="82.4" width="28.66" height="731.24"/></g><g id="Hor_line_in_H" data-name="Hor line in H"><rect x="1993.36" y="413.37" width="85.99" height="57.32"/></g><g id="P"><path class="cls-8" d="M2055.7,802.08q-7.2,0-14.33.36v-.36H1679v718.83h362.39V1375c4.75.23,9.53.36,14.33.36,158.3,0,286.62-128.33,286.62-286.62S2214,802.08,2055.7,802.08Z"/></g><g id="bottom_line_in_E" data-name="bottom line in E"><rect class="cls-8" x="2743.58" y="1248.58" width="374.83" height="28.66"/></g><g id="top_line_in_E" data-name="top line in E"><rect class="cls-8" x="2743.58" y="1005.67" width="374.83" height="28.66"/></g><path d="M100.32,830.2h10.2l15.26,43.13H116l-2.84-8.86H97.27l-2.92,8.86H84.92ZM99.72,857h11l-5.45-17Z"/><path d="M137.76,860a8.85,8.85,0,0,0,1.64,4.42q2.25,2.65,7.68,2.66a16.72,16.72,0,0,0,5.29-.7q3.85-1.35,3.86-5a3.68,3.68,0,0,0-1.89-3.3,20.12,20.12,0,0,0-6-2l-4.67-1q-6.88-1.51-9.46-3.31-4.36-3-4.36-9.33a12.4,12.4,0,0,1,4.27-9.63q4.26-3.82,12.53-3.83a19.2,19.2,0,0,1,11.77,3.61q4.88,3.62,5.11,10.49h-8.66a6.18,6.18,0,0,0-3.48-5.53,12,12,0,0,0-5.37-1.08,10.28,10.28,0,0,0-5.7,1.4,4.46,4.46,0,0,0-2.13,3.93,3.7,3.7,0,0,0,2.1,3.45A25.88,25.88,0,0,0,146,847l7.57,1.79a19.15,19.15,0,0,1,7.46,3.13q3.85,3,3.86,8.81a12.38,12.38,0,0,1-4.57,9.82q-4.57,3.9-12.91,3.9-8.52,0-13.4-3.84A12.73,12.73,0,0,1,129.16,860Z"/><path d="M203.41,834.79a11,11,0,0,1,2,6.59,9.57,9.57,0,0,1-2,6.35,10.33,10.33,0,0,1-3.29,2.45,9.58,9.58,0,0,1,5,3.81,11.39,11.39,0,0,1,1.68,6.32,12.62,12.62,0,0,1-1.92,6.88,12.13,12.13,0,0,1-3.06,3.39,11.89,11.89,0,0,1-4.87,2.17,30,30,0,0,1-6.1.58H171.39V830.2h20.84C197.49,830.27,201.22,831.81,203.41,834.79ZM180,837.69v9.51h10.48a8.71,8.71,0,0,0,4.57-1.07,4.08,4.08,0,0,0,1.75-3.79c0-2-.77-3.33-2.32-4a16.2,16.2,0,0,0-5.1-.67Zm0,16.65v11.5h10.47a10.14,10.14,0,0,0,4.37-.76c1.89-.94,2.84-2.73,2.84-5.39a4.63,4.63,0,0,0-2.75-4.62,10.87,10.87,0,0,0-4.31-.73Z"/><path d="M237,830.2l5.7,24.7,1.24,6.87,1.24-6.73,4.87-24.84h9.51l5.13,24.69,1.31,6.88,1.33-6.61,5.76-25h9.17l-12.13,43.13h-8.63l-5.21-25.22-1.52-8.34-1.53,8.34-5.21,25.22H239.7L227.47,830.2Z"/><path d="M297.51,853.93a13.59,13.59,0,0,0,3.33-.73,2.51,2.51,0,0,0,1.8-2.37,2.81,2.81,0,0,0-1.38-2.71,8.69,8.69,0,0,0-4.05-.75c-2,0-3.41.49-4.24,1.47a6,6,0,0,0-1.19,2.92h-8a12.2,12.2,0,0,1,2.35-6.87q3.33-4.21,11.41-4.22a20.35,20.35,0,0,1,9.34,2.08q4.1,2.09,4.09,7.84v14.64c0,1,0,2.24.06,3.68a4.57,4.57,0,0,0,.5,2.23,2.94,2.94,0,0,0,1.22,1v1.23h-9.07a9,9,0,0,1-.52-1.81c-.1-.57-.18-1.21-.24-1.93a17.29,17.29,0,0,1-4,3.19,12.16,12.16,0,0,1-6.12,1.55,10.55,10.55,0,0,1-7.2-2.48,8.75,8.75,0,0,1-2.84-7c0-3.93,1.52-6.76,4.57-8.52a20.34,20.34,0,0,1,7.37-2.05Zm5.1,3.89a10.2,10.2,0,0,1-1.62.81,14.56,14.56,0,0,1-2.24.57l-1.9.35a12.4,12.4,0,0,0-3.83,1.14,3.81,3.81,0,0,0-2,3.54,3.71,3.71,0,0,0,1.2,3.09,4.6,4.6,0,0,0,2.93.95,8.77,8.77,0,0,0,5-1.58c1.53-1.05,2.33-3,2.39-5.77Z"/><path d="M314.93,847.67v-5.94h4.45v-8.9h8.25v8.9h5.18v5.94h-5.18v16.85a3.82,3.82,0,0,0,.5,2.45c.33.32,1.34.48,3,.48H332l.83-.05v6.24l-3.95.14c-3.94.14-6.63-.55-8.08-2a6.12,6.12,0,0,1-1.4-4.42V847.67Z"/><path d="M359,842.08a13,13,0,0,1,5.51,4.72,15.63,15.63,0,0,1,2.55,6.59,41.67,41.67,0,0,1,.27,6.33H344.05q.19,4.8,3.33,6.74a8.49,8.49,0,0,0,4.6,1.19,6.49,6.49,0,0,0,6.35-3.65h8.52a10.44,10.44,0,0,1-3.1,5.76q-4.28,4.65-12,4.66a17.36,17.36,0,0,1-11.23-3.93q-4.87-3.93-4.87-12.77,0-8.29,4.39-12.71a15.39,15.39,0,0,1,11.41-4.42A18.06,18.06,0,0,1,359,842.08Zm-12.48,7.2a8.81,8.81,0,0,0-2.22,4.94h14.37a7,7,0,0,0-2.22-5,7.35,7.35,0,0,0-4.95-1.72A6.64,6.64,0,0,0,346.47,849.28Z"/><path d="M389.22,840.69l.72,0v8.55q-.79-.09-1.41-.12l-1,0q-5,0-6.76,3.28a12.66,12.66,0,0,0-1,5.68v15.24h-8.4v-31.9h8V847a17.7,17.7,0,0,1,3.37-4.36,9.19,9.19,0,0,1,6.08-2Z"/><path d="M408,829.8l1.76.13v6.79c-.47-.06-1.26-.1-2.36-.13a2.7,2.7,0,0,0-2.28.73,2.66,2.66,0,0,0-.63,1.71v2.7H410v5.88h-5.47v25.72h-8.28V847.61h-4.68v-5.88h4.56v-2.05q0-5.13,1.73-7c1.21-1.92,4.12-2.87,8.75-2.87C407.11,829.76,407.59,829.77,408,829.8Z"/><path d="M432.5,840.69l.72,0v8.55q-.8-.09-1.41-.12l-1,0q-5,0-6.76,3.28a12.8,12.8,0,0,0-1,5.68v15.24h-8.4v-31.9h8V847a17.7,17.7,0,0,1,3.37-4.36,9.2,9.2,0,0,1,6.09-2Z"/><path d="M464.71,869.43q-4,5-12.26,5c-5.49,0-9.57-1.67-12.27-5a19.82,19.82,0,0,1,0-24c2.7-3.37,6.78-5.06,12.27-5.06s9.57,1.69,12.26,5.06a19.78,19.78,0,0,1,0,24ZM458,864.82c1.3-1.73,2-4.2,2-7.39s-.66-5.66-2-7.38a7.41,7.41,0,0,0-11.26,0q-2,2.58-2,7.38c0,3.19.66,5.66,2,7.39a7.4,7.4,0,0,0,11.26,0Z"/><path d="M500.44,843.26q3.13,2.6,3.13,8.59v21.48H495v-19.4a8.94,8.94,0,0,0-.67-3.86c-.82-1.64-2.36-2.46-4.65-2.46a5.75,5.75,0,0,0-5.78,3.6,12.51,12.51,0,0,0-.81,4.86v17.26h-8.34V841.49h8.07v4.66a14.41,14.41,0,0,1,3-3.55,10.56,10.56,0,0,1,6.5-1.93A12.28,12.28,0,0,1,500.44,843.26Z"/><path d="M508.05,847.67v-5.94h4.45v-8.9h8.25v8.9h5.18v5.94h-5.18v16.85a3.82,3.82,0,0,0,.5,2.45c.33.32,1.34.48,3,.48h.81l.83-.05v6.24l-3.95.14c-3.94.14-6.63-.55-8.08-2a6.12,6.12,0,0,1-1.4-4.42V847.67Z"/><path d="M580,830.2v7.63h-12.9v35.5H558v-35.5H545V830.2Z"/><path d="M607.47,841.61a9.39,9.39,0,0,1,3.95,3.13,8.28,8.28,0,0,1,1.6,3.68,44.69,44.69,0,0,1,.29,6.17v18.74H604.8V853.91a8.6,8.6,0,0,0-.87-4.16q-1.14-2.24-4.3-2.23a5.9,5.9,0,0,0-5,2.21,10.16,10.16,0,0,0-1.7,6.32v17.28h-8.34v-43H593v15.22a10.21,10.21,0,0,1,4.18-3.88,11.79,11.79,0,0,1,5-1.09A13.52,13.52,0,0,1,607.47,841.61Z"/><path d="M641.94,842.08a13,13,0,0,1,5.52,4.72,15.75,15.75,0,0,1,2.54,6.59,41.67,41.67,0,0,1,.27,6.33H627q.19,4.8,3.34,6.74a8.43,8.43,0,0,0,4.59,1.19,7.06,7.06,0,0,0,4.64-1.46,7,7,0,0,0,1.71-2.19h8.52a10.48,10.48,0,0,1-3.09,5.76q-4.29,4.65-12,4.66a17.36,17.36,0,0,1-11.23-3.93q-4.87-3.93-4.87-12.77,0-8.29,4.4-12.71a15.36,15.36,0,0,1,11.4-4.42A18.06,18.06,0,0,1,641.94,842.08Zm-12.47,7.2a8.68,8.68,0,0,0-2.22,4.94h14.36a7,7,0,0,0-2.22-5,7.34,7.34,0,0,0-4.94-1.72A6.64,6.64,0,0,0,629.47,849.28Z"/><path d="M667.13,853.93a13.59,13.59,0,0,0,3.33-.73,2.51,2.51,0,0,0,1.8-2.37,2.81,2.81,0,0,0-1.38-2.71,8.69,8.69,0,0,0-4-.75c-2,0-3.42.49-4.25,1.47a6.09,6.09,0,0,0-1.18,2.92h-8a12.2,12.2,0,0,1,2.35-6.87q3.33-4.21,11.4-4.22a20.4,20.4,0,0,1,9.35,2.08q4.09,2.09,4.09,7.84v14.64c0,1,0,2.24.06,3.68a4.59,4.59,0,0,0,.49,2.23,3,3,0,0,0,1.23,1v1.23h-9.07a9.76,9.76,0,0,1-.53-1.81c-.09-.57-.17-1.21-.23-1.93a17.29,17.29,0,0,1-4,3.19,12.17,12.17,0,0,1-6.13,1.55,10.54,10.54,0,0,1-7.19-2.48,8.75,8.75,0,0,1-2.84-7c0-3.93,1.52-6.76,4.56-8.52a20.4,20.4,0,0,1,7.38-2.05Zm5.09,3.89a9.71,9.71,0,0,1-1.61.81,14.88,14.88,0,0,1-2.24.57l-1.9.35a12.31,12.31,0,0,0-3.83,1.14,3.79,3.79,0,0,0-2,3.54,3.71,3.71,0,0,0,1.2,3.09,4.6,4.6,0,0,0,2.93.95,8.72,8.72,0,0,0,5-1.58c1.54-1.05,2.34-3,2.39-5.77Z"/><path d="M684.55,847.67v-5.94H689v-8.9h8.26v8.9h5.18v5.94h-5.18v16.85a3.83,3.83,0,0,0,.49,2.45c.34.32,1.35.48,3,.48h.8l.84-.05v6.24l-3.95.14c-3.94.14-6.64-.55-8.08-2A6.08,6.08,0,0,1,689,867.3V847.67Z"/><path d="M725.5,840.69l.72,0v8.55q-.79-.09-1.41-.12l-1,0q-5,0-6.76,3.28a12.8,12.8,0,0,0-1,5.68v15.24H707.7v-31.9h8V847a17.48,17.48,0,0,1,3.36-4.36,9.2,9.2,0,0,1,6.09-2Z"/><path d="M751.89,842.08a13,13,0,0,1,5.52,4.72,15.75,15.75,0,0,1,2.54,6.59,41.67,41.67,0,0,1,.27,6.33H737q.19,4.8,3.34,6.74a8.43,8.43,0,0,0,4.59,1.19,7.06,7.06,0,0,0,4.64-1.46,7.14,7.14,0,0,0,1.71-2.19h8.52a10.44,10.44,0,0,1-3.1,5.76q-4.28,4.65-12,4.66a17.36,17.36,0,0,1-11.23-3.93q-4.87-3.93-4.87-12.77,0-8.29,4.39-12.71a15.39,15.39,0,0,1,11.41-4.42A18.06,18.06,0,0,1,751.89,842.08Zm-12.47,7.2a8.76,8.76,0,0,0-2.23,4.94h14.37a7,7,0,0,0-2.22-5,7.35,7.35,0,0,0-5-1.72A6.62,6.62,0,0,0,739.42,849.28Z"/><path d="M790.64,828.88h6.94l-16.79,44.45h-6.88Z"/><path d="M814.66,844.07v-5.68a36.57,36.57,0,0,0,5.52-.53,7.77,7.77,0,0,0,4.08-2.22,7.37,7.37,0,0,0,1.64-3,7.21,7.21,0,0,0,.32-1.7h7v42.43h-8.54V844.07Z"/><path d="M865.81,841.58a4.23,4.23,0,0,0-.79-2.25,4.56,4.56,0,0,0-4.06-2q-4.08,0-5.8,4.56a28.81,28.81,0,0,0-1.29,7.44,9.51,9.51,0,0,1,3.6-2.7,13.17,13.17,0,0,1,13.95,3,13.69,13.69,0,0,1,3.61,9.8,16.57,16.57,0,0,1-3.54,10.48q-3.54,4.53-11,4.53-8,0-11.83-6.7-3-5.24-2.95-13.52a60.22,60.22,0,0,1,.41-7.9,24.09,24.09,0,0,1,2.84-9,14.53,14.53,0,0,1,4.75-4.95,12.82,12.82,0,0,1,7-1.87q5.91,0,9.42,3a11.5,11.5,0,0,1,4,8.06Zm-9.89,23.91a5.89,5.89,0,0,0,4.68,2.16,5.18,5.18,0,0,0,4.38-2.09,8.71,8.71,0,0,0,1.59-5.43,8.13,8.13,0,0,0-1.81-5.69,5.82,5.82,0,0,0-4.45-2,6,6,0,0,0-3.77,1.28q-2.46,1.9-2.46,6.15A8.32,8.32,0,0,0,855.92,865.49Z"/><path d="M880.91,864.58h8.87v8.75h-8.87Z"/><path d="M898,844.07v-5.68a36.27,36.27,0,0,0,5.52-.53,7.76,7.76,0,0,0,4.09-2.22,7.36,7.36,0,0,0,1.63-3,6.72,6.72,0,0,0,.32-1.7h7v42.43H908V844.07Z"/><path d="M928,844.07v-5.68a36.27,36.27,0,0,0,5.52-.53,7.84,7.84,0,0,0,4.09-2.22,7.47,7.47,0,0,0,1.63-3,7.21,7.21,0,0,0,.32-1.7h7v42.43H938V844.07Z"/><path d="M961,864.58h8.87v8.75H961Z"/><path d="M978,844.07v-5.68a36.27,36.27,0,0,0,5.52-.53,7.76,7.76,0,0,0,4.09-2.22,7.36,7.36,0,0,0,1.63-3,6.72,6.72,0,0,0,.32-1.7h7v42.43H988V844.07Z"/><path d="M1012.91,834.78a13.35,13.35,0,0,1,10.23-4.23q9.69,0,13.29,8.57,2,4.86,2,12.79a36.6,36.6,0,0,1-2,12.85q-3.75,9.79-13.76,9.8a14,14,0,0,1-8.57-2.82,11.14,11.14,0,0,1-4.36-8.24h8.31a5,5,0,0,0,1.58,3,4.9,4.9,0,0,0,3.42,1.17q4.13,0,5.8-4.56a27,27,0,0,0,1.14-7.35,9,9,0,0,1-2.43,2.2,11.08,11.08,0,0,1-5.77,1.4,13.1,13.1,0,0,1-9-3.49q-3.93-3.51-3.92-10.09C1009,841.28,1010.29,837.59,1012.91,834.78Zm14,16.84q2.83-1.82,2.84-6.29a8.91,8.91,0,0,0-1.69-5.71,5.57,5.57,0,0,0-4.61-2.11,5.7,5.7,0,0,0-3.65,1.2q-2.42,1.88-2.41,6.35a8.83,8.83,0,0,0,1.54,5.66,5.74,5.74,0,0,0,4.73,1.89A5.87,5.87,0,0,0,1027,851.62Z"/><g id="Tumanako"><path class="cls-3" d="M1741.81,1080.73h-5.88v-13.88h5.88v-11.58h16.77v11.58h8.69v13.88h-8.69v16c0,2.55,1.11,3.66,3.92,3.66h4.85v14.22h-7.23c-10.56,0-18.31-4.43-18.31-18.14Z"/><path class="cls-3" d="M1827.3,1114.62h-16.78v-6.82c-2.72,4.09-7.75,7.24-14.47,7.24-11.07,0-18-7.83-18-20.43v-27.76h16.6v25.63c0,5.53,3.16,8.77,7.92,8.77s7.92-3.24,7.92-8.77v-25.63h16.78Z"/><path class="cls-3" d="M1905.29,1089c0-5.2-3.15-8.09-7.92-8.09s-7.92,2.89-7.92,8.09v25.63h-16.69V1089c0-5.2-3.06-8.09-7.83-8.09-4.94,0-8,2.89-8,8.09v25.63h-16.69v-47.77h16.69v6.3c2.72-3.83,7.41-6.73,13.88-6.73,7.15,0,12.77,3.24,15.92,8.77a19.17,19.17,0,0,1,15.92-8.77c12.09,0,19.33,7.84,19.33,20.35v27.85h-16.69Z"/><path class="cls-3" d="M1952.12,1066.25c6.81,0,11.58,3,14.05,7.24v-6.64h16.69v47.77h-16.69V1108c-2.47,4.26-7.32,7.24-14.05,7.24-11.32,0-20.35-9.28-20.35-24.52S1940.8,1066.25,1952.12,1066.25Zm5.37,14.56c-4.77,0-8.69,3.41-8.69,9.88s3.92,10,8.69,10,8.68-3.49,8.68-10S1962.17,1080.81,1957.49,1080.81Z"/><path class="cls-3" d="M2028.33,1089c0-5.54-3.06-8.77-7.83-8.77-4.94,0-8,3.23-8,8.77v25.63h-16.68v-47.77h16.68v6.81a17.26,17.26,0,0,1,14.56-7.24c11.07,0,18,7.84,18,20.35v27.85h-16.69Z"/><path class="cls-3" d="M2075.25,1066.25c6.81,0,11.58,3,14.05,7.24v-6.64H2106v47.77H2089.3V1108c-2.47,4.26-7.33,7.24-14.05,7.24-11.33,0-20.35-9.28-20.35-24.52S2063.92,1066.25,2075.25,1066.25Zm5.36,14.56c-4.76,0-8.68,3.41-8.68,9.88s3.92,10,8.68,10,8.69-3.49,8.69-10S2085.3,1080.81,2080.61,1080.81Z"/><path class="cls-3" d="M2118.93,1051.61h16.69v34l13.2-18.73h20l-18.81,24,19.16,23.76h-20.35l-13.2-19.59v19.59h-16.69Z"/><path class="cls-3" d="M2199.65,1115.21c-14.22,0-25-9.28-25-24.52s10.82-24.44,25-24.44,25,9.29,25,24.44S2213.87,1115.21,2199.65,1115.21Zm0-14.47c4.26,0,8.17-3.15,8.17-10s-3.83-10-8.08-10-8,3.15-8,10S2195.31,1100.74,2199.65,1100.74Z"/><g id="u_line" data-name="u line"><rect class="cls-3" x="1784.86" y="1049.26" width="35.9" height="7.17"/></g></g></g></g></svg>