<svg xmlns="http://www.w3.org/2000/svg"  xmlns:xlink="http://www.w3.org/1999/xlink"  class="a-logo" viewBox="0 0 230 125">
                <title>Qb Studios logo</title>
                <path d="M 229 81.5972C 229 57.2917 209.771 38.1944 187.92 38.1944C 171.313 38.1944 160.824 49.4792 160.824 49.4792L 160.824 1.73614L 143.344 1.73614L 143.344 124.349L 160.824 124.349L 160.824 113.715C 160.824 113.715 171.313 125 187.92 125C 209.771 125 229 105.903 229 81.5972ZM 211.519 81.5972C 211.519 97.2222 199.282 109.375 186.172 109.375C 173.061 109.375 160.824 97.2222 160.824 81.5972C 160.824 65.9722 173.061 53.8195 186.172 53.8195C 199.282 53.8195 211.519 65.9722 211.519 81.5972ZM 137.007 124.349L 111.441 124.349L 101.389 114.366C 91.1193 121.094 78.4456 125 64.6794 125C 27.9695 125 -5.33475e-05 97.2223 -5.33475e-05 62.5C -5.33475e-05 27.7778 27.9695 -1.32455e-05 64.6794 -1.32455e-05C 101.389 -1.32455e-05 129.359 27.7778 129.359 62.5C 129.359 77.691 124.115 91.5799 114.937 102.214L 137.007 124.349ZM 64.4608 17.3611C 39.1135 17.3611 19.0105 37.3264 19.0105 62.5C 19.0105 87.6736 39.1135 107.639 64.4608 107.639C 73.2013 107.639 81.2863 105.252 88.0602 101.128L 57.687 70.9636L 70.5793 58.1598L 101.608 88.9757C 107.071 81.5972 110.13 72.4827 110.13 62.5C 109.911 37.3264 89.8082 17.3611 64.4608 17.3611Z"></path>
            </svg>