<?xml version="1.0" encoding="UTF-8" standalone="no"?>
<svg
   xmlns:dc="http://purl.org/dc/elements/1.1/"
   xmlns:cc="http://creativecommons.org/ns#"
   xmlns:rdf="http://www.w3.org/1999/02/22-rdf-syntax-ns#"
   xmlns:svg="http://www.w3.org/2000/svg"
   xmlns="http://www.w3.org/2000/svg"
   xmlns:sodipodi="http://sodipodi.sourceforge.net/DTD/sodipodi-0.dtd"
   xmlns:inkscape="http://www.inkscape.org/namespaces/inkscape"
   id="Layer_1"
   data-name="Layer 1"
   viewBox="0 0 437.84159 236.28435"
   version="1.1"
   sodipodi:docname="TEDxAkl-may-19-banner-2.svg"
   width="437.84161"
   height="236.28436"
   inkscape:version="0.92.4 (33fec40, 2019-01-16)">
  <metadata
     id="metadata468">
    <rdf:RDF>
      <cc:Work
         rdf:about="">
        <dc:format>image/svg+xml</dc:format>
        <dc:type
           rdf:resource="http://purl.org/dc/dcmitype/StillImage" />
        <dc:title>Artboard 10</dc:title>
      </cc:Work>
    </rdf:RDF>
  </metadata>
  <sodipodi:namedview
     pagecolor="#ffffff"
     bordercolor="#666666"
     borderopacity="1"
     objecttolerance="10"
     gridtolerance="10"
     guidetolerance="10"
     inkscape:pageopacity="0"
     inkscape:pageshadow="2"
     inkscape:window-width="2560"
     inkscape:window-height="1376"
     id="namedview466"
     showgrid="false"
     fit-margin-top="0"
     fit-margin-left="0"
     fit-margin-right="0"
     fit-margin-bottom="0"
     inkscape:zoom="2.7653281"
     inkscape:cx="130.19668"
     inkscape:cy="182.42278"
     inkscape:window-x="0"
     inkscape:window-y="27"
     inkscape:window-maximized="1"
     inkscape:current-layer="Layer_1" />
  <defs
     id="defs261">
    <style
       id="style259">.cls-1{fill:#e42e26;}.cls-2{fill:#231f20;}.cls-3{fill:#e41e26;}.cls-4{fill:#fff;}</style>
  </defs>
  <title
     id="title263">Artboard 10</title>
  <polygon
     class="cls-1"
     points="82.22,285.26 83.53,287.19 84.81,285.26 87.06,285.26 84.63,288.73 87.36,292.67 85.04,292.67 83.5,290.33 81.95,292.67 79.67,292.67 82.34,288.77 79.9,285.26 "
     id="polygon265"
     style="fill:#e42e26"
     transform="translate(-78.693047,-239.66081)" />
  <path
     d="m 18.306953,51.689188 h -7.23 v -1.53 h 7.23 z m 0,-3.07 h -7.23 v -1.53 h 7.23 z"
     id="path267"
     inkscape:connector-curvature="0" />
  <path
     d="m 21.826953,45.599188 h 2 v 7.41 h -2 z m 2,-1.15 h -2 v -1.67 h 2 z"
     id="path269"
     inkscape:connector-curvature="0" />
  <path
     d="m 25.176953,45.599188 h 1.93 v 1 0 a 2.63,2.63 0 0 1 2.26,-1.23 c 2.16,0 2.71,1.22 2.71,3.05 v 4.56 h -2 v -4.19 c 0,-1.21 -0.36,-1.81 -1.3,-1.81 -1.1,0 -1.58,0.61 -1.58,2.12 v 3.88 h -2 z"
     id="path271"
     inkscape:connector-curvature="0" />
  <path
     d="m 36.896953,46.929188 c -1.33,0 -1.79,1.15 -1.79,2.37 0,1.22 0.53,2.38 1.79,2.38 1.26,0 1.75,-1.18 1.75,-2.4 0,-1.22 -0.43,-2.35 -1.75,-2.35 m 1.77,5.13 v 0 a 2.48,2.48 0 0 1 -2.25,1.15 c -2.24,0 -3.33,-1.92 -3.33,-4 0,-2.08 1.11,-3.84 3.28,-3.84 a 2.59,2.59 0 0 1 2.21,1.1 v 0 -3.72 h 2 v 10.23 h -1.94 z"
     id="path273"
     inkscape:connector-curvature="0" />
  <path
     d="m 46.836953,48.509188 c -0.19,-1 -0.63,-1.58 -1.62,-1.58 a 1.61,1.61 0 0 0 -1.69,1.58 z m -3.31,1.29 c 0.06,1.29 0.69,1.88 1.82,1.88 a 1.67,1.67 0 0 0 1.6,-1 h 1.79 a 3.33,3.33 0 0 1 -3.46,2.49 3.61,3.61 0 0 1 -3.78,-3.9 3.71,3.71 0 0 1 3.78,-3.91 c 2.52,0 3.74,2.12 3.59,4.4 z"
     id="path275"
     inkscape:connector-curvature="0" />
  <path
     d="m 55.306953,49.339188 c 0,-1.18 -0.47,-2.4 -1.77,-2.4 -1.3,0 -1.77,1.19 -1.77,2.4 0,1.21 0.46,2.34 1.78,2.34 1.32,0 1.76,-1.15 1.76,-2.34 m -5.5,-3.73 h 1.94 v 0.95 0 a 2.47,2.47 0 0 1 2.21,-1.15 c 2.32,0 3.37,1.88 3.37,4 0,2.12 -1.09,3.83 -3.26,3.83 a 2.65,2.65 0 0 1 -2.22,-1.12 v 0 3.53 h -2 z"
     id="path277"
     inkscape:connector-curvature="0" />
  <path
     d="m 63.236953,48.509188 c -0.18,-1 -0.63,-1.58 -1.61,-1.58 a 1.62,1.62 0 0 0 -1.7,1.58 z m -3.31,1.29 c 0.06,1.29 0.69,1.88 1.82,1.88 a 1.69,1.69 0 0 0 1.61,-1 h 1.79 a 3.34,3.34 0 0 1 -3.47,2.49 3.62,3.62 0 0 1 -3.78,-3.9 3.71,3.71 0 0 1 3.78,-3.91 c 2.52,0 3.74,2.12 3.6,4.4 z"
     id="path279"
     inkscape:connector-curvature="0" />
  <path
     d="m 66.186953,45.599188 h 1.94 v 1 0 a 2.66,2.66 0 0 1 2.27,-1.23 c 2.16,0 2.7,1.22 2.7,3.05 v 4.56 h -2 v -4.19 c 0,-1.21 -0.36,-1.81 -1.3,-1.81 -1.11,0 -1.58,0.61 -1.58,2.12 v 3.88 h -2 z"
     id="path281"
     inkscape:connector-curvature="0" />
  <path
     d="m 77.906953,46.929188 c -1.33,0 -1.79,1.15 -1.79,2.37 0,1.22 0.53,2.38 1.79,2.38 1.26,0 1.75,-1.18 1.75,-2.4 0,-1.22 -0.43,-2.35 -1.75,-2.35 m 1.78,5.13 v 0 a 2.46,2.46 0 0 1 -2.25,1.15 c -2.23,0 -3.32,-1.92 -3.32,-4 0,-2.08 1.1,-3.84 3.28,-3.84 a 2.61,2.61 0 0 1 2.21,1.1 v 0 -3.72 h 2 v 10.23 h -1.93 z"
     id="path283"
     inkscape:connector-curvature="0" />
  <path
     d="m 87.856953,48.509188 c -0.19,-1 -0.63,-1.58 -1.62,-1.58 a 1.61,1.61 0 0 0 -1.69,1.58 z m -3.31,1.29 c 0,1.29 0.68,1.88 1.82,1.88 a 1.69,1.69 0 0 0 1.6,-1 h 1.79 a 3.33,3.33 0 0 1 -3.46,2.49 3.62,3.62 0 0 1 -3.79,-3.9 3.72,3.72 0 0 1 3.79,-3.91 c 2.52,0 3.73,2.12 3.59,4.4 z"
     id="path285"
     inkscape:connector-curvature="0" />
  <path
     d="m 90.806953,45.599188 h 1.93 v 1 0 a 2.66,2.66 0 0 1 2.27,-1.23 c 2.16,0 2.71,1.22 2.71,3.05 v 4.56 h -2 v -4.19 c 0,-1.21 -0.36,-1.81 -1.3,-1.81 -1.1,0 -1.58,0.61 -1.58,2.12 v 3.88 h -2 z"
     id="path287"
     inkscape:connector-curvature="0" />
  <path
     d="m 101.59695,45.599188 h 1.49 v 1.36 h -1.49 v 3.67 c 0,0.69 0.17,0.86 0.86,0.86 a 2.74,2.74 0 0 0 0.63,-0.06 v 1.59 a 7.54,7.54 0 0 1 -1.19,0.07 c -1.25,0 -2.339997,-0.28 -2.339997,-1.76 v -4.37 h -1.25 v -1.36 h 1.23 v -2.26 h 1.999997 z"
     id="path289"
     inkscape:connector-curvature="0" />
  <rect
     x="103.82696"
     y="42.77919"
     width="2.04"
     height="10.23"
     id="rect291" />
  <path
     d="m 110.83695,53.939188 a 2.34,2.34 0 0 1 -2.56,1.68 10.32,10.32 0 0 1 -1.24,-0.08 v -1.67 a 11.7,11.7 0 0 0 1.19,0.07 1,1 0 0 0 0.7,-1.39 l -2.62,-6.95 h 2.18 l 1.68,5.07 v 0 l 1.61,-5.07 h 2.11 z"
     id="path293"
     inkscape:connector-curvature="0" />
  <path
     d="m 121.61695,51.679188 c 1.39,0 1.81,-1.19 1.81,-2.37 0,-1.18 -0.42,-2.38 -1.81,-2.38 -1.39,0 -1.79,1.19 -1.79,2.38 0,1.19 0.42,2.37 1.79,2.37 m 0,-6.28 a 3.91,3.91 0 1 1 -3.82,3.91 3.64,3.64 0 0 1 3.82,-3.91"
     id="path295"
     inkscape:connector-curvature="0" />
  <path
     d="m 126.20695,45.599188 h 1.93 v 1.38 0 a 2.61,2.61 0 0 1 2.36,-1.58 1.63,1.63 0 0 1 0.45,0.07 v 1.87 a 4,4 0 0 0 -0.73,-0.07 c -1.49,0 -2,1.08 -2,2.38 v 3.34 h -2 z"
     id="path297"
     inkscape:connector-curvature="0" />
  <path
     d="m 136.67695,49.209188 c 0,-1.2 -0.42,-2.28 -1.73,-2.28 -1.15,0 -1.65,1 -1.65,2.11 0,1.11 0.4,2.22 1.65,2.22 a 1.82,1.82 0 0 0 1.73,-2.05 m 1.93,3.33 c 0,1.21 -0.43,3.28 -3.84,3.28 -1.46,0 -3.16,-0.69 -3.26,-2.38 h 2 a 1.37,1.37 0 0 0 1.52,1 c 1.13,0 1.64,-0.78 1.63,-1.84 v -1 0 a 2.5,2.5 0 0 1 -2.22,1.14 c -2.22,0 -3.17,-1.69 -3.17,-3.72 0,-2.03 1.11,-3.67 3.19,-3.67 a 2.3,2.3 0 0 1 2.2,1.19 v 0 -1 h 1.93 z"
     id="path299"
     inkscape:connector-curvature="0" />
  <path
     d="m 144.30695,49.339188 a 3.87,3.87 0 0 1 -1.69,0.43 c -0.63,0.13 -1.21,0.35 -1.21,1.09 0,0.74 0.59,0.95 1.25,0.95 a 1.52,1.52 0 0 0 1.65,-1.67 z m -4.7,-1.5 c 0.11,-1.91 1.82,-2.48 3.48,-2.48 1.48,0 3.25,0.33 3.25,2.11 v 3.87 a 3.75,3.75 0 0 0 0.26,1.65 h -2.06 a 2.88,2.88 0 0 1 -0.15,-0.72 3.36,3.36 0 0 1 -2.49,0.92 c -1.4,0 -2.52,-0.7 -2.52,-2.22 0,-1.68 1.26,-2.08 2.52,-2.25 1.26,-0.17 2.41,-0.14 2.41,-1 0,-0.86 -0.6,-1 -1.32,-1 -0.72,0 -1.28,0.32 -1.35,1.12 z"
     id="path301"
     inkscape:connector-curvature="0" />
  <path
     d="m 147.60695,45.599188 h 1.94 v 1 0 a 2.63,2.63 0 0 1 2.26,-1.23 c 2.17,0 2.71,1.22 2.71,3.05 v 4.56 h -2 v -4.19 c 0,-1.21 -0.36,-1.81 -1.31,-1.81 -0.95,0 -1.57,0.61 -1.57,2.12 v 3.88 h -2 z"
     id="path303"
     inkscape:connector-curvature="0" />
  <path
     d="m 155.58695,45.599188 h 2 v 7.41 h -2 z m 2,-1.15 h -2 v -1.67 h 2 z"
     id="path305"
     inkscape:connector-curvature="0" />
  <polygon
     points="237.46,286.79 237.46,285.26 243.71,285.26 243.71,286.79 239.85,291.13 243.98,291.13 243.98,292.67 237.18,292.67 237.18,291.13 241.03,286.79 "
     id="polygon307"
     transform="translate(-78.693047,-239.66081)" />
  <path
     d="m 171.07695,48.509188 c -0.19,-1 -0.63,-1.58 -1.62,-1.58 a 1.61,1.61 0 0 0 -1.69,1.58 z m -3.31,1.29 c 0,1.29 0.69,1.88 1.82,1.88 a 1.69,1.69 0 0 0 1.6,-1 h 1.79 a 3.33,3.33 0 0 1 -3.46,2.49 3.62,3.62 0 0 1 -3.79,-3.9 3.72,3.72 0 0 1 3.79,-3.91 c 2.52,0 3.74,2.12 3.59,4.4 z"
     id="path309"
     inkscape:connector-curvature="0" />
  <path
     d="m 177.53695,46.929188 c -1.33,0 -1.79,1.15 -1.79,2.37 0,1.22 0.53,2.38 1.79,2.38 1.26,0 1.75,-1.18 1.75,-2.4 0,-1.22 -0.43,-2.35 -1.75,-2.35 m 1.78,5.13 v 0 a 2.47,2.47 0 0 1 -2.25,1.15 c -2.24,0 -3.33,-1.92 -3.33,-4 0,-2.08 1.11,-3.84 3.28,-3.84 a 2.59,2.59 0 0 1 2.21,1.1 v 0 -3.72 h 2 v 10.23 h -1.92 z"
     id="path311"
     inkscape:connector-curvature="0" />
  <polygon
     points="264.3,282.44 272.68,282.44 272.68,284.33 269.61,284.33 269.61,292.67 267.36,292.67 267.36,284.33 264.3,284.33 "
     id="polygon313"
     transform="translate(-78.693047,-239.66081)" />
  <polygon
     points="281.21,284.33 275.81,284.33 275.81,286.52 280.77,286.52 280.77,288.27 275.81,288.27 275.81,290.78 281.33,290.78 281.33,292.67 273.56,292.67 273.56,282.44 281.21,282.44 "
     id="polygon315"
     transform="translate(-78.693047,-239.66081)" />
  <path
     d="m 205.82695,51.119188 h 2 c 1.3,0 2.55,-0.8 2.55,-3.07 0,-2.06 -0.72,-3.38 -2.95,-3.38 h -1.61 z m -2.25,-8.34 h 4.42 c 2.65,0 4.64,1.66 4.64,5.06 0,3 -1.52,5.17 -4.64,5.17 h -4.42 z"
     id="path317"
     inkscape:connector-curvature="0" />
  <path
     d="m 222.37695,48.509188 c -0.19,-1 -0.63,-1.58 -1.62,-1.58 a 1.61,1.61 0 0 0 -1.69,1.58 z m -3.31,1.29 c 0.06,1.29 0.69,1.88 1.82,1.88 a 1.69,1.69 0 0 0 1.61,-1 h 1.81 a 3.34,3.34 0 0 1 -3.47,2.49 3.61,3.61 0 0 1 -3.78,-3.9 3.71,3.71 0 0 1 3.78,-3.91 c 2.52,0 3.74,2.12 3.6,4.4 z"
     id="path319"
     inkscape:connector-curvature="0" />
  <polygon
     points="303.03,285.26 305.17,285.26 306.73,290.32 306.76,290.32 308.32,285.26 310.34,285.26 307.83,292.67 305.57,292.67 "
     id="polygon321"
     transform="translate(-78.693047,-239.66081)" />
  <path
     d="m 236.90695,48.509188 c -0.19,-1 -0.63,-1.58 -1.62,-1.58 a 1.61,1.61 0 0 0 -1.69,1.58 z m -3.31,1.29 c 0,1.29 0.69,1.88 1.82,1.88 a 1.69,1.69 0 0 0 1.6,-1 h 1.79 a 3.33,3.33 0 0 1 -3.46,2.49 3.62,3.62 0 0 1 -3.79,-3.9 3.72,3.72 0 0 1 3.79,-3.91 c 2.52,0 3.74,2.12 3.59,4.4 z"
     id="path323"
     inkscape:connector-curvature="0" />
  <path
     d="m 239.85695,45.599188 h 1.93 v 1 0 a 2.63,2.63 0 0 1 2.26,-1.23 c 2.16,0 2.71,1.22 2.71,3.05 v 4.56 h -2 v -4.19 c 0,-1.21 -0.35,-1.81 -1.3,-1.81 -1.1,0 -1.58,0.61 -1.58,2.12 v 3.88 h -2 z"
     id="path325"
     inkscape:connector-curvature="0" />
  <path
     d="m 250.64695,45.599188 h 1.49 v 1.36 h -1.49 v 3.67 c 0,0.69 0.17,0.86 0.86,0.86 a 2.74,2.74 0 0 0 0.63,-0.06 v 1.59 a 7.54,7.54 0 0 1 -1.19,0.07 c -1.25,0 -2.34,-0.28 -2.34,-1.76 v -4.37 h -1.23 v -1.36 h 1.23 v -2.26 h 2 z"
     id="path327"
     inkscape:connector-curvature="0" />
  <polygon
     class="cls-1"
     points="78.92,239.86 108.5,239.86 108.5,248.59 98.96,248.59 98.96,273.93 88.47,273.93 88.47,248.59 78.92,248.59 "
     id="polygon329"
     style="fill:#e42e26"
     transform="translate(-78.693047,-239.66081)" />
  <polygon
     class="cls-1"
     points="138.84,248.59 120.62,248.59 120.62,252.84 138.84,252.84 138.84,260.95 120.62,260.95 120.62,265.2 138.84,265.2 138.84,273.93 110.13,273.93 110.13,239.86 138.84,239.86 "
     id="polygon331"
     style="fill:#e42e26"
     transform="translate(-78.693047,-239.66081)" />
  <path
     class="cls-1"
     d="m 72.406953,25.539188 h 4.1 c 6.54,0 7.49,-5.3 7.49,-8.5 0,-2.14 -0.67,-8.1100004 -8.25,-8.1100004 h -3.34 z m -10.5,-25.34000038 h 17.23 c 11.35,0 15.36,8.39999998 15.36,17.00000038 0,10.45 -5.53,17.07 -17.41,17.07 h -15.18 z"
     id="path333"
     inkscape:connector-curvature="0"
     style="fill:#e42e26" />
  <polygon
     class="cls-1"
     points="181.95,260.8 174.26,260.8 181.56,250.07 174.53,239.8 182.22,239.8 185.07,244.87 188,239.8 195.69,239.8 188.66,250.07 195.96,260.8 188.27,260.8 185.07,255.49 "
     id="polygon335"
     style="fill:#e42e26"
     transform="translate(-78.693047,-239.66081)" />
  <path
     d="m 142.30695,20.339188 -5.22,-15.0000004 -5.43,15.0000004 z m -7.62,-20.00000038 h 5.19 l 12.31,33.92000038 h -5 l -3.54,-10.16 h -13.34 l -3.68,10.16 h -4.71 z"
     id="path337"
     inkscape:connector-curvature="0" />
  <path
     d="M 159.94695,9.5391876 V 25.959188 a 7.12,7.12 0 0 0 0.58,3.1 4.07,4.07 0 0 0 4,2.21 5.68,5.68 0 0 0 5.75,-3.88 15.61,15.61 0 0 0 0.83,-5.7 V 9.5391876 h 4.2 V 34.269188 h -3.92 v -3.64 a 8.42,8.42 0 0 1 -7.63,4.31 c -3.46,0 -5.82,-1.17 -7.07,-3.53 a 10.69,10.69 0 0 1 -1,-5.06 V 9.5391876 Z"
     id="path339"
     inkscape:connector-curvature="0" />
  <path
     d="m 198.42695,10.859188 c 1.74,1.35 2.79,3.69 3.15,7 h -4 a 7.46,7.46 0 0 0 -1.69,-3.8 5.31,5.31 0 0 0 -4.22,-1.51 5.83,5.83 0 0 0 -5.68,3.87 15.35,15.35 0 0 0 -1.11,6.2 11.62,11.62 0 0 0 1.57,6.25 6.09,6.09 0 0 0 9,1 8.73,8.73 0 0 0 2.09,-4.31 h 4 c -0.47,3.28 -1.62,5.68 -3.47,7.2 a 10.82,10.82 0 0 1 -7.08,2.27 9.44,9.44 0 0 1 -7.68,-3.59 13.57,13.57 0 0 1 -2.89,-8.85 q 0,-6.51 3.17,-10.14 a 10.23,10.23 0 0 1 8.06,-3.6200004 10.83,10.83 0 0 1 6.8,2.0000004"
     id="path341"
     inkscape:connector-curvature="0" />
  <polygon
     points="288.33,259.71 298.98,249.2 304.29,249.2 294.79,258.4 304.83,273.93 299.52,273.93 291.74,261.35 288.33,264.65 288.33,273.93 284.33,273.93 284.33,240.01 288.33,240.01 "
     id="polygon343"
     transform="translate(-78.693047,-239.66081)" />
  <rect
     x="229.48694"
     y="0.34918213"
     width="4.1599998"
     height="33.919998"
     id="rect345" />
  <path
     d="m 244.38695,30.539188 a 4.86,4.86 0 0 0 3.11,1 9.58,9.58 0 0 0 4.25,-1 5.7,5.7 0 0 0 3.46,-5.51 v -3.34 a 7.15,7.15 0 0 1 -1.95,0.81 17.38,17.38 0 0 1 -2.35,0.46 l -2.52,0.32 a 9.7,9.7 0 0 0 -3.39,1 3.66,3.66 0 0 0 -1.93,3.45 3.43,3.43 0 0 0 1.32,2.84 m 8.75,-11.23 a 2.24,2.24 0 0 0 1.91,-1.2 3.61,3.61 0 0 0 0.28,-1.6 3.38,3.38 0 0 0 -1.51,-3.09 8.08,8.08 0 0 0 -4.32,-1 c -2.17,0 -3.7,0.59 -4.61,1.77 a 5.74,5.74 0 0 0 -1,2.9 h -3.88 c 0.08,-3.06 1.07,-5.18 3,-6.38 a 12.13,12.13 0 0 1 6.61,-1.8000004 13.39,13.39 0 0 1 7.08,1.6700004 5.64,5.64 0 0 1 2.7,5.17 v 14.25 a 1.77,1.77 0 0 0 0.27,1 c 0.17,0.27 0.55,0.4 1.12,0.4 a 4.8,4.8 0 0 0 0.62,0 7.23,7.23 0 0 0 0.74,-0.1 v 3.07 a 11.17,11.17 0 0 1 -1.48,0.34 10.16,10.16 0 0 1 -1.39,0.07 3.39,3.39 0 0 1 -3.11,-1.52 5.88,5.88 0 0 1 -0.72,-2.28 10.49,10.49 0 0 1 -3.65,2.88 11.21,11.21 0 0 1 -5.24,1.23 7.82,7.82 0 0 1 -5.62,-2.09 6.94,6.94 0 0 1 -2.18,-5.23 6.68,6.68 0 0 1 2.15,-5.32 10.21,10.21 0 0 1 5.63,-2.33 z"
     id="path347"
     inkscape:connector-curvature="0" />
  <path
     d="m 266.17695,9.5391876 h 3.95 v 3.5100004 a 11.11,11.11 0 0 1 3.72,-3.1100004 9.92,9.92 0 0 1 4.36,-0.95 q 5.27,0 7.11,3.6700004 a 13,13 0 0 1 1,5.75 v 15.86 h -4.21 v -15.58 a 8.38,8.38 0 0 0 -0.67,-3.65 4,4 0 0 0 -4,-2.31 8.2,8.2 0 0 0 -2.43,0.3 6.27,6.27 0 0 0 -3,2 6.2,6.2 0 0 0 -1.35,2.53 16.89,16.89 0 0 0 -0.35,3.78 v 12.95 h -4.16 z"
     id="path349"
     inkscape:connector-curvature="0" />
  <path
     d="m 296.78695,28.849188 a 5.88,5.88 0 0 0 5.38,2.68 5.66,5.66 0 0 0 4.72,-2.49 c 1.23,-1.65 1.84,-4 1.84,-7.12 0,-3.12 -0.63,-5.44 -1.9,-6.94 a 5.93,5.93 0 0 0 -4.71,-2.25 6.23,6.23 0 0 0 -5.07,2.4 q -1.94,2.4 -1.94,7.07 a 12.29,12.29 0 0 0 1.68,6.65 m 9.28,-18.51 a 11.18,11.18 0 0 1 2.5,2.42 V 0.23918762 h 4 V 34.239188 h -3.74 v -3.44 a 9,9 0 0 1 -3.43,3.31 9.87,9.87 0 0 1 -4.53,1 9.17,9.17 0 0 1 -7.13,-3.47 q -3,-3.48 -3,-9.25 a 16,16 0 0 1 2.74,-9.36 9,9 0 0 1 7.86,-4.0000004 8.78,8.78 0 0 1 4.74,1.2100004"
     id="path351"
     inkscape:connector-curvature="0" />
  <path
     class="cls-2"
     d="m 53.446953,116.66919 1.24,5.36 0.27,1.49 0.27,-1.46 1.05,-5.39 h 2.03 l 1.11,5.36 0.28,1.49 0.29,-1.43 1.25,-5.42 h 2 l -2.63,9.36 h -1.87 l -1.13,-5.48 -0.33,-1.8 -0.33,1.8 -1.13,5.48 h -1.82 l -2.65,-9.36 z"
     id="path353"
     inkscape:connector-curvature="0"
     style="fill:#231f20" />
  <path
     class="cls-2"
     d="m 69.846953,125.17919 a 3.82,3.82 0 0 1 -5.32,0 4.32,4.32 0 0 1 0,-5.2 3.79,3.79 0 0 1 5.32,0 4.28,4.28 0 0 1 0,5.2 z m -1.44,-1 a 2.65,2.65 0 0 0 0.42,-1.6 2.61,2.61 0 0 0 -0.42,-1.6 1.61,1.61 0 0 0 -2.44,0 2.54,2.54 0 0 0 -0.43,1.6 2.58,2.58 0 0 0 0.43,1.6 1.61,1.61 0 0 0 2.44,0 z"
     id="path355"
     inkscape:connector-curvature="0"
     style="fill:#231f20" />
  <path
     class="cls-2"
     d="m 74.756953,121.81919 a 3,3 0 0 0 0.73,-0.16 0.54,0.54 0 0 0 0.39,-0.51 0.61,0.61 0 0 0 -0.3,-0.59 1.87,1.87 0 0 0 -0.88,-0.16 1.16,1.16 0 0 0 -0.92,0.31 1.39,1.39 0 0 0 -0.26,0.64 h -1.74 a 2.58,2.58 0 0 1 0.51,-1.49 3,3 0 0 1 2.47,-0.92 4.43,4.43 0 0 1 2,0.45 1.73,1.73 0 0 1 0.88,1.7 v 3.18 c 0,0.22 0,0.48 0,0.8 a 1.11,1.11 0 0 0 0.1,0.48 0.65,0.65 0 0 0 0.27,0.21 v 0.27 h -2 a 2.19,2.19 0 0 1 -0.11,-0.4 4.05,4.05 0 0 1 0,-0.42 3.72,3.72 0 0 1 -0.87,0.7 2.65,2.65 0 0 1 -1.33,0.33 2.32,2.32 0 0 1 -1.56,-0.53 1.92,1.92 0 0 1 -0.62,-1.52 2,2 0 0 1 1,-1.85 4.34,4.34 0 0 1 1.59,-0.45 z m 1.11,0.84 a 2.31,2.31 0 0 1 -0.35,0.18 3.9,3.9 0 0 1 -0.49,0.12 l -0.41,0.08 a 2.79,2.79 0 0 0 -0.83,0.24 0.85,0.85 0 0 0 -0.43,0.77 0.79,0.79 0 0 0 0.27,0.67 1,1 0 0 0 0.63,0.21 2,2 0 0 0 1.09,-0.34 1.43,1.43 0 0 0 0.52,-1.25 z"
     id="path357"
     inkscape:connector-curvature="0"
     style="fill:#231f20" />
  <path
     class="cls-2"
     d="m 84.226953,119.14919 a 1.94,1.94 0 0 1 0.85,0.68 1.74,1.74 0 0 1 0.35,0.79 10.49,10.49 0 0 1 0.06,1.34 v 4.07 h -1.84 v -4.22 a 1.94,1.94 0 0 0 -0.19,-0.9 1,1 0 0 0 -0.93,-0.48 1.3,1.3 0 0 0 -1.09,0.48 2.24,2.24 0 0 0 -0.36,1.37 v 3.75 h -1.77 v -9.33 h 1.81 v 3.3 a 2.23,2.23 0 0 1 0.9,-0.84 2.58,2.58 0 0 1 1.09,-0.24 2.93,2.93 0 0 1 1.12,0.23 z"
     id="path359"
     inkscape:connector-curvature="0"
     style="fill:#231f20" />
  <path
     class="cls-2"
     d="m 87.776953,116.69919 h 2 v 2.37 l -0.52,4.37 h -0.95 l -0.53,-4.37 z m 0,7.49 h 1.9 v 1.84 h -1.9 z"
     id="path361"
     inkscape:connector-curvature="0"
     style="fill:#231f20" />
  <path
     class="cls-2"
     d="m 96.686953,123.13919 a 1.89,1.89 0 0 0 0.36,1 2.08,2.08 0 0 0 1.66,0.57 3.64,3.64 0 0 0 1.15,-0.15 1.08,1.08 0 0 0 0.839997,-1.08 0.81,0.81 0 0 0 -0.41,-0.72 4.49,4.49 0 0 0 -1.299997,-0.44 l -1,-0.22 a 6.35,6.35 0 0 1 -2.06,-0.72 2.27,2.27 0 0 1 -0.94,-2 2.7,2.7 0 0 1 0.92,-2.09 3.94,3.94 0 0 1 2.72,-0.83 4.21,4.21 0 0 1 2.559997,0.78 2.78,2.78 0 0 1 1.1,2.28 h -1.88 a 1.31,1.31 0 0 0 -0.749997,-1.2 2.52,2.52 0 0 0 -1.16,-0.24 2.17,2.17 0 0 0 -1.24,0.31 1,1 0 0 0 -0.46,0.85 0.81,0.81 0 0 0 0.45,0.75 5.4,5.4 0 0 0 1.25,0.38 l 1.639997,0.39 a 4.25,4.25 0 0 1 1.62,0.68 2.31,2.31 0 0 1 0.83,1.91 2.67,2.67 0 0 1 -1,2.13 4.15,4.15 0 0 1 -2.799997,0.85 4.58,4.58 0 0 1 -2.91,-0.84 2.76,2.76 0 0 1 -1,-2.29 z"
     id="path363"
     inkscape:connector-curvature="0"
     style="fill:#231f20" />
  <path
     class="cls-2"
     d="m 103.09695,120.45919 v -1.29 h 1 v -1.93 h 1.79 v 1.93 h 1.12 v 1.29 h -1.12 v 3.66 a 0.84,0.84 0 0 0 0.11,0.53 c 0.07,0.07 0.29,0.1 0.66,0.1 h 0.35 v 1.35 h -0.85 a 2.31,2.31 0 0 1 -1.75,-0.44 1.31,1.31 0 0 1 -0.31,-1 v -4.26 z"
     id="path365"
     inkscape:connector-curvature="0"
     style="fill:#231f20" />
  <path
     class="cls-2"
     d="m 109.93695,119.10919 v 4.17 a 2.26,2.26 0 0 0 0.14,0.89 1,1 0 0 0 1,0.52 1.27,1.27 0 0 0 1.27,-0.75 2.66,2.66 0 0 0 0.17,-1.07 v -3.76 h 1.79 v 6.92 h -1.76 v -1 l -0.13,0.19 a 1.05,1.05 0 0 1 -0.24,0.28 2.43,2.43 0 0 1 -0.82,0.52 2.82,2.82 0 0 1 -0.92,0.14 2.08,2.08 0 0 1 -2.07,-1.11 4.18,4.18 0 0 1 -0.29,-1.79 v -4.17 z"
     id="path367"
     inkscape:connector-curvature="0"
     style="fill:#231f20" />
  <path
     class="cls-2"
     d="m 119.74695,119.21919 a 2.21,2.21 0 0 1 0.79,0.76 v -3.3 h 1.83 v 9.35 h -1.75 v -1 a 2.52,2.52 0 0 1 -0.89,0.89 2.43,2.43 0 0 1 -1.23,0.28 2.55,2.55 0 0 1 -2,-1 3.76,3.76 0 0 1 -0.83,-2.51 4.28,4.28 0 0 1 0.82,-2.79 2.64,2.64 0 0 1 2.18,-1 2.19,2.19 0 0 1 1.08,0.32 z m 0.44,4.93 a 2.51,2.51 0 0 0 0.4,-1.48 2.27,2.27 0 0 0 -0.64,-1.82 1.38,1.38 0 0 0 -0.91,-0.33 1.28,1.28 0 0 0 -1.17,0.6 3.23,3.23 0 0 0 0,3 1.26,1.26 0 0 0 1.14,0.58 1.35,1.35 0 0 0 1.18,-0.55 z"
     id="path369"
     inkscape:connector-curvature="0"
     style="fill:#231f20" />
  <path
     class="cls-2"
     d="m 125.87695,118.27919 h -1.84 v -1.67 h 1.84 z m -1.84,0.83 h 1.84 v 6.92 h -1.84 z"
     id="path371"
     inkscape:connector-curvature="0"
     style="fill:#231f20" />
  <path
     class="cls-2"
     d="m 133.39695,125.17919 a 3.82,3.82 0 0 1 -5.32,0 4.28,4.28 0 0 1 0,-5.2 3.79,3.79 0 0 1 5.32,0 4.28,4.28 0 0 1 0,5.2 z m -1.45,-1 a 2.58,2.58 0 0 0 0.43,-1.6 2.54,2.54 0 0 0 -0.43,-1.6 1.42,1.42 0 0 0 -1.22,-0.56 1.44,1.44 0 0 0 -1.22,0.56 2.61,2.61 0 0 0 -0.43,1.6 2.65,2.65 0 0 0 0.43,1.6 1.44,1.44 0 0 0 1.22,0.56 1.42,1.42 0 0 0 1.22,-0.56 z"
     id="path373"
     inkscape:connector-curvature="0"
     style="fill:#231f20" />
  <path
     class="cls-2"
     d="m 136.96695,123.81919 a 1.17,1.17 0 0 0 0.25,0.68 1.7,1.7 0 0 0 1.25,0.36 2,2 0 0 0 0.85,-0.15 0.53,0.53 0 0 0 0.07,-0.94 10,10 0 0 0 -1.9,-0.55 3.92,3.92 0 0 1 -1.66,-0.73 1.58,1.58 0 0 1 -0.48,-1.24 2.17,2.17 0 0 1 0.75,-1.65 3,3 0 0 1 2.12,-0.69 3.87,3.87 0 0 1 2.12,0.52 2.22,2.22 0 0 1 0.94,1.78 h -1.81 a 1.09,1.09 0 0 0 -0.2,-0.55 1.26,1.26 0 0 0 -1,-0.37 1.49,1.49 0 0 0 -0.84,0.19 0.52,0.52 0 0 0 -0.25,0.43 0.47,0.47 0 0 0 0.27,0.45 10.24,10.24 0 0 0 1.88,0.5 3.5,3.5 0 0 1 1.62,0.77 1.74,1.74 0 0 1 0.54,1.3 2.1,2.1 0 0 1 -0.77,1.68 3.63,3.63 0 0 1 -2.37,0.65 3.56,3.56 0 0 1 -2.41,-0.69 2.23,2.23 0 0 1 -0.78,-1.75 z"
     id="path375"
     inkscape:connector-curvature="0"
     style="fill:#231f20" />
  <path
     class="cls-2"
     d="m 146.68695,122.11919 a 4.64,4.64 0 0 1 1.37,-1.2 l 0.2,-0.12 a 4,4 0 0 1 -0.63,-0.93 2.3,2.3 0 0 1 -0.22,-1 2,2 0 0 1 0.69,-1.6 2.72,2.72 0 0 1 1.8,-0.58 2.43,2.43 0 0 1 1.67,0.59 1.93,1.93 0 0 1 0.66,1.51 2.1,2.1 0 0 1 -0.4,1.34 3.81,3.81 0 0 1 -1.16,0.95 l 1.35,1.64 a 2.82,2.82 0 0 0 0.35,-0.72 2.76,2.76 0 0 0 0.14,-0.82 h 1.6 a 5.07,5.07 0 0 1 -0.41,1.73 4.75,4.75 0 0 1 -0.66,1.08 l 1.7,2 h -2.19 l -0.65,-0.8 a 3.82,3.82 0 0 1 -0.89,0.65 3.5,3.5 0 0 1 -1.68,0.38 3,3 0 0 1 -2.25,-0.84 2.62,2.62 0 0 1 -0.81,-1.86 2.45,2.45 0 0 1 0.42,-1.4 z m 1.77,2.24 a 1.31,1.31 0 0 0 1,0.38 1.81,1.81 0 0 0 0.86,-0.2 2.92,2.92 0 0 0 0.66,-0.45 l -1.75,-2.14 a 3,3 0 0 0 -0.91,0.8 1.34,1.34 0 0 0 -0.22,0.75 1.19,1.19 0 0 0 0.36,0.84 z m 0.8,-5 a 6.8,6.8 0 0 0 0.51,0.66 4.34,4.34 0 0 0 0.57,-0.45 1.07,1.07 0 0 0 0.33,-0.75 0.81,0.81 0 0 0 -0.2,-0.52 0.75,0.75 0 0 0 -0.6,-0.23 0.89,0.89 0 0 0 -0.47,0.14 0.67,0.67 0 0 0 -0.33,0.62 0.91,0.91 0 0 0 0.24,0.51 z"
     id="path377"
     inkscape:connector-curvature="0"
     style="fill:#231f20" />
  <path
     class="cls-2"
     d="m 166.35695,116.66919 v 1.67 h -2.8 v 7.7 h -2 v -7.7 h -2.81 v -1.66 z"
     id="path379"
     inkscape:connector-curvature="0"
     style="fill:#231f20" />
  <path
     class="cls-2"
     d="m 172.30695,119.14919 a 1.94,1.94 0 0 1 0.85,0.68 1.74,1.74 0 0 1 0.35,0.79 10.49,10.49 0 0 1 0.06,1.34 v 4.07 h -1.84 v -4.22 a 1.94,1.94 0 0 0 -0.19,-0.9 1,1 0 0 0 -0.94,-0.48 1.29,1.29 0 0 0 -1.08,0.48 2.24,2.24 0 0 0 -0.36,1.37 v 3.75 h -1.81 v -9.33 h 1.81 v 3.3 a 2.23,2.23 0 0 1 0.9,-0.84 2.58,2.58 0 0 1 1.09,-0.24 2.93,2.93 0 0 1 1.16,0.23 z"
     id="path381"
     inkscape:connector-curvature="0"
     style="fill:#231f20" />
  <path
     class="cls-2"
     d="m 179.79695,119.24919 a 2.74,2.74 0 0 1 1.2,1 3.4,3.4 0 0 1 0.55,1.43 8.63,8.63 0 0 1 0.06,1.38 h -5 a 1.66,1.66 0 0 0 0.72,1.45 1.8,1.8 0 0 0 1,0.26 1.56,1.56 0 0 0 1,-0.31 1.69,1.69 0 0 0 0.37,-0.48 h 1.84 a 2.19,2.19 0 0 1 -0.67,1.25 3.36,3.36 0 0 1 -2.6,1 3.78,3.78 0 0 1 -2.44,-0.85 3.37,3.37 0 0 1 -1.05,-2.77 3.77,3.77 0 0 1 0.95,-2.76 3.35,3.35 0 0 1 2.48,-1 3.84,3.84 0 0 1 1.59,0.4 z m -2.7,1.56 a 1.87,1.87 0 0 0 -0.49,1.07 h 3.12 a 1.49,1.49 0 0 0 -0.48,-1.09 1.58,1.58 0 0 0 -1.07,-0.37 1.43,1.43 0 0 0 -1.08,0.39 z"
     id="path383"
     inkscape:connector-curvature="0"
     style="fill:#231f20" />
  <path
     class="cls-2"
     d="m 192.56695,119.58919 a 1.83,1.83 0 0 0 -1.08,-1.34 2.65,2.65 0 0 0 -1.07,-0.21 2.35,2.35 0 0 0 -1.86,0.85 3.86,3.86 0 0 0 -0.73,2.57 3.14,3.14 0 0 0 0.79,2.43 2.57,2.57 0 0 0 1.79,0.72 2.35,2.35 0 0 0 1.61,-0.56 2.46,2.46 0 0 0 0.78,-1.48 h -2.17 v -1.57 h 3.9 v 5 h -1.3 l -0.19,-1.17 a 4.55,4.55 0 0 1 -1,0.93 3.55,3.55 0 0 1 -1.9,0.48 4,4 0 0 1 -3.05,-1.29 4.88,4.88 0 0 1 -1.24,-3.54 5.21,5.21 0 0 1 1.25,-3.64 4.82,4.82 0 0 1 6.17,-0.47 3.38,3.38 0 0 1 1.25,2.26 z"
     id="path385"
     inkscape:connector-curvature="0"
     style="fill:#231f20" />
  <path
     class="cls-2"
     d="m 200.08695,118.94919 h 0.16 v 1.85 h -0.31 -0.21 a 1.49,1.49 0 0 0 -1.47,0.71 2.75,2.75 0 0 0 -0.21,1.23 v 3.31 h -1.82 v -6.92 h 1.73 v 1.21 a 3.76,3.76 0 0 1 0.73,-0.94 1.93,1.93 0 0 1 1.32,-0.43 z"
     id="path387"
     inkscape:connector-curvature="0"
     style="fill:#231f20" />
  <path
     class="cls-2"
     d="m 207.07695,125.17919 a 3.82,3.82 0 0 1 -5.32,0 4.28,4.28 0 0 1 0,-5.2 3.79,3.79 0 0 1 5.32,0 4.32,4.32 0 0 1 0,5.2 z m -1.45,-1 a 2.65,2.65 0 0 0 0.42,-1.6 2.61,2.61 0 0 0 -0.42,-1.6 1.61,1.61 0 0 0 -2.44,0 2.54,2.54 0 0 0 -0.43,1.6 2.58,2.58 0 0 0 0.43,1.6 1.61,1.61 0 0 0 2.44,0 z"
     id="path389"
     inkscape:connector-curvature="0"
     style="fill:#231f20" />
  <path
     class="cls-2"
     d="m 211.04695,119.10919 v 4.17 a 2.26,2.26 0 0 0 0.14,0.89 1,1 0 0 0 1,0.52 1.26,1.26 0 0 0 1.26,-0.75 2.65,2.65 0 0 0 0.18,-1.07 v -3.76 h 1.83 v 6.92 h -1.76 v -1 c 0,0 -0.06,0.08 -0.12,0.19 a 1.61,1.61 0 0 1 -0.24,0.28 2.64,2.64 0 0 1 -0.82,0.52 2.93,2.93 0 0 1 -0.93,0.14 2.06,2.06 0 0 1 -2.06,-1.11 4.16,4.16 0 0 1 -0.3,-1.79 v -4.17 z"
     id="path391"
     inkscape:connector-curvature="0"
     style="fill:#231f20" />
  <path
     class="cls-2"
     d="m 222.76695,119.49919 a 2.32,2.32 0 0 1 0.68,1.87 v 4.66 h -1.86 v -4.21 a 1.87,1.87 0 0 0 -0.14,-0.84 1,1 0 0 0 -1,-0.53 1.24,1.24 0 0 0 -1.25,0.78 2.61,2.61 0 0 0 -0.18,1.05 v 3.75 h -1.81 v -6.91 h 1.75 v 1 a 3.16,3.16 0 0 1 0.66,-0.77 2.27,2.27 0 0 1 1.41,-0.42 2.68,2.68 0 0 1 1.74,0.57 z"
     id="path393"
     inkscape:connector-curvature="0"
     style="fill:#231f20" />
  <path
     class="cls-2"
     d="m 228.79695,119.21919 a 2.13,2.13 0 0 1 0.79,0.76 v -3.3 h 1.84 v 9.35 h -1.76 v -1 a 2.5,2.5 0 0 1 -0.88,0.89 2.43,2.43 0 0 1 -1.23,0.28 2.58,2.58 0 0 1 -2.05,-1 3.76,3.76 0 0 1 -0.82,-2.51 4.33,4.33 0 0 1 0.81,-2.79 2.66,2.66 0 0 1 2.18,-1 2.19,2.19 0 0 1 1.12,0.32 z m 0.44,4.93 a 2.51,2.51 0 0 0 0.4,-1.48 2.27,2.27 0 0 0 -0.64,-1.82 1.36,1.36 0 0 0 -0.91,-0.33 1.28,1.28 0 0 0 -1.17,0.6 2.86,2.86 0 0 0 -0.37,1.49 2.75,2.75 0 0 0 0.38,1.53 1.26,1.26 0 0 0 1.15,0.58 1.32,1.32 0 0 0 1.16,-0.57 z"
     id="path395"
     inkscape:connector-curvature="0"
     style="fill:#231f20" />
  <path
     class="cls-2"
     d="m 234.46695,123.81919 a 1.17,1.17 0 0 0 0.25,0.68 1.7,1.7 0 0 0 1.25,0.36 2,2 0 0 0 0.85,-0.15 0.53,0.53 0 0 0 0.07,-0.94 10,10 0 0 0 -1.9,-0.55 3.92,3.92 0 0 1 -1.66,-0.73 1.58,1.58 0 0 1 -0.48,-1.24 2.17,2.17 0 0 1 0.75,-1.65 3,3 0 0 1 2.12,-0.69 3.87,3.87 0 0 1 2.12,0.52 2.22,2.22 0 0 1 0.94,1.78 h -1.81 a 1.09,1.09 0 0 0 -0.2,-0.55 1.26,1.26 0 0 0 -1,-0.37 1.49,1.49 0 0 0 -0.84,0.19 0.52,0.52 0 0 0 -0.25,0.43 0.47,0.47 0 0 0 0.26,0.45 10.75,10.75 0 0 0 1.89,0.5 3.45,3.45 0 0 1 1.62,0.77 1.74,1.74 0 0 1 0.54,1.3 2.1,2.1 0 0 1 -0.77,1.68 3.63,3.63 0 0 1 -2.37,0.65 3.56,3.56 0 0 1 -2.41,-0.69 2.23,2.23 0 0 1 -0.78,-1.75 z"
     id="path397"
     inkscape:connector-curvature="0"
     style="fill:#231f20" />
  <path
     class="cls-2"
     d="m 240.20695,127.52919 a 1.4,1.4 0 0 0 0.8,-0.51 1.82,1.82 0 0 0 0.29,-1 h -1.09 v -1.9 h 2 v 1.64 a 4.1,4.1 0 0 1 -0.11,0.9 1.85,1.85 0 0 1 -0.43,0.82 2.17,2.17 0 0 1 -0.79,0.55 1.93,1.93 0 0 1 -0.62,0.19 z"
     id="path399"
     inkscape:connector-curvature="0"
     style="fill:#231f20" />
  <path
     class="cls-2"
     d="m 247.65695,126.02919 v -9.36 h 1.94 v 3.57 h 3.64 v -3.57 h 1.94 v 9.36 h -1.94 v -4.18 h -3.64 v 4.18 z"
     id="path401"
     inkscape:connector-curvature="0"
     style="fill:#231f20" />
  <path
     class="cls-2"
     d="m 261.41695,119.24919 a 2.8,2.8 0 0 1 1.2,1 3.53,3.53 0 0 1 0.55,1.43 8.63,8.63 0 0 1 0.06,1.38 h -5 a 1.66,1.66 0 0 0 0.72,1.45 1.8,1.8 0 0 0 1,0.26 1.51,1.51 0 0 0 1,-0.31 1.72,1.72 0 0 0 0.38,-0.48 h 1.84 a 2.19,2.19 0 0 1 -0.67,1.25 3.36,3.36 0 0 1 -2.6,1 3.78,3.78 0 0 1 -2.44,-0.85 3.37,3.37 0 0 1 -1.05,-2.77 3.73,3.73 0 0 1 0.95,-2.76 3.34,3.34 0 0 1 2.47,-1 3.86,3.86 0 0 1 1.59,0.4 z m -2.71,1.56 a 1.93,1.93 0 0 0 -0.48,1.07 h 3.08 a 1.49,1.49 0 0 0 -0.48,-1.09 1.58,1.58 0 0 0 -1.07,-0.37 1.47,1.47 0 0 0 -1.05,0.39 z"
     id="path403"
     inkscape:connector-curvature="0"
     style="fill:#231f20" />
  <path
     class="cls-2"
     d="m 269.71695,119.49919 a 2.29,2.29 0 0 1 0.68,1.87 v 4.66 h -1.85 v -4.21 a 1.85,1.85 0 0 0 -0.15,-0.84 1,1 0 0 0 -1,-0.53 1.26,1.26 0 0 0 -1.26,0.78 2.61,2.61 0 0 0 -0.18,1.05 v 3.75 h -1.8 v -6.91 h 1.75 v 1 a 3,3 0 0 1 0.66,-0.77 2.26,2.26 0 0 1 1.4,-0.42 2.66,2.66 0 0 1 1.75,0.57 z"
     id="path405"
     inkscape:connector-curvature="0"
     style="fill:#231f20" />
  <path
     class="cls-2"
     d="m 275.74695,119.21919 a 2.24,2.24 0 0 1 0.8,0.76 v -3.3 h 1.83 v 9.35 h -1.76 v -1 a 2.5,2.5 0 0 1 -0.88,0.89 2.43,2.43 0 0 1 -1.23,0.28 2.55,2.55 0 0 1 -2,-1 3.76,3.76 0 0 1 -0.83,-2.51 4.28,4.28 0 0 1 0.82,-2.79 2.64,2.64 0 0 1 2.18,-1 2.16,2.16 0 0 1 1.07,0.32 z m 0.45,4.93 a 2.59,2.59 0 0 0 0.4,-1.48 2.31,2.31 0 0 0 -0.64,-1.82 1.4,1.4 0 0 0 -0.92,-0.33 1.25,1.25 0 0 0 -1.16,0.6 3.19,3.19 0 0 0 0,3 1.27,1.27 0 0 0 1.15,0.58 1.35,1.35 0 0 0 1.17,-0.55 z"
     id="path407"
     inkscape:connector-curvature="0"
     style="fill:#231f20" />
  <path
     class="cls-2"
     d="m 284.52695,119.24919 a 2.69,2.69 0 0 1 1.2,1 3.4,3.4 0 0 1 0.55,1.43 8.63,8.63 0 0 1 0.06,1.38 h -5 a 1.66,1.66 0 0 0 0.72,1.45 1.8,1.8 0 0 0 1,0.26 1.56,1.56 0 0 0 1,-0.31 1.69,1.69 0 0 0 0.37,-0.48 h 1.85 a 2.31,2.31 0 0 1 -0.67,1.25 3.38,3.38 0 0 1 -2.61,1 3.73,3.73 0 0 1 -2.43,-0.85 3.34,3.34 0 0 1 -1.06,-2.77 3.77,3.77 0 0 1 0.95,-2.76 3.35,3.35 0 0 1 2.48,-1 3.84,3.84 0 0 1 1.59,0.4 z m -2.7,1.56 a 1.87,1.87 0 0 0 -0.49,1.07 h 3.12 a 1.49,1.49 0 0 0 -0.48,-1.09 1.58,1.58 0 0 0 -1.07,-0.37 1.43,1.43 0 0 0 -1.08,0.39 z"
     id="path409"
     inkscape:connector-curvature="0"
     style="fill:#231f20" />
  <path
     class="cls-2"
     d="m 291.09695,118.94919 h 0.15 v 1.85 h -0.3 -0.22 a 1.48,1.48 0 0 0 -1.46,0.71 2.75,2.75 0 0 0 -0.21,1.23 v 3.31 h -1.82 v -6.92 h 1.72 v 1.21 a 3.76,3.76 0 0 1 0.73,-0.94 2,2 0 0 1 1.32,-0.43 z"
     id="path411"
     inkscape:connector-curvature="0"
     style="fill:#231f20" />
  <path
     class="cls-2"
     d="m 293.71695,123.81919 a 1.1,1.1 0 0 0 0.25,0.68 1.68,1.68 0 0 0 1.25,0.36 2,2 0 0 0 0.85,-0.15 0.51,0.51 0 0 0 0.31,-0.48 0.5,0.5 0 0 0 -0.25,-0.46 10,10 0 0 0 -1.89,-0.55 4,4 0 0 1 -1.67,-0.73 1.58,1.58 0 0 1 -0.48,-1.24 2.14,2.14 0 0 1 0.76,-1.65 3,3 0 0 1 2.12,-0.69 3.84,3.84 0 0 1 2.11,0.52 2.19,2.19 0 0 1 0.94,1.78 h -1.81 a 1,1 0 0 0 -0.2,-0.55 1.24,1.24 0 0 0 -1,-0.37 1.5,1.5 0 0 0 -0.85,0.19 0.52,0.52 0 0 0 -0.25,0.43 0.47,0.47 0 0 0 0.27,0.45 10.75,10.75 0 0 0 1.89,0.5 3.5,3.5 0 0 1 1.62,0.77 1.76,1.76 0 0 1 0.53,1.3 2.07,2.07 0 0 1 -0.77,1.68 4.6,4.6 0 0 1 -4.78,0 2.23,2.23 0 0 1 -0.78,-1.75 z"
     id="path413"
     inkscape:connector-curvature="0"
     style="fill:#231f20" />
  <path
     class="cls-2"
     d="m 305.30695,125.17919 a 3.82,3.82 0 0 1 -5.32,0 4.32,4.32 0 0 1 0,-5.2 3.79,3.79 0 0 1 5.32,0 4.28,4.28 0 0 1 0,5.2 z m -1.44,-1 a 2.65,2.65 0 0 0 0.42,-1.6 2.61,2.61 0 0 0 -0.42,-1.6 1.61,1.61 0 0 0 -2.44,0 2.54,2.54 0 0 0 -0.43,1.6 2.58,2.58 0 0 0 0.43,1.6 1.61,1.61 0 0 0 2.44,0 z"
     id="path415"
     inkscape:connector-curvature="0"
     style="fill:#231f20" />
  <path
     class="cls-2"
     d="m 313.05695,119.49919 a 2.29,2.29 0 0 1 0.68,1.87 v 4.66 h -1.85 v -4.21 a 2,2 0 0 0 -0.14,-0.84 1,1 0 0 0 -1,-0.53 1.26,1.26 0 0 0 -1.26,0.78 2.81,2.81 0 0 0 -0.17,1.05 v 3.75 h -1.81 v -6.91 h 1.75 v 1 a 3,3 0 0 1 0.66,-0.77 2.27,2.27 0 0 1 1.41,-0.42 2.65,2.65 0 0 1 1.73,0.57 z"
     id="path417"
     inkscape:connector-curvature="0"
     style="fill:#231f20" />
  <path
     class="cls-2"
     d="m 3.0569534,123.55919 a 1.71,1.71 0 0 0 0.41,0.91 1.37,1.37 0 0 0 1.91,-0.15 1.89,1.89 0 0 0 0.36,-1.19 2.08,2.08 0 0 0 -0.33,-1.19 1.17,1.17 0 0 0 -1,-0.48 1.64,1.64 0 0 0 -0.57,0.08 1.14,1.14 0 0 0 -0.64,0.56 l -1.62,-0.07 0.64,-5.09 h 5.09 v 1.54 h -3.81 l -0.33,2 a 4.26,4.26 0 0 1 0.65,-0.36 2.73,2.73 0 0 1 1,-0.15 2.89,2.89 0 0 1 2,0.77 2.85,2.85 0 0 1 0.85,2.24 3.45,3.45 0 0 1 -0.82,2.27 3,3 0 0 1 -2.44,1 3.25,3.25 0 0 1 -2.16,-0.71 2.72,2.72 0 0 1 -0.94,-2 z"
     id="path419"
     inkscape:connector-curvature="0"
     style="fill:#231f20" />
  <path
     class="cls-2"
     d="m 14.586953,119.84919 a 3.71,3.71 0 0 1 0.85,2.63 4.12,4.12 0 0 1 -0.83,2.78 2.68,2.68 0 0 1 -2.13,1 2.18,2.18 0 0 1 -1.38,-0.41 2.49,2.49 0 0 1 -0.59,-0.67 v 3.61 H 8.7169534 v -9.64 h 1.7299996 v 1 a 3,3 0 0 1 0.63,-0.71 2.28,2.28 0 0 1 1.44,-0.46 2.73,2.73 0 0 1 2.07,0.87 z m -1.39,1.3 a 1.29,1.29 0 0 0 -1.2,-0.61 1.36,1.36 0 0 0 -1.36,0.93 3.48,3.48 0 0 0 -0.19,1.26 2,2 0 0 0 0.64,1.69 1.5,1.5 0 0 0 0.91,0.29 1.34,1.34 0 0 0 1.17,-0.59 3.06,3.06 0 0 0 0,-3 z"
     id="path421"
     inkscape:connector-curvature="0"
     style="fill:#231f20" />
  <path
     class="cls-2"
     d="m 25.116953,119.12919 a 2.05,2.05 0 0 1 0.81,0.62 2,2 0 0 1 0.39,0.89 5.43,5.43 0 0 1 0.07,1 v 4.36 h -1.85 v -4.41 a 1.39,1.39 0 0 0 -0.13,-0.65 0.9,0.9 0 0 0 -0.89,-0.48 1,1 0 0 0 -1,0.62 1.94,1.94 0 0 0 -0.15,0.8 v 4.12 h -1.87 v -4.12 a 2.48,2.48 0 0 0 -0.12,-0.9 0.91,0.91 0 0 0 -0.9,-0.5 1.07,1.07 0 0 0 -1,0.5 1.9,1.9 0 0 0 -0.15,0.85 v 4.17 h -1.87 v -6.91 h 1.76 v 1 a 2.78,2.78 0 0 1 0.63,-0.77 2.56,2.56 0 0 1 2.65,-0.06 2.15,2.15 0 0 1 0.6,0.84 2.25,2.25 0 0 1 0.88,-0.9 2.69,2.69 0 0 1 1.24,-0.28 2.32,2.32 0 0 1 0.9,0.21 z"
     id="path423"
     inkscape:connector-curvature="0"
     style="fill:#231f20" />
  <path
     class="cls-2"
     d="m 344.37695,117.99919 a 9.15,9.15 0 0 1 0,7 3.1,3.1 0 0 1 -4.94,0 9.15,9.15 0 0 1 0,-7 3.08,3.08 0 0 1 4.94,0 z m -3.54,5.94 a 1.05,1.05 0 0 0 1.07,0.84 1,1 0 0 0 1.06,-0.84 9.29,9.29 0 0 0 0.25,-2.43 9.13,9.13 0 0 0 -0.25,-2.46 1,1 0 0 0 -1.06,-0.8 1,1 0 0 0 -1.07,0.8 8.66,8.66 0 0 0 -0.26,2.46 8.81,8.81 0 0 0 0.26,2.43 z"
     id="path425"
     inkscape:connector-curvature="0"
     style="fill:#231f20" />
  <path
     class="cls-2"
     d="m 346.45695,119.67919 v -1.23 a 8.64,8.64 0 0 0 1.2,-0.12 1.65,1.65 0 0 0 0.88,-0.48 1.49,1.49 0 0 0 0.36,-0.66 1.34,1.34 0 0 0 0.07,-0.37 h 1.51 v 9.21 h -1.85 v -6.35 z"
     id="path427"
     inkscape:connector-curvature="0"
     style="fill:#231f20" />
  <path
     class="cls-2"
     d="m 353.59695,124.12919 h 1.93 v 1.9 h -1.93 z"
     id="path429"
     inkscape:connector-curvature="0"
     style="fill:#231f20" />
  <path
     class="cls-2"
     d="m 362.44695,117.99919 a 9,9 0 0 1 0,7 3.09,3.09 0 0 1 -4.93,0 9,9 0 0 1 0,-7 3.07,3.07 0 0 1 4.93,0 z m -3.53,5.94 a 1.09,1.09 0 0 0 2.12,0 8.88,8.88 0 0 0 0.25,-2.43 8.73,8.73 0 0 0 -0.25,-2.46 1.1,1.1 0 0 0 -2.12,0 8.3,8.3 0 0 0 -0.26,2.46 8.44,8.44 0 0 0 0.26,2.43 z"
     id="path431"
     inkscape:connector-curvature="0"
     style="fill:#231f20" />
  <path
     class="cls-2"
     d="m 365.77695,123.55919 a 1.71,1.71 0 0 0 0.41,0.91 1.13,1.13 0 0 0 0.88,0.32 1.2,1.2 0 0 0 1,-0.47 2,2 0 0 0 0.35,-1.19 2.08,2.08 0 0 0 -0.33,-1.19 1.16,1.16 0 0 0 -1,-0.48 1.64,1.64 0 0 0 -0.57,0.08 1.17,1.17 0 0 0 -0.64,0.56 l -1.62,-0.07 0.65,-5.09 h 5.06 v 1.54 h -3.76 l -0.33,2 a 3.84,3.84 0 0 1 0.66,-0.36 2.67,2.67 0 0 1 0.95,-0.15 2.78,2.78 0 0 1 2.84,3 3.49,3.49 0 0 1 -0.81,2.27 3,3 0 0 1 -2.45,1 3.25,3.25 0 0 1 -2.16,-0.71 2.76,2.76 0 0 1 -0.94,-2 z"
     id="path433"
     inkscape:connector-curvature="0"
     style="fill:#231f20" />
  <path
     class="cls-2"
     d="m 371.66695,124.12919 h 1.93 v 1.9 h -1.93 z"
     id="path435"
     inkscape:connector-curvature="0"
     style="fill:#231f20" />
  <path
     class="cls-2"
     d="m 375.36695,119.67919 v -1.23 a 8.64,8.64 0 0 0 1.2,-0.12 1.72,1.72 0 0 0 0.89,-0.48 1.59,1.59 0 0 0 0.35,-0.66 1.34,1.34 0 0 0 0.07,-0.37 h 1.51 v 9.21 h -1.85 v -6.35 z"
     id="path437"
     inkscape:connector-curvature="0"
     style="fill:#231f20" />
  <path
     class="cls-2"
     d="m 382.93695,117.65919 a 2.9,2.9 0 0 1 2.22,-0.91 2.86,2.86 0 0 1 2.88,1.86 7.12,7.12 0 0 1 0.45,2.77 7.79,7.79 0 0 1 -0.43,2.79 3,3 0 0 1 -3,2.12 3,3 0 0 1 -1.86,-0.61 2.41,2.41 0 0 1 -1,-1.79 h 1.81 a 1,1 0 0 0 1.08,0.92 1.29,1.29 0 0 0 1.26,-1 6.15,6.15 0 0 0 0.25,-1.6 2,2 0 0 1 -0.53,0.48 2.44,2.44 0 0 1 -1.25,0.3 2.87,2.87 0 0 1 -1.95,-0.75 2.78,2.78 0 0 1 -0.85,-2.19 3.37,3.37 0 0 1 0.92,-2.39 z m 3.05,3.66 a 1.51,1.51 0 0 0 0.61,-1.37 2,2 0 0 0 -0.36,-1.24 1.35,1.35 0 0 0 -1.8,-0.19 1.66,1.66 0 0 0 -0.52,1.37 1.92,1.92 0 0 0 0.34,1.23 1.21,1.21 0 0 0 1,0.41 1.31,1.31 0 0 0 0.73,-0.19 z"
     id="path439"
     inkscape:connector-curvature="0"
     style="fill:#231f20" />
  <polygon
     points="111.66,368.41 114.05,368.41 121.94,356.36 119.56,356.36 "
     id="polygon441"
     transform="translate(-78.693047,-239.66081)" />
  <polygon
     points="401.29,368.41 409.21,356.42 406.83,356.42 398.9,368.41 "
     id="polygon443"
     transform="translate(-78.693047,-239.66081)" />
  <circle
     class="cls-3"
     cx="33.166954"
     cy="204.57918"
     r="14.94"
     id="circle445"
     style="fill:#e41e26" />
  <path
     class="cls-4"
     d="m 33.306953,212.90919 c -4.1,0 -8.37,-3.49 -8.39,-9.12 a 12.69,12.69 0 0 1 4.56,-9.43 14.92,14.92 0 0 1 9,-3.41 3.74,3.74 0 0 1 1.08,0.12 6.21,6.21 0 0 0 -4.88,6 1.44,1.44 0 0 0 0,0.24 c 4.55,1.11 6.62,3.85 6.63,7.65 a 8,8 0 0 1 -8,7.95 z"
     id="path447"
     inkscape:connector-curvature="0"
     style="fill:#ffffff" />
  <path
     class="cls-3"
     d="m 3.4469534,236.02919 -3.45999997,-8.26 H 2.2469534 l 2.16,5.48 2.09,-5.48 h 2.16 l -3.35,8.26 z"
     id="path449"
     inkscape:connector-curvature="0"
     style="fill:#e41e26" />
  <path
     class="cls-3"
     d="m 16.776953,231.85919 a 5.08,5.08 0 0 1 -0.25,1.59 4.37,4.37 0 0 1 -0.74,1.4 3.54,3.54 0 0 1 -1.23,1 4.17,4.17 0 0 1 -3.48,0 3.54,3.54 0 0 1 -1.2299996,-1 4.37,4.37 0 0 1 -0.74,-1.4 5.08,5.08 0 0 1 -0.25,-1.59 5,5 0 0 1 0.25,-1.52 4.17,4.17 0 0 1 0.74,-1.38 3.52,3.52 0 0 1 1.2299996,-1 4,4 0 0 1 1.74,-0.37 3.9,3.9 0 0 1 1.73,0.37 3.71,3.71 0 0 1 1.23,1 4,4 0 0 1 0.75,1.38 5,5 0 0 1 0.25,1.52 z m -2.09,0 a 3.87,3.87 0 0 0 -0.12,-1 2.35,2.35 0 0 0 -0.36,-0.8 2,2 0 0 0 -0.58,-0.54 1.82,1.82 0 0 0 -1.62,0 2,2 0 0 0 -0.58,0.54 2.35,2.35 0 0 0 -0.36,0.8 3.87,3.87 0 0 0 -0.12,1 4,4 0 0 0 0.12,1 2.6,2.6 0 0 0 0.35,0.79 1.82,1.82 0 0 0 0.59,0.55 1.82,1.82 0 0 0 1.62,0 2,2 0 0 0 0.58,-0.55 2.39,2.39 0 0 0 0.36,-0.79 4,4 0 0 0 0.12,-1 z"
     id="path451"
     inkscape:connector-curvature="0"
     style="fill:#e41e26" />
  <path
     class="cls-3"
     d="m 23.306953,236.02919 -0.08,-0.63 a 3,3 0 0 1 -0.77,0.57 2.51,2.51 0 0 1 -1.13,0.25 3,3 0 0 1 -1.5,-0.36 3.38,3.38 0 0 1 -1.1,-1 4.38,4.38 0 0 1 -0.67,-1.39 6,6 0 0 1 -0.23,-1.65 5.25,5.25 0 0 1 0.24,-1.57 4.13,4.13 0 0 1 0.72,-1.38 3.77,3.77 0 0 1 1.22,-1 3.9,3.9 0 0 1 1.73,-0.37 4.63,4.63 0 0 1 1.4,0.24 v -3.2 h 2.17 v 11.43 z m -0.17,-6.44 a 3.15,3.15 0 0 0 -1.14,-0.24 1.83,1.83 0 0 0 -1.59,0.76 2.51,2.51 0 0 0 -0.38,0.79 3.06,3.06 0 0 0 -0.13,0.9 4.48,4.48 0 0 0 0.11,1 2.83,2.83 0 0 0 0.34,0.83 2.1,2.1 0 0 0 0.58,0.57 1.6,1.6 0 0 0 0.83,0.21 1.74,1.74 0 0 0 0.8,-0.21 1.48,1.48 0 0 0 0.58,-0.51 z"
     id="path453"
     inkscape:connector-curvature="0"
     style="fill:#e41e26" />
  <path
     class="cls-3"
     d="m 31.436953,236.01919 -0.09,-0.62 a 2.26,2.26 0 0 1 -0.87,0.6 3,3 0 0 1 -1.17,0.22 3,3 0 0 1 -1,-0.18 2.76,2.76 0 0 1 -0.87,-0.52 2.49,2.49 0 0 1 -0.84,-1.92 2.3,2.3 0 0 1 0.9,-1.89 3.58,3.58 0 0 1 0.94,-0.53 6,6 0 0 1 1.12,-0.31 7.78,7.78 0 0 1 0.9,-0.13 l 0.82,-0.07 v -0.12 a 1.21,1.21 0 0 0 -0.35,-1 1.47,1.47 0 0 0 -1,-0.29 3,3 0 0 0 -0.68,0.08 2.9,2.9 0 0 0 -0.59,0.22 c -0.17,0.08 -0.32,0.17 -0.46,0.25 l -0.32,0.24 -0.7,-1.5 c 0.09,-0.07 0.23,-0.17 0.42,-0.29 a 5.63,5.63 0 0 1 0.69,-0.33 5.16,5.16 0 0 1 0.91,-0.27 4.64,4.64 0 0 1 1.08,-0.12 4.06,4.06 0 0 1 1.25,0.18 2.46,2.46 0 0 1 1,0.57 2.53,2.53 0 0 1 0.64,1 3.82,3.82 0 0 1 0.24,1.43 v 5.31 z m -0.17,-3.86 -0.71,0.06 a 5,5 0 0 0 -0.69,0.11 1.6,1.6 0 0 0 -1,0.47 1.11,1.11 0 0 0 -0.26,0.73 0.83,0.83 0 0 0 0.3,0.66 1.32,1.32 0 0 0 0.85,0.25 1.87,1.87 0 0 0 0.8,-0.18 2.38,2.38 0 0 0 0.67,-0.42 z"
     id="path455"
     inkscape:connector-curvature="0"
     style="fill:#e41e26" />
  <path
     class="cls-3"
     d="m 39.936953,226.47919 -0.4,-0.14 a 2.84,2.84 0 0 0 -0.8,-0.1 1.05,1.05 0 0 0 -0.74,0.27 1.12,1.12 0 0 0 -0.3,0.87 v 0.39 h 1.78 v 1.71 h -1.77 v 6.55 h -2.12 v -6.55 h -1.1 v -1.71 h 1.1 v -0.43 a 4.15,4.15 0 0 1 0.2,-1.36 2.41,2.41 0 0 1 0.58,-0.91 2.26,2.26 0 0 1 0.86,-0.51 3.4,3.4 0 0 1 1.08,-0.22 5,5 0 0 1 1.28,0.14 4.83,4.83 0 0 1 0.59,0.2 z"
     id="path457"
     inkscape:connector-curvature="0"
     style="fill:#e41e26" />
  <path
     class="cls-3"
     d="m 47.816953,231.85919 a 5.08,5.08 0 0 1 -0.25,1.59 4.35,4.35 0 0 1 -0.73,1.4 3.67,3.67 0 0 1 -1.24,1 3.78,3.78 0 0 1 -1.74,0.38 3.84,3.84 0 0 1 -1.74,-0.38 3.74,3.74 0 0 1 -1.23,-1 4.58,4.58 0 0 1 -0.74,-1.4 5.38,5.38 0 0 1 -0.24,-1.59 5.25,5.25 0 0 1 0.24,-1.57 4.36,4.36 0 0 1 0.74,-1.38 3.71,3.71 0 0 1 1.23,-1 4,4 0 0 1 1.74,-0.37 3.87,3.87 0 0 1 1.73,0.37 3.65,3.65 0 0 1 1.24,1 4,4 0 0 1 0.74,1.38 5,5 0 0 1 0.25,1.57 z m -2.09,0 a 3.87,3.87 0 0 0 -0.12,-1 2.35,2.35 0 0 0 -0.36,-0.8 1.86,1.86 0 0 0 -0.58,-0.54 1.8,1.8 0 0 0 -1.61,0 1.86,1.86 0 0 0 -0.58,0.54 2.35,2.35 0 0 0 -0.36,0.8 3.87,3.87 0 0 0 -0.12,1 4,4 0 0 0 0.12,1 2.37,2.37 0 0 0 0.35,0.79 1.79,1.79 0 0 0 0.58,0.55 1.64,1.64 0 0 0 0.81,0.19 1.62,1.62 0 0 0 0.81,-0.19 1.9,1.9 0 0 0 0.58,-0.55 2.39,2.39 0 0 0 0.36,-0.79 4,4 0 0 0 0.12,-1 z"
     id="path459"
     inkscape:connector-curvature="0"
     style="fill:#e41e26" />
  <path
     class="cls-3"
     d="m 54.416953,236.02919 v -4.69 a 2.31,2.31 0 0 0 -0.4,-1.46 1.29,1.29 0 0 0 -1.09,-0.51 1.74,1.74 0 0 0 -0.92,0.25 3.84,3.84 0 0 0 -0.73,0.57 v 5.86 h -2.12 v -8.26 h 1.93 l 0.11,0.65 a 3.88,3.88 0 0 1 2.38,-0.86 3.6,3.6 0 0 1 1.2,0.2 2.3,2.3 0 0 1 0.94,0.63 2.81,2.81 0 0 1 0.61,1.11 5.71,5.71 0 0 1 0.21,1.65 v 4.88 z"
     id="path461"
     inkscape:connector-curvature="0"
     style="fill:#e41e26" />
  <path
     class="cls-3"
     d="m 59.946953,232.42919 a 2,2 0 0 0 0.65,1.51 2.37,2.37 0 0 0 1.52,0.46 3.59,3.59 0 0 0 0.81,-0.08 3.8,3.8 0 0 0 0.67,-0.19 4.73,4.73 0 0 0 0.5,-0.24 1.78,1.78 0 0 0 0.31,-0.23 l 0.56,1.74 -0.39,0.23 a 4.75,4.75 0 0 1 -0.65,0.27 6.38,6.38 0 0 1 -0.93,0.22 6,6 0 0 1 -1.17,0.1 4.64,4.64 0 0 1 -1.53,-0.26 3.5,3.5 0 0 1 -1.28,-0.8 4,4 0 0 1 -0.87,-1.34 5.07,5.07 0 0 1 -0.33,-1.92 5.28,5.28 0 0 1 0.3,-1.85 3.94,3.94 0 0 1 0.83,-1.36 3.58,3.58 0 0 1 1.21,-0.83 3.74,3.74 0 0 1 1.49,-0.3 4,4 0 0 1 1.45,0.26 3,3 0 0 1 1.16,0.8 3.93,3.93 0 0 1 0.77,1.39 6.58,6.58 0 0 1 0.28,2 v 0.38 z m 3.2,-1.52 a 2.07,2.07 0 0 0 -0.18,-0.75 1.51,1.51 0 0 0 -0.36,-0.51 1.46,1.46 0 0 0 -0.46,-0.3 1.52,1.52 0 0 0 -0.51,-0.09 1.64,1.64 0 0 0 -1.05,0.41 1.77,1.77 0 0 0 -0.59,1.24 z"
     id="path463"
     inkscape:connector-curvature="0"
     style="fill:#e41e26" />
  <rect
     id="rect4174"
     width="437.84161"
     height="236.28436"
     x="0"
     y="0"
     style="opacity:0;fill:none;stroke-width:0.54037195" />
</svg>
